<svg width="30" height="30" viewBox="0 0 30 30" fill="none" xmlns="http://www.w3.org/2000/svg">
<path d="M3.75 3.75C2.90041 3.74994 2.07598 4.03838 1.41173 4.56808C0.747479 5.09777 0.282784 5.83733 0.09375 6.66563L15 15.7762L29.9062 6.66563C29.7172 5.83733 29.2525 5.09777 28.5883 4.56808C27.924 4.03838 27.0996 3.74994 26.25 3.75H3.75ZM0 22.125V8.80875L10.8806 15.4575L0 22.125ZM12.6769 16.5562L0.358125 24.105C0.662219 24.7471 1.14248 25.2897 1.74298 25.6694C2.34348 26.0492 3.0395 26.2505 3.75 26.25H15.48C15.1615 25.3465 14.9992 24.3955 15 23.4375C14.9987 22.2058 15.2677 20.9888 15.788 19.8724C16.3083 18.756 17.0672 17.7674 18.0112 16.9762L17.3231 16.5544L15 17.9738L12.6769 16.5562ZM30 18.1331V8.80688L19.1194 15.4556L19.7531 15.8456C20.9015 15.2887 22.1612 14.9996 23.4375 15C26.0888 15 28.4531 16.2225 30 18.1331Z" fill="white"/>
<path d="M29.6887 22.9575C29.6887 25.1475 28.6069 26.7544 26.7131 26.7544C25.77 26.7544 24.8344 26.3269 24.6131 25.5394H24.5325C24.3112 26.3194 23.5144 26.745 22.6294 26.745C21.1856 26.745 20.2688 25.7288 20.2688 24.0562V23.0644C20.2688 21.4819 21.1706 20.4394 22.6312 20.4394C23.7281 20.4394 24.2625 21.0638 24.4181 21.6206H24.4744V20.5556H26.1713V24.6619C26.1713 25.1719 26.5088 25.4494 26.9419 25.4494C27.5325 25.4494 28.14 24.6712 28.14 22.8431V22.6219C28.14 20.2275 26.3588 18.2606 23.4825 18.2606H23.4075C20.4413 18.2606 18.4575 20.2613 18.4575 23.3681V23.6625C18.4575 27.1631 20.7769 28.6388 23.2762 28.6388H23.3606C24.3112 28.6388 25.1137 28.5075 25.5731 28.3012V29.6719C25.1625 29.8594 24.3675 30 23.2538 30H23.1712C19.5712 30 16.875 27.7875 16.875 23.7112V23.31C16.875 19.425 19.5394 16.875 23.4094 16.875H23.475C27.45 16.875 29.6887 19.5563 29.6887 22.5638V22.9575ZM22.1137 23.3513V23.7769C22.1137 24.8756 22.5394 25.2769 23.2031 25.2769C23.7844 25.2769 24.2606 24.9581 24.2606 23.8837V23.1956C24.2606 22.2281 23.745 21.8681 23.1881 21.8681C22.5394 21.8681 22.1137 22.3275 22.1137 23.3513Z" fill="white"/>
</svg>
