<svg width="261" height="32" viewBox="0 0 261 32" fill="none" xmlns="http://www.w3.org/2000/svg">
<path d="M16.56 3.52C16.48 3.52 15.7333 3.38667 14.32 3.12C12.9333 2.85333 11.92 2.72 11.28 2.72C10.5333 2.72 9.88 2.81333 9.32 3C8.76 3.18666 8.32 3.46666 8 3.84C7.68 4.18666 7.52 4.6 7.52 5.08C7.52 6.09333 8.14667 7.22666 9.4 8.48C9.48 8.56 9.54667 8.65333 9.6 8.76C9.68 8.84 9.73333 8.93333 9.76 9.04C9.81333 9.12 9.84 9.18667 9.84 9.24C9.84 9.29333 9.82667 9.33333 9.8 9.36C9.8 9.36 9.77333 9.36 9.72 9.36C9.53333 9.36 9.17333 9.12 8.64 8.64C7.2 7.30667 6.48 6.02667 6.48 4.8C6.48 3.76 6.97333 2.92 7.96 2.28C8.94667 1.64 10.2667 1.32 11.92 1.32C12.2667 1.32 12.6267 1.33333 13 1.36C13.4 1.38667 13.8 1.44 14.2 1.52C14.3333 1.54667 14.9333 1.66667 16 1.88C17.0933 2.09333 18.16 2.28 19.2 2.44C20.24 2.6 21.1067 2.68 21.8 2.68C22.6 2.68 23.0933 2.56 23.28 2.32C23.36 2.24 23.44 2.18667 23.52 2.16C23.68 2.16 23.76 2.26666 23.76 2.48C23.76 2.56 23.7333 2.65333 23.68 2.76C23.6533 2.86667 23.5867 3 23.48 3.16C23.3733 3.29333 23.24 3.42667 23.08 3.56C22.8667 3.74666 22.6 3.89333 22.28 4C21.96 4.08 21.5733 4.12 21.12 4.12C20.5867 4.12 19.5867 4 18.12 3.76C18.0667 3.89333 17.7467 5.01333 17.16 7.12C16.5733 9.2 16.0667 10.8667 15.64 12.12C15.2133 13.3733 14.6267 15 13.88 17C13.1333 19 12.3067 20.7867 11.4 22.36C10.4933 23.9333 9.53333 25.28 8.52 26.4C11.08 27.5467 13.4133 28.12 15.52 28.12C17.12 28.12 17.92 27.7467 17.92 27C17.92 26.7867 17.8667 26.56 17.76 26.32C17.6533 26.08 17.5467 25.8667 17.44 25.68C17.3333 25.4667 17.28 25.3333 17.28 25.28C17.28 25.1733 17.3067 25.08 17.36 25C17.4133 24.8933 17.48 24.8533 17.56 24.88C17.7733 24.96 17.96 25.2 18.12 25.6C18.28 26 18.36 26.44 18.36 26.92C18.36 27.6933 18.12 28.3467 17.64 28.88C17.16 29.4133 16.3867 29.68 15.32 29.68C14.3067 29.68 13.0133 29.4667 11.44 29.04C9.89333 28.6133 8.58667 28.16 7.52 27.68C6.29333 28.7733 4.84 29.32 3.16 29.32C2.36 29.32 1.69333 29.16 1.16 28.84C0.626667 28.5467 0.36 28.12 0.36 27.56C0.36 26.92 0.666667 26.3067 1.28 25.72C1.92 25.1333 2.68 24.84 3.56 24.84C4.46667 24.84 5.74667 25.2 7.4 25.92C8.52 24.56 9.61333 22.7333 10.68 20.44C11.7467 18.12 12.5867 16.0533 13.2 14.24C13.8133 12.4267 14.48 10.32 15.2 7.92C15.9467 5.49333 16.4 4.02667 16.56 3.52ZM6.48 27.2C6.08 27.0133 5.45333 26.7867 4.6 26.52C3.74667 26.2533 3 26.12 2.36 26.12C1.45333 26.12 1 26.44 1 27.08C1 27.5867 1.2 27.9867 1.6 28.28C2 28.6 2.50667 28.76 3.12 28.76C4.32 28.7333 5.44 28.2133 6.48 27.2ZM33.3063 12.12C31.9463 14.3867 30.6796 16.9867 29.5063 19.92C28.3329 22.8533 27.7463 25.0533 27.7463 26.52C27.7463 27 27.8529 27.24 28.0663 27.24C28.1463 27.24 28.3996 27.1067 28.8263 26.84C29.2796 26.5733 29.5463 26.44 29.6263 26.44C29.7863 26.44 29.8663 26.52 29.8663 26.68C29.8663 27 29.5729 27.36 28.9863 27.76C28.3996 28.16 27.8129 28.36 27.2263 28.36C26.4529 28.36 26.0663 27.7867 26.0663 26.64C26.0663 25.6 26.2796 24.3867 26.7063 23C27.1329 21.6133 27.7996 19.84 28.7063 17.68C29.6129 15.52 30.0663 14.4267 30.0663 14.4C30.1996 14.0533 30.2663 13.7867 30.2663 13.6C30.2663 13.4667 30.2263 13.4 30.1463 13.4C30.0129 13.4 29.7196 13.64 29.2663 14.12C28.1196 15.4 26.4796 17.5867 24.3463 20.68C22.2129 23.7733 21.1196 25.68 21.0663 26.4C21.0396 26.5867 20.7863 26.84 20.3063 27.16C19.8263 27.5067 19.4263 27.68 19.1063 27.68C18.9196 27.68 18.8129 27.5867 18.7862 27.4C18.8396 27.48 19.3329 26.1467 20.2663 23.4C21.2263 20.6533 21.9063 18.6667 22.3063 17.44C22.4129 17.12 22.4663 16.88 22.4663 16.72C22.4663 16.6133 22.4396 16.52 22.3863 16.44C22.3596 16.3333 22.3463 16.2533 22.3463 16.2C22.3463 16.0933 22.3863 15.92 22.4663 15.68C23.0796 13.9733 23.5996 12.8533 24.0263 12.32C24.4529 11.76 25.1063 11.48 25.9863 11.48C26.3329 11.48 26.5329 11.6 26.5863 11.84C24.3996 16.32 23.0929 19.52 22.6663 21.44C27.0663 14.3467 30.4396 10.8 32.7863 10.8C33.3196 10.8 33.5863 10.9733 33.5863 11.32C33.5863 11.56 33.4929 11.8267 33.3063 12.12ZM46.3531 12.12C44.9931 14.3867 43.7265 16.9867 42.5531 19.92C41.3798 22.8533 40.7931 25.0533 40.7931 26.52C40.7931 27 40.8998 27.24 41.1131 27.24C41.1931 27.24 41.4465 27.1067 41.8731 26.84C42.3265 26.5733 42.5931 26.44 42.6731 26.44C42.8331 26.44 42.9131 26.52 42.9131 26.68C42.9131 27 42.6198 27.36 42.0331 27.76C41.4465 28.16 40.8598 28.36 40.2731 28.36C39.4998 28.36 39.1131 27.7867 39.1131 26.64C39.1131 25.6 39.3265 24.3867 39.7531 23C40.1798 21.6133 40.8465 19.84 41.7531 17.68C42.6598 15.52 43.1131 14.4267 43.1131 14.4C43.2465 14.0533 43.3131 13.7867 43.3131 13.6C43.3131 13.4667 43.2731 13.4 43.1931 13.4C43.0598 13.4 42.7665 13.64 42.3131 14.12C41.1665 15.4 39.5265 17.5867 37.3931 20.68C35.2598 23.7733 34.1665 25.68 34.1131 26.4C34.0865 26.5867 33.8331 26.84 33.3531 27.16C32.8731 27.5067 32.4731 27.68 32.1531 27.68C31.9665 27.68 31.8598 27.5867 31.8331 27.4C31.8865 27.48 32.3798 26.1467 33.3131 23.4C34.2731 20.6533 34.9531 18.6667 35.3531 17.44C35.4598 17.12 35.5131 16.88 35.5131 16.72C35.5131 16.6133 35.4865 16.52 35.4331 16.44C35.4065 16.3333 35.3931 16.2533 35.3931 16.2C35.3931 16.0933 35.4331 15.92 35.5131 15.68C36.1265 13.9733 36.6465 12.8533 37.0731 12.32C37.4998 11.76 38.1531 11.48 39.0331 11.48C39.3798 11.48 39.5798 11.6 39.6331 11.84C37.4465 16.32 36.1398 19.52 35.7131 21.44C40.1131 14.3467 43.4865 10.8 45.8331 10.8C46.3665 10.8 46.6331 10.9733 46.6331 11.32C46.6331 11.56 46.5398 11.8267 46.3531 12.12ZM56.36 15.08C56.8667 15.16 57.12 15.3067 57.12 15.52C57.12 15.7333 56.92 15.9467 56.52 16.16C56.12 16.3467 55.76 16.44 55.44 16.44C55.44 19.56 54.6267 22.2267 53 24.44C51.3733 26.6533 49.76 27.76 48.16 27.76C46.6133 27.76 45.84 26.64 45.84 24.4C45.84 23.7867 45.8933 23.1733 46 22.56C46.1333 21.8667 46.3733 20.9733 46.72 19.88C47.0667 18.7867 47.52 17.6 48.08 16.32C48.64 15.04 49.32 13.96 50.12 13.08C50.9467 12.1733 51.7733 11.72 52.6 11.72H52.88C52.88 11.3467 52.9867 11.0267 53.2 10.76C53.4133 10.4933 53.7067 10.36 54.08 10.36C54.4533 10.3867 54.7867 11.1733 55.08 12.72C55.3733 14.24 55.8 15.0267 56.36 15.08ZM54.32 16.12C54.08 15.9867 53.7867 15.52 53.44 14.72C53.0933 13.8933 52.8533 13.48 52.72 13.48C51.8933 13.48 50.9333 14.7067 49.84 17.16C48.7467 19.5867 48.0667 21.5067 47.8 22.92C47.6933 23.5333 47.64 24.0933 47.64 24.6C47.64 25.9067 48.0133 26.56 48.76 26.56C49.8267 26.56 51.0133 25.48 52.32 23.32C53.6533 21.1333 54.32 18.7333 54.32 16.12ZM69.3097 12.84C69.0164 14.4133 68.3497 16.1067 67.3097 17.92C66.2697 19.7067 65.1364 21.28 63.9097 22.64C62.683 24 61.483 25.1467 60.3097 26.08C59.163 26.9867 58.2964 27.44 57.7097 27.44C57.5497 27.44 57.4697 27.3733 57.4697 27.24C57.4697 27.0533 57.4964 26.9333 57.5497 26.88C57.603 26.8 57.6564 26.7333 57.7097 26.68C57.7897 26.6267 57.883 26.5467 57.9897 26.44C58.0964 26.3333 58.1897 26.12 58.2697 25.8C58.3764 25.4533 58.4697 25.0133 58.5497 24.48C58.6564 23.92 58.7497 23.12 58.8297 22.08C58.9097 21.0133 58.963 19.7733 58.9897 18.36C58.9897 17.88 58.9097 17.52 58.7497 17.28C58.5897 17.04 58.5097 16.5733 58.5097 15.88C58.5097 14.5733 58.6297 13.6667 58.8697 13.16C59.1364 12.6533 59.6697 12.4 60.4697 12.4C60.843 12.4 61.0964 12.52 61.2297 12.76C60.2964 20.2 59.7897 24.4 59.7097 25.36C59.7364 25.3333 60.003 25.1067 60.5097 24.68C61.0164 24.2533 61.5097 23.7867 61.9897 23.28C62.4964 22.7733 63.0697 22.1333 63.7097 21.36C64.3764 20.5867 64.9897 19.6667 65.5497 18.6C66.1364 17.5333 66.6164 16.4 66.9897 15.2C67.043 14.9867 67.0697 14.8267 67.0697 14.72C67.0697 14.5333 67.0164 14.3067 66.9097 14.04C66.803 13.7467 66.7497 13.5333 66.7497 13.4C66.7497 13.08 67.0297 12.5867 67.5897 11.92C68.1497 11.2267 68.6164 10.88 68.9897 10.88C69.283 10.88 69.4297 11.16 69.4297 11.72C69.4297 12.04 69.3897 12.4133 69.3097 12.84ZM82.655 23.8C82.6283 23.8267 82.5083 23.9467 82.295 24.16C82.0817 24.3467 81.9083 24.4933 81.775 24.6C81.6417 24.7067 81.4417 24.88 81.175 25.12C80.935 25.3333 80.7217 25.5067 80.535 25.64C80.3483 25.7733 80.1217 25.9333 79.855 26.12C79.5883 26.3067 79.3483 26.4533 79.135 26.56C78.9483 26.64 78.7483 26.72 78.535 26.8C78.3217 26.88 78.1217 26.92 77.935 26.92C77.375 26.92 77.0417 26.5867 76.935 25.92C76.935 24.8 77.375 22.7333 78.255 19.72C74.6817 24.6533 72.1217 27.12 70.575 27.12C69.935 27.12 69.615 26.64 69.615 25.68C69.615 24.4533 69.975 22.8 70.695 20.72C71.4417 18.6133 72.3483 16.72 73.415 15.04C74.4817 13.3333 75.415 12.48 76.215 12.48H76.335L76.775 12.16C77.015 11.8933 77.3883 11.76 77.895 11.76C78.295 11.76 78.855 11.8667 79.575 12.08C80.295 12.2933 80.695 12.4 80.775 12.4C80.8817 12.4 81.015 12.2933 81.175 12.08C81.3617 11.8667 81.575 11.76 81.815 11.76C82.4817 11.76 82.815 12.0533 82.815 12.64C82.815 12.88 82.7617 13.1467 82.655 13.44C82.575 13.7333 82.4417 14.08 82.255 14.48C82.095 14.8533 82.0017 15.08 81.975 15.16C81.9483 15.2133 81.815 15.2933 81.575 15.4C81.3617 15.5067 81.2417 15.6 81.215 15.68C80.6283 17.3333 80.1083 19.1067 79.655 21C79.2017 22.8667 78.975 24.0133 78.975 24.44C78.975 25.1067 79.1617 25.44 79.535 25.44C79.9083 25.44 80.3617 25.2133 80.895 24.76C81.455 24.3067 81.935 23.8533 82.335 23.4C82.735 22.9467 82.9483 22.72 82.975 22.72C83.0283 22.72 83.055 22.7733 83.055 22.88C83.055 23.28 82.9217 23.5867 82.655 23.8ZM80.015 13.16C79.855 13.16 79.575 13.1333 79.175 13.08C78.8017 13.0267 78.4817 13 78.215 13C77.8417 13 77.4417 13.0533 77.015 13.16C76.3483 13.3467 75.255 14.9333 73.735 17.92C72.215 20.88 71.455 23.0933 71.455 24.56C71.455 25.0133 71.5883 25.24 71.855 25.24C72.415 25.24 73.4017 24.4267 74.815 22.8C76.255 21.1733 77.2017 20.0133 77.655 19.32C78.3217 18.2533 78.935 17.1067 79.495 15.88C80.055 14.6267 80.335 13.8 80.335 13.4C80.335 13.24 80.2683 13.16 80.135 13.16H80.015ZM93.0991 13.88C93.0991 14.44 92.9657 14.9467 92.6991 15.4C92.4591 15.8267 92.1924 16.04 91.8991 16.04C91.5791 16.04 91.4191 15.8 91.4191 15.32C91.4191 15.16 91.4724 14.8667 91.5791 14.44C91.6857 14.0133 91.7391 13.7067 91.7391 13.52C91.7391 13.0933 91.5124 12.88 91.0591 12.88C90.7391 12.88 90.2324 13.1067 89.5391 13.56C88.8724 13.9867 88.3657 14.3733 88.0191 14.72C87.5124 15.2533 86.7791 16.72 85.8191 19.12C84.8591 21.4933 84.3791 23.3333 84.3791 24.64C84.3791 25.6267 84.7657 26.12 85.5391 26.12C86.5257 26.12 87.5124 25.7467 88.4991 25C89.4857 24.2267 90.2857 23.4533 90.8991 22.68C91.5124 21.88 91.8324 21.48 91.8591 21.48C91.9924 21.5333 92.0591 21.6267 92.0591 21.76C92.0591 22.16 91.7391 22.8 91.0991 23.68C90.4591 24.5333 89.5657 25.36 88.4191 26.16C87.2991 26.9333 86.2057 27.32 85.1391 27.32C83.5124 27.32 82.6991 26.3733 82.6991 24.48C82.6991 22.64 83.2991 20.4267 84.4991 17.84C85.6991 15.2533 86.7391 13.76 87.6191 13.36C88.0191 13.2 88.4457 13 88.8991 12.76C89.3791 12.52 89.7791 12.3333 90.0991 12.2C90.4457 12.0667 90.8191 12 91.2191 12C92.4724 12 93.0991 12.6267 93.0991 13.88ZM101.997 5C101.997 5.34667 101.744 5.78667 101.237 6.32C100.73 6.85333 100.41 7.26667 100.277 7.56C99.9302 8.44 99.5569 8.93333 99.1569 9.04C98.6235 9.04 98.3569 8.6 98.3569 7.72C98.3569 7.16 98.7702 6.54667 99.5969 5.88C100.424 5.21333 101.144 4.88 101.757 4.88C101.89 4.88 101.97 4.92 101.997 5ZM99.7169 11.84C99.6635 11.92 99.4769 12.2533 99.1569 12.84C98.8635 13.4267 98.6102 13.9333 98.3969 14.36C98.1835 14.7867 97.8902 15.4133 97.5169 16.24C97.1435 17.0667 96.8102 17.8533 96.5169 18.6C96.2235 19.3467 95.9169 20.24 95.5969 21.28C95.2769 22.32 94.9969 23.36 94.7569 24.4C94.7302 24.48 94.7169 24.5867 94.7169 24.72C94.7169 25.04 94.8502 25.2 95.1169 25.2C95.2769 25.2 95.7035 25 96.3969 24.6C97.1169 24.2 97.5835 24 97.7969 24C97.9835 24 98.0902 24.0533 98.1169 24.16C98.1169 24.48 97.4369 25.08 96.0769 25.96C94.7169 26.8133 93.7835 27.24 93.2769 27.24C92.7702 27.24 92.5169 27 92.5169 26.52C92.5169 26.28 92.5702 26 92.6769 25.68C92.9702 24.8533 93.2635 24 93.5569 23.12C93.8769 22.24 94.1169 21.56 94.2769 21.08C94.4369 20.6 94.5969 20.1067 94.7569 19.6C94.9435 19.0933 95.0769 18.72 95.1569 18.48C95.2369 18.2133 95.3035 17.96 95.3569 17.72C95.4369 17.4533 95.4902 17.2533 95.5169 17.12C95.5435 16.9867 95.5569 16.8533 95.5569 16.72C95.5569 16.6133 95.5302 16.52 95.4769 16.44C95.4502 16.3333 95.4369 16.2533 95.4369 16.2C95.4369 16.0933 95.4769 15.92 95.5569 15.68C96.1435 14 96.6635 12.88 97.1169 12.32C97.5702 11.76 98.2369 11.48 99.1169 11.48C99.4635 11.48 99.6635 11.6 99.7169 11.84ZM109.876 15.08C110.382 15.16 110.636 15.3067 110.636 15.52C110.636 15.7333 110.436 15.9467 110.036 16.16C109.636 16.3467 109.276 16.44 108.956 16.44C108.956 19.56 108.142 22.2267 106.516 24.44C104.889 26.6533 103.276 27.76 101.676 27.76C100.129 27.76 99.3556 26.64 99.3556 24.4C99.3556 23.7867 99.409 23.1733 99.5156 22.56C99.649 21.8667 99.889 20.9733 100.236 19.88C100.582 18.7867 101.036 17.6 101.596 16.32C102.156 15.04 102.836 13.96 103.636 13.08C104.462 12.1733 105.289 11.72 106.116 11.72H106.396C106.396 11.3467 106.502 11.0267 106.716 10.76C106.929 10.4933 107.222 10.36 107.596 10.36C107.969 10.3867 108.302 11.1733 108.596 12.72C108.889 14.24 109.316 15.0267 109.876 15.08ZM107.836 16.12C107.596 15.9867 107.302 15.52 106.956 14.72C106.609 13.8933 106.369 13.48 106.236 13.48C105.409 13.48 104.449 14.7067 103.356 17.16C102.262 19.5867 101.582 21.5067 101.316 22.92C101.209 23.5333 101.156 24.0933 101.156 24.6C101.156 25.9067 101.529 26.56 102.276 26.56C103.342 26.56 104.529 25.48 105.836 23.32C107.169 21.1333 107.836 18.7333 107.836 16.12ZM112.356 4.32C111.769 4.69333 111.022 5.25333 110.116 6C109.236 6.74667 108.449 7.37333 107.756 7.88C107.062 8.38667 106.489 8.69333 106.036 8.8C105.982 8.8 105.942 8.8 105.916 8.8C105.889 8.8 105.862 8.8 105.836 8.8C105.809 8.77333 105.796 8.74667 105.796 8.72C105.796 8.24 107.582 6.32 111.156 2.96C111.236 2.88 111.316 2.82667 111.396 2.8C111.476 2.77333 111.556 2.76 111.636 2.76C111.876 2.76 112.089 2.88 112.276 3.12C112.489 3.36 112.596 3.6 112.596 3.84C112.596 3.94666 112.569 4.04 112.516 4.12C112.489 4.2 112.436 4.26667 112.356 4.32ZM123.345 12.12C121.985 14.3867 120.719 16.9867 119.545 19.92C118.372 22.8533 117.785 25.0533 117.785 26.52C117.785 27 117.892 27.24 118.105 27.24C118.185 27.24 118.439 27.1067 118.865 26.84C119.319 26.5733 119.585 26.44 119.665 26.44C119.825 26.44 119.905 26.52 119.905 26.68C119.905 27 119.612 27.36 119.025 27.76C118.439 28.16 117.852 28.36 117.265 28.36C116.492 28.36 116.105 27.7867 116.105 26.64C116.105 25.6 116.319 24.3867 116.745 23C117.172 21.6133 117.839 19.84 118.745 17.68C119.652 15.52 120.105 14.4267 120.105 14.4C120.239 14.0533 120.305 13.7867 120.305 13.6C120.305 13.4667 120.265 13.4 120.185 13.4C120.052 13.4 119.759 13.64 119.305 14.12C118.159 15.4 116.519 17.5867 114.385 20.68C112.252 23.7733 111.159 25.68 111.105 26.4C111.079 26.5867 110.825 26.84 110.345 27.16C109.865 27.5067 109.465 27.68 109.145 27.68C108.959 27.68 108.852 27.5867 108.825 27.4C108.879 27.48 109.372 26.1467 110.305 23.4C111.265 20.6533 111.945 18.6667 112.345 17.44C112.452 17.12 112.505 16.88 112.505 16.72C112.505 16.6133 112.479 16.52 112.425 16.44C112.399 16.3333 112.385 16.2533 112.385 16.2C112.385 16.0933 112.425 15.92 112.505 15.68C113.119 13.9733 113.639 12.8533 114.065 12.32C114.492 11.76 115.145 11.48 116.025 11.48C116.372 11.48 116.572 11.6 116.625 11.84C114.439 16.32 113.132 19.52 112.705 21.44C117.105 14.3467 120.479 10.8 122.825 10.8C123.359 10.8 123.625 10.9733 123.625 11.32C123.625 11.56 123.532 11.8267 123.345 12.12ZM147.64 15.36C147.56 15.36 147.467 15.36 147.36 15.36C147.28 15.36 147.2 15.36 147.12 15.36C147.067 15.36 146.987 15.36 146.88 15.36C146.773 15.36 146.68 15.36 146.6 15.36C146.547 15.36 146.467 15.36 146.36 15.36C146.28 15.3333 146.213 15.32 146.16 15.32C146.107 15.2933 146.04 15.2667 145.96 15.24C145.907 15.2133 145.853 15.1867 145.8 15.16C145.773 15.1067 145.747 15.0533 145.72 15C145.693 14.9467 145.68 14.88 145.68 14.8C145.68 14.5867 145.773 14.3733 145.96 14.16C146.147 13.92 146.347 13.8 146.56 13.8C146.8 13.8 147.053 13.8 147.32 13.8C147.693 13.8 148.24 13.8133 148.96 13.84C149.707 13.84 150.24 13.84 150.56 13.84C150.88 12.9333 151.347 11.56 151.96 9.72C152.573 7.85333 153.04 6.45333 153.36 5.52C146.533 3.52 141.347 2.52 137.8 2.52C137.027 2.52 136.267 2.57333 135.52 2.68C134.773 2.78667 133.973 2.98667 133.12 3.28C132.293 3.54667 131.613 3.97333 131.08 4.56C130.573 5.12 130.32 5.81333 130.32 6.64C130.32 7.89333 130.88 9.18667 132 10.52C133.147 11.8533 134.4 12.9733 135.76 13.88C137.12 14.76 138.36 15.5867 139.48 16.36C140.627 17.1333 141.2 17.64 141.2 17.88C141.2 17.96 141.147 18 141.04 18C140.613 18 139.773 17.6667 138.52 17C137.293 16.36 136.147 15.6667 135.08 14.92C134.04 14.1467 133.04 13.2667 132.08 12.28C131.12 11.2933 130.373 10.1867 129.84 8.96C129.28 7.70667 129 6.41333 129 5.08C129 2.12 131.293 0.639998 135.88 0.639998C140.44 0.639998 146.387 1.92 153.72 4.48C153.747 4.37333 153.8 4.16 153.88 3.84C153.987 3.52 154.08 3.25333 154.16 3.04C154.24 2.82666 154.347 2.58666 154.48 2.32C154.613 2.05333 154.773 1.85333 154.96 1.72C155.147 1.58667 155.347 1.52 155.56 1.52C156.067 1.52 156.533 1.78667 156.96 2.32C157.387 2.85333 157.6 3.37333 157.6 3.88C157.6 4.14667 157.52 4.28 157.36 4.28C157.173 4.28 156.933 4.16 156.64 3.92C156.347 3.68 156.173 3.56 156.12 3.56C155.907 3.56 155.707 3.73333 155.52 4.08C155.333 4.42667 155.213 4.73333 155.16 5C158.36 6.09333 161.613 6.64 164.92 6.64C165.48 6.64 166 6.57333 166.48 6.44C166.96 6.30667 167.333 6.17333 167.6 6.04C167.867 5.90666 168.027 5.84 168.08 5.84C168.427 5.84 168.6 5.96 168.6 6.2C168.6 6.86667 168.093 7.34667 167.08 7.64C166.067 7.93333 165.133 8.08 164.28 8.08C162.92 8.08 161.307 7.89333 159.44 7.52C157.6 7.14667 156.067 6.68 154.84 6.12C154.707 6.54667 154.307 7.69333 153.64 9.56C152.973 11.4 152.48 12.8267 152.16 13.84C152.347 13.84 153.36 13.8667 155.2 13.92C157.04 13.9467 158.293 13.96 158.96 13.96C159.44 13.96 159.827 14.0267 160.12 14.16C160.44 14.2667 160.6 14.4 160.6 14.56C160.6 14.8533 160.133 15 159.2 15C158.427 15 157.013 15.04 154.96 15.12C152.907 15.2 151.827 15.24 151.72 15.24C151.24 16.9733 150.507 18.88 149.52 20.96C148.533 23.0133 147.52 24.6133 146.48 25.76C151.92 28.4 156.427 29.72 160 29.72C161.36 29.72 162.6 29.3333 163.72 28.56C164.84 27.8133 165.4 26.7867 165.4 25.48C165.4 24.8667 165.187 24.2533 164.76 23.64C164.333 23 164.12 22.6 164.12 22.44C164.12 21.9067 164.333 21.64 164.76 21.64C165.133 21.64 165.493 21.9867 165.84 22.68C166.213 23.3733 166.4 24.2133 166.4 25.2C166.4 27.0933 165.653 28.56 164.16 29.6C162.693 30.6667 160.973 31.2 159 31.2C157.693 31.2 156.16 30.9467 154.4 30.44C152.667 29.9333 151.333 29.48 150.4 29.08C149.467 28.68 148 28.0133 146 27.08C145.653 26.92 145.387 26.8 145.2 26.72C142.853 28.9067 139.933 30 136.44 30C135.107 30 133.92 29.7467 132.88 29.24C131.84 28.7333 131.32 27.8667 131.32 26.64C131.32 25.4133 131.8 24.4267 132.76 23.68C133.72 22.9067 134.84 22.52 136.12 22.52C138.333 22.52 141.387 23.4133 145.28 25.2C146.587 23.4933 148.2 20.2 150.12 15.32C149.987 15.32 149.627 15.3333 149.04 15.36C148.453 15.36 147.987 15.36 147.64 15.36ZM144.36 26.28C143.213 25.7467 141.707 25.2533 139.84 24.8C138 24.3467 136.507 24.12 135.36 24.12C133.573 24.12 132.68 24.6667 132.68 25.76C132.68 26.4267 133.04 27.0133 133.76 27.52C134.48 28.0533 135.253 28.4133 136.08 28.6C136.907 28.8133 137.653 28.92 138.32 28.92C140.587 28.92 142.6 28.04 144.36 26.28ZM184.423 1.08C184.503 1.13333 184.543 1.25333 184.543 1.44C184.543 1.86667 184.329 2.66667 183.903 3.84C183.503 4.98667 182.929 6.49333 182.183 8.36C181.463 10.2 180.903 11.7067 180.503 12.88C180.529 12.8533 180.556 12.84 180.583 12.84C180.689 12.84 180.796 12.9333 180.903 13.12C181.036 13.3067 181.103 13.48 181.103 13.64C181.103 13.8 180.969 13.88 180.703 13.88C180.356 13.88 180.169 13.84 180.143 13.76C179.609 14.96 178.929 16.9067 178.103 19.6C177.303 22.2933 176.903 23.9467 176.903 24.56C176.903 25.1733 177.076 25.48 177.423 25.48C177.823 25.48 178.289 25.2533 178.823 24.8C179.356 24.32 179.823 23.84 180.223 23.36C180.649 22.88 180.903 22.64 180.983 22.64C181.063 22.64 181.103 22.7067 181.103 22.84C181.103 22.92 181.076 23.0267 181.023 23.16C180.996 23.2933 180.956 23.4133 180.903 23.52C180.876 23.6 180.849 23.64 180.823 23.64C180.209 24.2533 179.356 24.96 178.263 25.76C177.169 26.5333 176.316 26.92 175.703 26.92C175.196 26.92 174.943 26.64 174.943 26.08C174.943 24.64 175.449 22.44 176.463 19.48C175.316 21.1067 173.916 22.8133 172.263 24.6C170.636 26.3867 169.356 27.28 168.423 27.28C167.863 27.28 167.583 26.88 167.583 26.08C167.583 24.9333 167.983 23.28 168.783 21.12C169.583 18.9333 170.529 16.96 171.623 15.2C172.743 13.4133 173.676 12.52 174.423 12.52H174.583C174.769 12.52 174.983 12.4267 175.223 12.24C175.489 12.0267 175.769 11.92 176.063 11.92C176.463 11.92 177.023 12.0267 177.743 12.24C178.489 12.4533 178.889 12.56 178.943 12.56C178.969 12.56 178.983 12.5467 178.983 12.52C180.903 7.34666 181.889 4.68 181.943 4.52C181.649 4.52 181.503 4.36 181.503 4.04C181.503 3.29333 181.903 2.32 182.703 1.12C182.809 0.906666 183.023 0.799999 183.343 0.799999C183.689 0.799999 184.049 0.893332 184.423 1.08ZM178.703 13.44C178.703 13.1467 177.916 13 176.343 13C175.889 13 175.556 13.0267 175.343 13.08C174.756 13.24 173.623 14.8533 171.943 17.92C170.289 20.9867 169.463 23.2267 169.463 24.64C169.463 25.0667 169.596 25.28 169.863 25.28C170.129 25.28 170.516 25.0667 171.023 24.64C171.529 24.2133 171.996 23.76 172.423 23.28C172.849 22.8 173.316 22.28 173.823 21.72C174.329 21.1333 174.596 20.8133 174.623 20.76C175.343 19.96 175.996 19.0267 176.583 17.96C177.196 16.8667 177.689 15.8533 178.063 14.92C178.463 13.9867 178.676 13.4933 178.703 13.44ZM195.298 11.64C195.218 11.88 194.924 12.68 194.418 14.04C193.911 15.4 193.498 16.5467 193.178 17.48C192.698 18.84 192.178 20.4933 191.618 22.44C191.084 24.3867 190.818 25.5733 190.818 26C190.818 26.08 190.844 26.12 190.898 26.12C191.111 26.12 191.644 25.7867 192.498 25.12C193.378 24.4533 193.978 24.12 194.298 24.12C194.511 24.12 194.618 24.1867 194.618 24.32C194.618 24.5067 194.311 24.8133 193.698 25.24C193.111 25.6667 192.431 26.12 191.658 26.6C190.884 27.0533 190.458 27.3067 190.378 27.36C190.191 27.52 189.911 27.7867 189.538 28.16C189.191 28.56 188.858 28.88 188.538 29.12C188.244 29.3867 187.978 29.52 187.738 29.52C187.391 29.52 187.218 29.3733 187.218 29.08C187.218 28.8933 187.431 28.6 187.858 28.2C188.284 27.8267 188.564 27.4933 188.698 27.2C189.151 26.1067 190.058 22.92 191.418 17.64C190.164 19.5067 188.498 21.6 186.418 23.92C184.364 26.2133 182.818 27.36 181.778 27.36C181.404 27.36 181.218 27.12 181.218 26.64C181.218 26.24 181.364 25.6667 181.658 24.92C181.658 24.8933 181.978 24.1733 182.618 22.76C183.258 21.3467 183.764 20.1333 184.138 19.12C184.538 18.08 184.738 17.3333 184.738 16.88C184.738 16.7467 184.711 16.6267 184.658 16.52C184.604 16.3867 184.578 16.28 184.578 16.2C184.578 16.1733 184.604 16.0267 184.658 15.76C185.111 14.0533 185.538 12.9333 185.938 12.4C186.338 11.84 187.004 11.56 187.938 11.56C188.311 11.56 188.538 11.68 188.618 11.92C185.418 19.7867 183.818 23.9067 183.818 24.28C183.818 24.3867 183.858 24.44 183.938 24.44C184.044 24.44 184.364 24.2267 184.898 23.8C187.564 21.7467 189.911 18.8667 191.938 15.16C191.964 14.3333 192.218 13.48 192.697 12.6C193.178 11.72 193.884 11.28 194.818 11.28C195.111 11.28 195.271 11.4 195.298 11.64ZM204.818 13.88C204.818 14.44 204.684 14.9467 204.418 15.4C204.178 15.8267 203.911 16.04 203.618 16.04C203.298 16.04 203.138 15.8 203.138 15.32C203.138 15.16 203.191 14.8667 203.298 14.44C203.404 14.0133 203.458 13.7067 203.458 13.52C203.458 13.0933 203.231 12.88 202.778 12.88C202.458 12.88 201.951 13.1067 201.258 13.56C200.591 13.9867 200.084 14.3733 199.738 14.72C199.231 15.2533 198.498 16.72 197.538 19.12C196.578 21.4933 196.098 23.3333 196.098 24.64C196.098 25.6267 196.484 26.12 197.258 26.12C198.244 26.12 199.231 25.7467 200.218 25C201.204 24.2267 202.004 23.4533 202.618 22.68C203.231 21.88 203.551 21.48 203.578 21.48C203.711 21.5333 203.778 21.6267 203.778 21.76C203.778 22.16 203.458 22.8 202.818 23.68C202.178 24.5333 201.284 25.36 200.138 26.16C199.018 26.9333 197.924 27.32 196.858 27.32C195.231 27.32 194.418 26.3733 194.418 24.48C194.418 22.64 195.018 20.4267 196.218 17.84C197.418 15.2533 198.458 13.76 199.338 13.36C199.738 13.2 200.164 13 200.618 12.76C201.098 12.52 201.498 12.3333 201.818 12.2C202.164 12.0667 202.538 12 202.938 12C204.191 12 204.818 12.6267 204.818 13.88ZM216.796 23.8C216.769 23.8267 216.649 23.9467 216.436 24.16C216.222 24.3467 216.049 24.4933 215.916 24.6C215.782 24.7067 215.582 24.88 215.316 25.12C215.076 25.3333 214.862 25.5067 214.676 25.64C214.489 25.7733 214.262 25.9333 213.996 26.12C213.729 26.3067 213.489 26.4533 213.276 26.56C213.089 26.64 212.889 26.72 212.676 26.8C212.462 26.88 212.262 26.92 212.076 26.92C211.516 26.92 211.182 26.5867 211.076 25.92C211.076 24.8 211.516 22.7333 212.396 19.72C208.822 24.6533 206.262 27.12 204.716 27.12C204.076 27.12 203.756 26.64 203.756 25.68C203.756 24.4533 204.116 22.8 204.836 20.72C205.582 18.6133 206.489 16.72 207.556 15.04C208.622 13.3333 209.556 12.48 210.356 12.48H210.476L210.916 12.16C211.156 11.8933 211.529 11.76 212.036 11.76C212.436 11.76 212.996 11.8667 213.716 12.08C214.436 12.2933 214.836 12.4 214.916 12.4C215.022 12.4 215.156 12.2933 215.316 12.08C215.502 11.8667 215.716 11.76 215.956 11.76C216.622 11.76 216.956 12.0533 216.956 12.64C216.956 12.88 216.902 13.1467 216.796 13.44C216.716 13.7333 216.582 14.08 216.396 14.48C216.236 14.8533 216.142 15.08 216.116 15.16C216.089 15.2133 215.956 15.2933 215.716 15.4C215.502 15.5067 215.382 15.6 215.356 15.68C214.769 17.3333 214.249 19.1067 213.796 21C213.342 22.8667 213.116 24.0133 213.116 24.44C213.116 25.1067 213.302 25.44 213.676 25.44C214.049 25.44 214.502 25.2133 215.036 24.76C215.596 24.3067 216.076 23.8533 216.476 23.4C216.876 22.9467 217.089 22.72 217.116 22.72C217.169 22.72 217.196 22.7733 217.196 22.88C217.196 23.28 217.062 23.5867 216.796 23.8ZM214.156 13.16C213.996 13.16 213.716 13.1333 213.316 13.08C212.942 13.0267 212.622 13 212.356 13C211.982 13 211.582 13.0533 211.156 13.16C210.489 13.3467 209.396 14.9333 207.876 17.92C206.356 20.88 205.596 23.0933 205.596 24.56C205.596 25.0133 205.729 25.24 205.996 25.24C206.556 25.24 207.542 24.4267 208.956 22.8C210.396 21.1733 211.342 20.0133 211.796 19.32C212.462 18.2533 213.076 17.1067 213.636 15.88C214.196 14.6267 214.476 13.8 214.476 13.4C214.476 13.24 214.409 13.16 214.276 13.16H214.156ZM222.72 12L222.88 11.44C222.96 11.12 223 10.8933 223 10.76C223 10.6533 222.973 10.56 222.92 10.48C222.866 10.3733 222.84 10.28 222.84 10.2C222.84 10.12 222.88 9.96 222.96 9.72C223.493 8.01333 223.973 6.88 224.4 6.32C224.853 5.76 225.506 5.48 226.36 5.48C226.733 5.48 226.946 5.6 227 5.84C226.413 7.09333 225.6 9.14667 224.56 12H228.44C229.186 12 229.56 12.08 229.56 12.24C229.56 12.5067 228.946 12.72 227.72 12.88C226.493 13.0133 225.32 13.08 224.2 13.08C222.866 16.84 221.786 20.44 220.96 23.88C220.826 24.4133 220.76 24.8 220.76 25.04C220.76 25.4933 220.906 25.72 221.2 25.72C221.733 25.72 222.506 25.2533 223.52 24.32C224.56 23.36 225.12 22.88 225.2 22.88C225.333 22.88 225.4 22.96 225.4 23.12C225.4 23.5733 225.253 23.8667 224.96 24C222.506 26.2133 220.786 27.32 219.8 27.32C219.186 27.32 218.88 26.9333 218.88 26.16C218.88 25.7333 219.2 24.48 219.84 22.4C219.92 22.1333 220.773 19.08 222.4 13.24C221.76 13.3467 220.866 13.4 219.72 13.4C219.106 13.4 218.8 13.28 218.8 13.04C218.8 12.8533 218.973 12.64 219.32 12.4C219.666 12.1333 219.946 12 220.16 12H222.72ZM236.138 5C236.138 5.34667 235.884 5.78667 235.378 6.32C234.871 6.85333 234.551 7.26667 234.418 7.56C234.071 8.44 233.698 8.93333 233.298 9.04C232.764 9.04 232.498 8.6 232.498 7.72C232.498 7.16 232.911 6.54667 233.738 5.88C234.564 5.21333 235.284 4.88 235.898 4.88C236.031 4.88 236.111 4.92 236.138 5ZM233.858 11.84C233.804 11.92 233.618 12.2533 233.298 12.84C233.004 13.4267 232.751 13.9333 232.538 14.36C232.324 14.7867 232.031 15.4133 231.658 16.24C231.284 17.0667 230.951 17.8533 230.658 18.6C230.364 19.3467 230.058 20.24 229.738 21.28C229.418 22.32 229.138 23.36 228.898 24.4C228.871 24.48 228.858 24.5867 228.858 24.72C228.858 25.04 228.991 25.2 229.258 25.2C229.418 25.2 229.844 25 230.538 24.6C231.258 24.2 231.724 24 231.938 24C232.124 24 232.231 24.0533 232.258 24.16C232.258 24.48 231.578 25.08 230.218 25.96C228.858 26.8133 227.924 27.24 227.418 27.24C226.911 27.24 226.658 27 226.658 26.52C226.658 26.28 226.711 26 226.818 25.68C227.111 24.8533 227.404 24 227.698 23.12C228.018 22.24 228.258 21.56 228.418 21.08C228.578 20.6 228.738 20.1067 228.898 19.6C229.084 19.0933 229.218 18.72 229.298 18.48C229.378 18.2133 229.444 17.96 229.498 17.72C229.578 17.4533 229.631 17.2533 229.658 17.12C229.684 16.9867 229.698 16.8533 229.698 16.72C229.698 16.6133 229.671 16.52 229.618 16.44C229.591 16.3333 229.578 16.2533 229.578 16.2C229.578 16.0933 229.618 15.92 229.698 15.68C230.284 14 230.804 12.88 231.258 12.32C231.711 11.76 232.378 11.48 233.258 11.48C233.604 11.48 233.804 11.6 233.858 11.84ZM246.536 12.84C246.243 14.4133 245.576 16.1067 244.536 17.92C243.496 19.7067 242.363 21.28 241.136 22.64C239.91 24 238.71 25.1467 237.536 26.08C236.39 26.9867 235.523 27.44 234.936 27.44C234.776 27.44 234.696 27.3733 234.696 27.24C234.696 27.0533 234.723 26.9333 234.776 26.88C234.83 26.8 234.883 26.7333 234.936 26.68C235.016 26.6267 235.11 26.5467 235.216 26.44C235.323 26.3333 235.416 26.12 235.496 25.8C235.603 25.4533 235.696 25.0133 235.776 24.48C235.883 23.92 235.976 23.12 236.056 22.08C236.136 21.0133 236.19 19.7733 236.216 18.36C236.216 17.88 236.136 17.52 235.976 17.28C235.816 17.04 235.736 16.5733 235.736 15.88C235.736 14.5733 235.856 13.6667 236.096 13.16C236.363 12.6533 236.896 12.4 237.696 12.4C238.07 12.4 238.323 12.52 238.456 12.76C237.523 20.2 237.016 24.4 236.936 25.36C236.963 25.3333 237.23 25.1067 237.736 24.68C238.243 24.2533 238.736 23.7867 239.216 23.28C239.723 22.7733 240.296 22.1333 240.936 21.36C241.603 20.5867 242.216 19.6667 242.776 18.6C243.363 17.5333 243.843 16.4 244.216 15.2C244.27 14.9867 244.296 14.8267 244.296 14.72C244.296 14.5333 244.243 14.3067 244.136 14.04C244.03 13.7467 243.976 13.5333 243.976 13.4C243.976 13.08 244.256 12.5867 244.816 11.92C245.376 11.2267 245.843 10.88 246.216 10.88C246.51 10.88 246.656 11.16 246.656 11.72C246.656 12.04 246.616 12.4133 246.536 12.84ZM259.882 23.8C259.855 23.8267 259.735 23.9467 259.522 24.16C259.308 24.3467 259.135 24.4933 259.002 24.6C258.868 24.7067 258.668 24.88 258.402 25.12C258.162 25.3333 257.948 25.5067 257.762 25.64C257.575 25.7733 257.348 25.9333 257.082 26.12C256.815 26.3067 256.575 26.4533 256.362 26.56C256.175 26.64 255.975 26.72 255.762 26.8C255.548 26.88 255.348 26.92 255.162 26.92C254.602 26.92 254.268 26.5867 254.162 25.92C254.162 24.8 254.602 22.7333 255.482 19.72C251.908 24.6533 249.348 27.12 247.802 27.12C247.162 27.12 246.842 26.64 246.842 25.68C246.842 24.4533 247.202 22.8 247.922 20.72C248.668 18.6133 249.575 16.72 250.642 15.04C251.708 13.3333 252.642 12.48 253.442 12.48H253.562L254.002 12.16C254.242 11.8933 254.615 11.76 255.122 11.76C255.522 11.76 256.082 11.8667 256.802 12.08C257.522 12.2933 257.922 12.4 258.002 12.4C258.108 12.4 258.242 12.2933 258.402 12.08C258.588 11.8667 258.802 11.76 259.042 11.76C259.708 11.76 260.042 12.0533 260.042 12.64C260.042 12.88 259.988 13.1467 259.882 13.44C259.802 13.7333 259.668 14.08 259.482 14.48C259.322 14.8533 259.228 15.08 259.202 15.16C259.175 15.2133 259.042 15.2933 258.802 15.4C258.588 15.5067 258.468 15.6 258.442 15.68C257.855 17.3333 257.335 19.1067 256.882 21C256.428 22.8667 256.202 24.0133 256.202 24.44C256.202 25.1067 256.388 25.44 256.762 25.44C257.135 25.44 257.588 25.2133 258.122 24.76C258.682 24.3067 259.162 23.8533 259.562 23.4C259.962 22.9467 260.175 22.72 260.202 22.72C260.255 22.72 260.282 22.7733 260.282 22.88C260.282 23.28 260.148 23.5867 259.882 23.8ZM257.242 13.16C257.082 13.16 256.802 13.1333 256.402 13.08C256.028 13.0267 255.708 13 255.442 13C255.068 13 254.668 13.0533 254.242 13.16C253.575 13.3467 252.482 14.9333 250.962 17.92C249.442 20.88 248.682 23.0933 248.682 24.56C248.682 25.0133 248.815 25.24 249.082 25.24C249.642 25.24 250.628 24.4267 252.042 22.8C253.482 21.1733 254.428 20.0133 254.882 19.32C255.548 18.2533 256.162 17.1067 256.722 15.88C257.282 14.6267 257.562 13.8 257.562 13.4C257.562 13.24 257.495 13.16 257.362 13.16H257.242Z" fill="white"/>
</svg>
