<svg width="132" height="21" viewBox="0 0 132 21" fill="none" xmlns="http://www.w3.org/2000/svg">
<path d="M8.28 2.26C8.24 2.26 7.86667 2.19333 7.16 2.06C6.46667 1.92667 5.96 1.86 5.64 1.86C5.26667 1.86 4.94 1.90667 4.66 2C4.38 2.09333 4.16 2.23333 4 2.42C3.84 2.59333 3.76 2.8 3.76 3.04C3.76 3.54667 4.07333 4.11333 4.7 4.74C4.74 4.78 4.77333 4.82667 4.8 4.88C4.84 4.92 4.86667 4.96667 4.88 5.02C4.90667 5.06 4.92 5.09333 4.92 5.12C4.92 5.14667 4.91333 5.16667 4.9 5.18C4.9 5.18 4.88667 5.18 4.86 5.18C4.76667 5.18 4.58667 5.06 4.32 4.82C3.6 4.15333 3.24 3.51333 3.24 2.9C3.24 2.38 3.48667 1.96 3.98 1.64C4.47333 1.32 5.13333 1.16 5.96 1.16C6.13333 1.16 6.31333 1.16667 6.5 1.18C6.7 1.19333 6.9 1.22 7.1 1.26C7.16667 1.27333 7.46667 1.33333 8 1.44C8.54667 1.54667 9.08 1.64 9.6 1.72C10.12 1.8 10.5533 1.84 10.9 1.84C11.3 1.84 11.5467 1.78 11.64 1.66C11.68 1.62 11.72 1.59333 11.76 1.58C11.84 1.58 11.88 1.63333 11.88 1.74C11.88 1.78 11.8667 1.82667 11.84 1.88C11.8267 1.93333 11.7933 2 11.74 2.08C11.6867 2.14667 11.62 2.21333 11.54 2.28C11.4333 2.37333 11.3 2.44667 11.14 2.5C10.98 2.54 10.7867 2.56 10.56 2.56C10.2933 2.56 9.79333 2.5 9.06 2.38C9.03333 2.44667 8.87333 3.00667 8.58 4.06C8.28667 5.1 8.03333 5.93333 7.82 6.56C7.60667 7.18667 7.31333 8 6.94 9C6.56667 10 6.15333 10.8933 5.7 11.68C5.24667 12.4667 4.76667 13.14 4.26 13.7C5.54 14.2733 6.70667 14.56 7.76 14.56C8.56 14.56 8.96 14.3733 8.96 14C8.96 13.8933 8.93333 13.78 8.88 13.66C8.82667 13.54 8.77333 13.4333 8.72 13.34C8.66667 13.2333 8.64 13.1667 8.64 13.14C8.64 13.0867 8.65333 13.04 8.68 13C8.70667 12.9467 8.74 12.9267 8.78 12.94C8.88667 12.98 8.98 13.1 9.06 13.3C9.14 13.5 9.18 13.72 9.18 13.96C9.18 14.3467 9.06 14.6733 8.82 14.94C8.58 15.2067 8.19333 15.34 7.66 15.34C7.15333 15.34 6.50667 15.2333 5.72 15.02C4.94667 14.8067 4.29333 14.58 3.76 14.34C3.14667 14.8867 2.42 15.16 1.58 15.16C1.18 15.16 0.846667 15.08 0.58 14.92C0.313333 14.7733 0.18 14.56 0.18 14.28C0.18 13.96 0.333333 13.6533 0.64 13.36C0.96 13.0667 1.34 12.92 1.78 12.92C2.23333 12.92 2.87333 13.1 3.7 13.46C4.26 12.78 4.80667 11.8667 5.34 10.72C5.87333 9.56 6.29333 8.52667 6.6 7.62C6.90667 6.71333 7.24 5.66 7.6 4.46C7.97333 3.24667 8.2 2.51333 8.28 2.26ZM3.24 14.1C3.04 14.0067 2.72667 13.8933 2.3 13.76C1.87333 13.6267 1.5 13.56 1.18 13.56C0.726667 13.56 0.5 13.72 0.5 14.04C0.5 14.2933 0.6 14.4933 0.8 14.64C1 14.8 1.25333 14.88 1.56 14.88C2.16 14.8667 2.72 14.6067 3.24 14.1ZM16.6531 6.56C15.9731 7.69333 15.3398 8.99333 14.7531 10.46C14.1665 11.9267 13.8731 13.0267 13.8731 13.76C13.8731 14 13.9265 14.12 14.0331 14.12C14.0731 14.12 14.1998 14.0533 14.4131 13.92C14.6398 13.7867 14.7731 13.72 14.8131 13.72C14.8931 13.72 14.9331 13.76 14.9331 13.84C14.9331 14 14.7865 14.18 14.4931 14.38C14.1998 14.58 13.9065 14.68 13.6131 14.68C13.2265 14.68 13.0331 14.3933 13.0331 13.82C13.0331 13.3 13.1398 12.6933 13.3531 12C13.5665 11.3067 13.8998 10.42 14.3531 9.34C14.8065 8.26 15.0331 7.71333 15.0331 7.7C15.0998 7.52667 15.1331 7.39333 15.1331 7.3C15.1331 7.23333 15.1131 7.2 15.0731 7.2C15.0065 7.2 14.8598 7.32 14.6331 7.56C14.0598 8.2 13.2398 9.29333 12.1731 10.84C11.1065 12.3867 10.5598 13.34 10.5331 13.7C10.5198 13.7933 10.3931 13.92 10.1531 14.08C9.91313 14.2533 9.71313 14.34 9.55313 14.34C9.45979 14.34 9.40646 14.2933 9.39312 14.2C9.41979 14.24 9.66646 13.5733 10.1331 12.2C10.6131 10.8267 10.9531 9.83333 11.1531 9.22C11.2065 9.06 11.2331 8.94 11.2331 8.86C11.2331 8.80667 11.2198 8.76 11.1931 8.72C11.1798 8.66667 11.1731 8.62667 11.1731 8.6C11.1731 8.54667 11.1931 8.46 11.2331 8.34C11.5398 7.48667 11.7998 6.92667 12.0131 6.66C12.2265 6.38 12.5531 6.24 12.9931 6.24C13.1665 6.24 13.2665 6.3 13.2931 6.42C12.1998 8.66 11.5465 10.26 11.3331 11.22C13.5331 7.67333 15.2198 5.9 16.3931 5.9C16.6598 5.9 16.7931 5.98667 16.7931 6.16C16.7931 6.28 16.7465 6.41333 16.6531 6.56ZM21.7166 7.14C21.6899 7.40667 21.5166 7.78667 21.1966 8.28C20.8766 8.77333 20.6299 9.02 20.4566 9.02C20.4032 9.02 20.3766 8.98 20.3766 8.9C20.3766 8.78 20.4499 8.54 20.5966 8.18C20.7432 7.80667 20.8166 7.56667 20.8166 7.46C20.8166 7.26 20.6966 7.16 20.4566 7.16C20.4166 7.16 20.1966 7.19333 19.7966 7.26C19.4632 7.34 19.0232 7.55333 18.4766 7.9C17.9432 8.24667 17.6766 8.62667 17.6766 9.04C17.6766 9.18667 17.7099 9.32 17.7766 9.44C17.9499 9.78667 18.2499 10.08 18.6766 10.32C19.1166 10.56 19.4899 10.7867 19.7966 11C20.1166 11.2133 20.2766 11.4933 20.2766 11.84C20.2766 12.4267 19.8232 12.9933 18.9166 13.54C18.0232 14.0733 17.2566 14.34 16.6166 14.34C16.5099 14.34 16.4232 14.2933 16.3566 14.2C16.2899 14.12 16.2566 14.0333 16.2566 13.94C16.2566 13.78 16.3299 13.7 16.4766 13.7C16.9166 13.7 17.5299 13.5667 18.3166 13.3C19.1166 13.02 19.5166 12.72 19.5166 12.4C19.5166 12.2133 19.3632 11.9933 19.0566 11.74C18.7632 11.4867 18.4366 11.2533 18.0766 11.04C17.7299 10.8267 17.4032 10.5733 17.0966 10.28C16.8032 9.97333 16.6566 9.68 16.6566 9.4C16.6566 9.17333 16.7366 8.96 16.8966 8.76C17.0166 8.61333 17.1432 8.47333 17.2766 8.34C17.4099 8.19333 17.5366 8.06667 17.6566 7.96C17.7766 7.85333 17.9099 7.74667 18.0566 7.64C18.2166 7.53333 18.3566 7.44 18.4766 7.36C18.5966 7.28 18.7366 7.2 18.8966 7.12C19.0566 7.04 19.1832 6.98 19.2766 6.94C19.3699 6.88667 19.4899 6.82667 19.6366 6.76C19.7966 6.69333 19.9032 6.65333 19.9566 6.64C20.0232 6.61333 20.1232 6.57333 20.2566 6.52C20.3899 6.46667 20.4632 6.44 20.4766 6.44C20.7032 6.37333 20.8766 6.34 20.9966 6.34C21.4766 6.34 21.7166 6.60667 21.7166 7.14ZM24.0747 6.5L24.1547 6.22C24.1947 6.06 24.2147 5.94667 24.2147 5.88C24.2147 5.82667 24.2014 5.78 24.1747 5.74C24.148 5.68667 24.1347 5.64 24.1347 5.6C24.1347 5.56 24.1547 5.48 24.1947 5.36C24.4614 4.50667 24.7014 3.94 24.9147 3.66C25.1414 3.38 25.468 3.24 25.8947 3.24C26.0814 3.24 26.188 3.3 26.2147 3.42C25.9214 4.04667 25.5147 5.07333 24.9947 6.5H26.9347C27.308 6.5 27.4947 6.54 27.4947 6.62C27.4947 6.75333 27.188 6.86 26.5747 6.94C25.9614 7.00667 25.3747 7.04 24.8147 7.04C24.148 8.92 23.608 10.72 23.1947 12.44C23.128 12.7067 23.0947 12.9 23.0947 13.02C23.0947 13.2467 23.168 13.36 23.3147 13.36C23.5814 13.36 23.968 13.1267 24.4747 12.66C24.9947 12.18 25.2747 11.94 25.3147 11.94C25.3814 11.94 25.4147 11.98 25.4147 12.06C25.4147 12.2867 25.3414 12.4333 25.1947 12.5C23.968 13.6067 23.108 14.16 22.6147 14.16C22.308 14.16 22.1547 13.9667 22.1547 13.58C22.1547 13.3667 22.3147 12.74 22.6347 11.7C22.6747 11.5667 23.1014 10.04 23.9147 7.12C23.5947 7.17333 23.148 7.2 22.5747 7.2C22.268 7.2 22.1147 7.14 22.1147 7.02C22.1147 6.92667 22.2014 6.82 22.3747 6.7C22.548 6.56667 22.688 6.5 22.7947 6.5H24.0747ZM31.5836 8.1C31.4769 8.24667 31.3303 8.39333 31.1436 8.54C30.9703 8.67333 30.8369 8.74 30.7436 8.74C30.6636 8.74 30.6236 8.7 30.6236 8.62C30.6236 8.56667 30.6836 8.38 30.8036 8.06C30.9369 7.74 31.0036 7.52 31.0036 7.4C31.0036 7.30667 30.9703 7.26 30.9036 7.26C30.4369 7.26 29.7436 7.98 28.8236 9.42C27.9169 10.86 27.2436 12.2667 26.8036 13.64C26.7236 13.7467 26.5969 13.8533 26.4236 13.96C26.2503 14.0667 26.1036 14.12 25.9836 14.12C25.9036 14.12 25.8436 14.0867 25.8036 14.02C25.8036 13.66 25.8436 13.3333 25.9236 13.04C26.0169 12.7467 26.1303 12.5733 26.2636 12.52C26.5569 11.4133 26.7636 10.5867 26.8836 10.04L27.0836 9.2C27.1103 9.10667 27.1236 9 27.1236 8.88C27.1236 8.81333 27.1103 8.75333 27.0836 8.7C27.0569 8.64667 27.0436 8.59333 27.0436 8.54C27.0436 8.46 27.0569 8.38667 27.0836 8.32C27.2969 7.48 27.5103 6.90667 27.7236 6.6C27.9503 6.29333 28.2769 6.14 28.7036 6.14C28.8636 6.14 28.9569 6.19333 28.9836 6.3C28.9703 6.34 28.8703 6.57333 28.6836 7C28.5103 7.42667 28.3436 7.82667 28.1836 8.2C28.0369 8.57333 27.8703 9.04667 27.6836 9.62C27.4969 10.1933 27.3503 10.72 27.2436 11.2C27.6836 10.3333 28.3636 9.29333 29.2836 8.08C30.2036 6.85333 30.9636 6.24 31.5636 6.24C31.8836 6.24 32.0436 6.44 32.0436 6.84C32.0436 7.25333 31.8903 7.67333 31.5836 8.1ZM38.2542 6.32C38.2142 6.44 38.0676 6.84 37.8142 7.52C37.5609 8.2 37.3542 8.77333 37.1942 9.24C36.9542 9.92 36.6942 10.7467 36.4142 11.72C36.1476 12.6933 36.0142 13.2867 36.0142 13.5C36.0142 13.54 36.0276 13.56 36.0542 13.56C36.1609 13.56 36.4276 13.3933 36.8542 13.06C37.2942 12.7267 37.5942 12.56 37.7542 12.56C37.8609 12.56 37.9142 12.5933 37.9142 12.66C37.9142 12.7533 37.7609 12.9067 37.4542 13.12C37.1609 13.3333 36.8209 13.56 36.4342 13.8C36.0476 14.0267 35.8342 14.1533 35.7942 14.18C35.7009 14.26 35.5609 14.3933 35.3742 14.58C35.2009 14.78 35.0342 14.94 34.8742 15.06C34.7276 15.1933 34.5942 15.26 34.4742 15.26C34.3009 15.26 34.2142 15.1867 34.2142 15.04C34.2142 14.9467 34.3209 14.8 34.5342 14.6C34.7476 14.4133 34.8876 14.2467 34.9542 14.1C35.1809 13.5533 35.6342 11.96 36.3142 9.32C35.6876 10.2533 34.8542 11.3 33.8142 12.46C32.7876 13.6067 32.0142 14.18 31.4942 14.18C31.3076 14.18 31.2142 14.06 31.2142 13.82C31.2142 13.62 31.2876 13.3333 31.4342 12.96C31.4342 12.9467 31.5942 12.5867 31.9142 11.88C32.2342 11.1733 32.4876 10.5667 32.6742 10.06C32.8742 9.54 32.9742 9.16667 32.9742 8.94C32.9742 8.87333 32.9609 8.81333 32.9342 8.76C32.9076 8.69333 32.8942 8.64 32.8942 8.6C32.8942 8.58667 32.9076 8.51333 32.9342 8.38C33.1609 7.52667 33.3742 6.96667 33.5742 6.7C33.7742 6.42 34.1076 6.28 34.5742 6.28C34.7609 6.28 34.8742 6.34 34.9142 6.46C33.3142 10.3933 32.5142 12.4533 32.5142 12.64C32.5142 12.6933 32.5342 12.72 32.5742 12.72C32.6276 12.72 32.7876 12.6133 33.0542 12.4C34.3876 11.3733 35.5609 9.93333 36.5742 8.08C36.5876 7.66667 36.7142 7.24 36.9542 6.8C37.1942 6.36 37.5476 6.14 38.0142 6.14C38.1609 6.14 38.2409 6.2 38.2542 6.32ZM43.0144 7.44C43.0144 7.72 42.9477 7.97333 42.8144 8.2C42.6944 8.41333 42.561 8.52 42.4144 8.52C42.2544 8.52 42.1744 8.4 42.1744 8.16C42.1744 8.08 42.201 7.93333 42.2544 7.72C42.3077 7.50667 42.3344 7.35333 42.3344 7.26C42.3344 7.04667 42.221 6.94 41.9944 6.94C41.8344 6.94 41.581 7.05333 41.2344 7.28C40.901 7.49333 40.6477 7.68667 40.4744 7.86C40.221 8.12667 39.8544 8.86 39.3744 10.06C38.8944 11.2467 38.6544 12.1667 38.6544 12.82C38.6544 13.3133 38.8477 13.56 39.2344 13.56C39.7277 13.56 40.221 13.3733 40.7144 13C41.2077 12.6133 41.6077 12.2267 41.9144 11.84C42.221 11.44 42.381 11.24 42.3944 11.24C42.461 11.2667 42.4944 11.3133 42.4944 11.38C42.4944 11.58 42.3344 11.9 42.0144 12.34C41.6944 12.7667 41.2477 13.18 40.6744 13.58C40.1144 13.9667 39.5677 14.16 39.0344 14.16C38.221 14.16 37.8144 13.6867 37.8144 12.74C37.8144 11.82 38.1144 10.7133 38.7144 9.42C39.3144 8.12667 39.8344 7.38 40.2744 7.18C40.4744 7.1 40.6877 7 40.9144 6.88C41.1544 6.76 41.3544 6.66667 41.5144 6.6C41.6877 6.53333 41.8744 6.5 42.0744 6.5C42.701 6.5 43.0144 6.81333 43.0144 7.44ZM45.3833 6.5L45.4633 6.22C45.5033 6.06 45.5233 5.94667 45.5233 5.88C45.5233 5.82667 45.5099 5.78 45.4833 5.74C45.4566 5.68667 45.4433 5.64 45.4433 5.6C45.4433 5.56 45.4633 5.48 45.5033 5.36C45.7699 4.50667 46.0099 3.94 46.2233 3.66C46.4499 3.38 46.7766 3.24 47.2033 3.24C47.3899 3.24 47.4966 3.3 47.5233 3.42C47.2299 4.04667 46.8233 5.07333 46.3033 6.5H48.2433C48.6166 6.5 48.8033 6.54 48.8033 6.62C48.8033 6.75333 48.4966 6.86 47.8833 6.94C47.2699 7.00667 46.6833 7.04 46.1233 7.04C45.4566 8.92 44.9166 10.72 44.5033 12.44C44.4366 12.7067 44.4033 12.9 44.4033 13.02C44.4033 13.2467 44.4766 13.36 44.6233 13.36C44.8899 13.36 45.2766 13.1267 45.7833 12.66C46.3033 12.18 46.5833 11.94 46.6233 11.94C46.6899 11.94 46.7233 11.98 46.7233 12.06C46.7233 12.2867 46.6499 12.4333 46.5033 12.5C45.2766 13.6067 44.4166 14.16 43.9233 14.16C43.6166 14.16 43.4633 13.9667 43.4633 13.58C43.4633 13.3667 43.6233 12.74 43.9433 11.7C43.9833 11.5667 44.4099 10.04 45.2233 7.12C44.9033 7.17333 44.4566 7.2 43.8833 7.2C43.5766 7.2 43.4233 7.14 43.4233 7.02C43.4233 6.92667 43.5099 6.82 43.6833 6.7C43.8566 6.56667 43.9966 6.5 44.1033 6.5H45.3833ZM52.0922 3C52.0922 3.17333 51.9655 3.39333 51.7122 3.66C51.4589 3.92667 51.2989 4.13333 51.2322 4.28C51.0589 4.72 50.8722 4.96667 50.6722 5.02C50.4055 5.02 50.2722 4.8 50.2722 4.36C50.2722 4.08 50.4789 3.77333 50.8922 3.44C51.3055 3.10667 51.6655 2.94 51.9722 2.94C52.0389 2.94 52.0789 2.96 52.0922 3ZM50.9522 6.42C50.9255 6.46 50.8322 6.62667 50.6722 6.92C50.5255 7.21333 50.3989 7.46667 50.2922 7.68C50.1855 7.89333 50.0389 8.20667 49.8522 8.62C49.6655 9.03333 49.4989 9.42667 49.3522 9.8C49.2055 10.1733 49.0522 10.62 48.8922 11.14C48.7322 11.66 48.5922 12.18 48.4722 12.7C48.4589 12.74 48.4522 12.7933 48.4522 12.86C48.4522 13.02 48.5189 13.1 48.6522 13.1C48.7322 13.1 48.9455 13 49.2922 12.8C49.6522 12.6 49.8855 12.5 49.9922 12.5C50.0855 12.5 50.1389 12.5267 50.1522 12.58C50.1522 12.74 49.8122 13.04 49.1322 13.48C48.4522 13.9067 47.9855 14.12 47.7322 14.12C47.4789 14.12 47.3522 14 47.3522 13.76C47.3522 13.64 47.3789 13.5 47.4322 13.34C47.5789 12.9267 47.7255 12.5 47.8722 12.06C48.0322 11.62 48.1522 11.28 48.2322 11.04C48.3122 10.8 48.3922 10.5533 48.4722 10.3C48.5655 10.0467 48.6322 9.86 48.6722 9.74C48.7122 9.60667 48.7455 9.48 48.7722 9.36C48.8122 9.22667 48.8389 9.12667 48.8522 9.06C48.8655 8.99333 48.8722 8.92667 48.8722 8.86C48.8722 8.80667 48.8589 8.76 48.8322 8.72C48.8189 8.66667 48.8122 8.62667 48.8122 8.6C48.8122 8.54667 48.8322 8.46 48.8722 8.34C49.1655 7.5 49.4255 6.94 49.6522 6.66C49.8789 6.38 50.2122 6.24 50.6522 6.24C50.8255 6.24 50.9255 6.3 50.9522 6.42ZM56.0316 8.04C56.2849 8.08 56.4116 8.15333 56.4116 8.26C56.4116 8.36667 56.3116 8.47333 56.1116 8.58C55.9116 8.67333 55.7316 8.72 55.5716 8.72C55.5716 10.28 55.1649 11.6133 54.3516 12.72C53.5382 13.8267 52.7316 14.38 51.9316 14.38C51.1582 14.38 50.7716 13.82 50.7716 12.7C50.7716 12.3933 50.7982 12.0867 50.8516 11.78C50.9182 11.4333 51.0382 10.9867 51.2116 10.44C51.3849 9.89333 51.6116 9.3 51.8916 8.66C52.1716 8.02 52.5116 7.48 52.9116 7.04C53.3249 6.58667 53.7382 6.36 54.1516 6.36H54.2916C54.2916 6.17333 54.3449 6.01333 54.4516 5.88C54.5582 5.74667 54.7049 5.68 54.8916 5.68C55.0782 5.69333 55.2449 6.08667 55.3916 6.86C55.5382 7.62 55.7516 8.01333 56.0316 8.04ZM55.0116 8.56C54.8916 8.49333 54.7449 8.26 54.5716 7.86C54.3982 7.44667 54.2782 7.24 54.2116 7.24C53.7982 7.24 53.3182 7.85333 52.7716 9.08C52.2249 10.2933 51.8849 11.2533 51.7516 11.96C51.6982 12.2667 51.6716 12.5467 51.6716 12.8C51.6716 13.4533 51.8582 13.78 52.2316 13.78C52.7649 13.78 53.3582 13.24 54.0116 12.16C54.6782 11.0667 55.0116 9.86667 55.0116 8.56ZM62.7664 6.56C62.0864 7.69333 61.4531 8.99333 60.8664 10.46C60.2797 11.9267 59.9864 13.0267 59.9864 13.76C59.9864 14 60.0397 14.12 60.1464 14.12C60.1864 14.12 60.3131 14.0533 60.5264 13.92C60.7531 13.7867 60.8864 13.72 60.9264 13.72C61.0064 13.72 61.0464 13.76 61.0464 13.84C61.0464 14 60.8997 14.18 60.6064 14.38C60.3131 14.58 60.0197 14.68 59.7264 14.68C59.3397 14.68 59.1464 14.3933 59.1464 13.82C59.1464 13.3 59.2531 12.6933 59.4664 12C59.6797 11.3067 60.0131 10.42 60.4664 9.34C60.9197 8.26 61.1464 7.71333 61.1464 7.7C61.2131 7.52667 61.2464 7.39333 61.2464 7.3C61.2464 7.23333 61.2264 7.2 61.1864 7.2C61.1197 7.2 60.9731 7.32 60.7464 7.56C60.1731 8.2 59.3531 9.29333 58.2864 10.84C57.2197 12.3867 56.6731 13.34 56.6464 13.7C56.6331 13.7933 56.5064 13.92 56.2664 14.08C56.0264 14.2533 55.8264 14.34 55.6664 14.34C55.5731 14.34 55.5197 14.2933 55.5064 14.2C55.5331 14.24 55.7797 13.5733 56.2464 12.2C56.7264 10.8267 57.0664 9.83333 57.2664 9.22C57.3197 9.06 57.3464 8.94 57.3464 8.86C57.3464 8.80667 57.3331 8.76 57.3064 8.72C57.2931 8.66667 57.2864 8.62667 57.2864 8.6C57.2864 8.54667 57.3064 8.46 57.3464 8.34C57.6531 7.48667 57.9131 6.92667 58.1264 6.66C58.3397 6.38 58.6664 6.24 59.1064 6.24C59.2797 6.24 59.3797 6.3 59.4064 6.42C58.3131 8.66 57.6597 10.26 57.4464 11.22C59.6464 7.67333 61.3331 5.9 62.5064 5.9C62.7731 5.9 62.9064 5.98667 62.9064 6.16C62.9064 6.28 62.8597 6.41333 62.7664 6.56ZM68.7298 12.4C68.7165 12.4133 68.6565 12.4733 68.5498 12.58C68.4432 12.6733 68.3565 12.7467 68.2898 12.8C68.2232 12.8533 68.1232 12.94 67.9898 13.06C67.8698 13.1667 67.7632 13.2533 67.6698 13.32C67.5765 13.3867 67.4632 13.4667 67.3298 13.56C67.1965 13.6533 67.0765 13.7267 66.9698 13.78C66.8765 13.82 66.7765 13.86 66.6698 13.9C66.5632 13.94 66.4632 13.96 66.3698 13.96C66.0898 13.96 65.9232 13.7933 65.8698 13.46C65.8698 12.9 66.0898 11.8667 66.5298 10.36C64.7432 12.8267 63.4632 14.06 62.6898 14.06C62.3698 14.06 62.2098 13.82 62.2098 13.34C62.2098 12.7267 62.3898 11.9 62.7498 10.86C63.1232 9.80667 63.5765 8.86 64.1098 8.02C64.6432 7.16667 65.1098 6.74 65.5098 6.74H65.5698L65.7898 6.58C65.9098 6.44667 66.0965 6.38 66.3498 6.38C66.5498 6.38 66.8298 6.43333 67.1898 6.54C67.5498 6.64667 67.7498 6.7 67.7898 6.7C67.8432 6.7 67.9098 6.64667 67.9898 6.54C68.0832 6.43333 68.1898 6.38 68.3098 6.38C68.6432 6.38 68.8098 6.52667 68.8098 6.82C68.8098 6.94 68.7832 7.07333 68.7298 7.22C68.6898 7.36667 68.6232 7.54 68.5298 7.74C68.4498 7.92667 68.4032 8.04 68.3898 8.08C68.3765 8.10667 68.3098 8.14667 68.1898 8.2C68.0832 8.25333 68.0232 8.3 68.0098 8.34C67.7165 9.16667 67.4565 10.0533 67.2298 11C67.0032 11.9333 66.8898 12.5067 66.8898 12.72C66.8898 13.0533 66.9832 13.22 67.1698 13.22C67.3565 13.22 67.5832 13.1067 67.8498 12.88C68.1298 12.6533 68.3698 12.4267 68.5698 12.2C68.7698 11.9733 68.8765 11.86 68.8898 11.86C68.9165 11.86 68.9298 11.8867 68.9298 11.94C68.9298 12.14 68.8632 12.2933 68.7298 12.4ZM67.4098 7.08C67.3298 7.08 67.1898 7.06667 66.9898 7.04C66.8032 7.01333 66.6432 7 66.5098 7C66.3232 7 66.1232 7.02667 65.9098 7.08C65.5765 7.17333 65.0298 7.96667 64.2698 9.46C63.5098 10.94 63.1298 12.0467 63.1298 12.78C63.1298 13.0067 63.1965 13.12 63.3298 13.12C63.6098 13.12 64.1032 12.7133 64.8098 11.9C65.5298 11.0867 66.0032 10.5067 66.2298 10.16C66.5632 9.62667 66.8698 9.05333 67.1498 8.44C67.4298 7.81333 67.5698 7.4 67.5698 7.2C67.5698 7.12 67.5365 7.08 67.4698 7.08H67.4098ZM74.0519 1.54C73.3185 3.06 72.5719 4.9 71.8119 7.06C71.0519 9.20667 70.4919 11.0867 70.1319 12.7C70.1185 12.74 70.1119 12.7933 70.1119 12.86C70.1119 13.02 70.1785 13.1 70.3119 13.1C70.3919 13.1 70.6052 13 70.9519 12.8C71.3119 12.6 71.5385 12.5 71.6319 12.5C71.7119 12.5 71.7719 12.5267 71.8119 12.58C71.8119 12.74 71.4785 13.04 70.8119 13.48C70.1452 13.9067 69.6719 14.12 69.3919 14.12C69.1385 14.12 69.0119 14 69.0119 13.76C69.0119 13.6267 69.0385 13.4867 69.0919 13.34C69.4385 12.3933 69.7585 11.4533 70.0519 10.52C70.3585 9.58667 70.7052 8.48 71.0919 7.2C71.4785 5.90667 71.7652 4.95333 71.9519 4.34C71.9919 4.22 72.0119 4.1 72.0119 3.98C72.0119 3.92667 71.9985 3.88 71.9719 3.84C71.9585 3.78667 71.9519 3.74 71.9519 3.7C71.9519 3.66 71.9719 3.58 72.0119 3.46C72.2785 2.62 72.5252 2.06 72.7519 1.78C72.9785 1.5 73.3119 1.36 73.7519 1.36C73.9385 1.36 74.0385 1.42 74.0519 1.54ZM93.29 10.58C92.65 11.46 91.8033 12.2267 90.75 12.88C89.6967 13.5333 88.65 14.0067 87.61 14.3C86.5833 14.5933 85.6233 14.74 84.73 14.74C83.9567 14.74 83.3633 14.6267 82.95 14.4C82.5367 14.1733 82.2767 13.8867 82.17 13.54C82.17 13.5267 82.1633 13.5133 82.15 13.5C82.15 13.4733 82.1433 13.4533 82.13 13.44C82.0767 13.5067 81.9767 13.6533 81.83 13.88C81.6967 14.0933 81.5833 14.2533 81.49 14.36C81.29 14.5733 81.1233 14.68 80.99 14.68C80.7767 14.68 80.67 14.4133 80.67 13.88C80.67 10.2133 81.6033 6.43333 83.47 2.54C83.39 2.55333 83.11 2.61333 82.63 2.72C82.15 2.81333 81.73 2.9 81.37 2.98C81.0233 3.06 80.6033 3.18667 80.11 3.36C79.6167 3.53333 79.05 3.76 78.41 4.04C77.77 4.30667 77.23 4.63333 76.79 5.02C76.35 5.39333 76.13 5.76667 76.13 6.14C76.13 6.35333 76.2167 6.57333 76.39 6.8C76.5633 7.02667 76.75 7.2 76.95 7.32C77.1767 7.53333 77.3167 7.68 77.37 7.76H77.29C77.33 7.86667 77.2833 7.92 77.15 7.92C77.1233 7.92 77.09 7.91333 77.05 7.9C77.01 7.88667 76.9567 7.86667 76.89 7.84C76.8233 7.81333 76.77 7.79333 76.73 7.78C76.2633 7.48667 75.9567 7.26 75.81 7.1C75.41 6.68667 75.21 6.28 75.21 5.88C75.21 5.42667 75.47 4.98667 75.99 4.56C76.4967 4.13333 77.11 3.78 77.83 3.5C78.55 3.20667 79.3367 2.94 80.19 2.7C81.0433 2.46 81.77 2.28667 82.37 2.18C82.97 2.06 83.4433 1.98 83.79 1.94C84.0567 1.35333 84.31 0.926666 84.55 0.659999H84.59C84.9633 0.566666 85.31 0.52 85.63 0.52C85.7767 0.52 85.85 0.546666 85.85 0.6C85.53 0.92 85.25 1.34 85.01 1.86C85.0367 1.86 85.07 1.86 85.11 1.86C86.27 1.86 87.35 1.96667 88.35 2.18C89.35 2.38 90.2033 2.66667 90.91 3.04C91.63 3.4 92.2433 3.82667 92.75 4.32C93.27 4.81333 93.6567 5.34667 93.91 5.92C94.1633 6.48 94.29 7.06667 94.29 7.68C94.29 8.68 93.9567 9.64667 93.29 10.58ZM81.55 13.32C81.5633 13.3067 81.6233 13.24 81.73 13.12C81.8367 12.9867 81.93 12.8933 82.01 12.84C82.09 12.7733 82.1633 12.74 82.23 12.74C82.2567 12.74 82.2833 12.7467 82.31 12.76C82.3367 12.7733 82.3567 12.7933 82.37 12.82C82.3833 12.8467 82.3967 12.8733 82.41 12.9C82.4233 12.9267 82.4367 12.96 82.45 13C82.4633 13.0267 82.4967 13.1067 82.55 13.24C82.6167 13.36 82.6633 13.4467 82.69 13.5C82.7167 13.54 82.7633 13.6067 82.83 13.7C82.8967 13.7933 82.9633 13.8667 83.03 13.92C83.11 13.96 83.1967 14 83.29 14.04C83.6233 14.16 84.0233 14.22 84.49 14.22C85.29 14.22 86.19 14.0533 87.19 13.72C88.2033 13.3733 89.15 12.9267 90.03 12.38C90.9233 11.82 91.6033 11.24 92.07 10.64C93.0567 9.37333 93.55 8.19333 93.55 7.1C93.55 6.12667 93.1567 5.27333 92.37 4.54C91.5967 3.80667 90.6033 3.26667 89.39 2.92C88.19 2.57333 86.8833 2.4 85.47 2.4C85.2167 2.4 84.9633 2.40667 84.71 2.42C82.9367 5.51333 81.89 9.12 81.57 13.24C81.57 13.28 81.5633 13.3067 81.55 13.32ZM99.8498 7.78C99.9298 8.19333 99.9698 8.52667 99.9698 8.78C99.9698 9.07333 99.8698 9.32667 99.6698 9.54C99.4698 9.74 99.2098 9.88667 98.8898 9.98C98.5698 10.06 98.2832 10.12 98.0298 10.16C97.7765 10.1867 97.5365 10.2 97.3098 10.2C97.1765 10.2 97.0232 10.2 96.8498 10.2C96.6898 10.1867 96.6032 10.18 96.5898 10.18C96.1498 11.3 95.9298 12.18 95.9298 12.82C95.9298 13.3533 96.1298 13.62 96.5298 13.62C96.8098 13.62 97.1365 13.4467 97.5098 13.1C97.8832 12.74 98.2098 12.3867 98.4898 12.04C98.7698 11.68 98.9365 11.5 98.9898 11.5C99.0832 11.5 99.1298 11.5533 99.1298 11.66C99.1298 12.0333 98.7632 12.5533 98.0298 13.22C97.2965 13.8733 96.7232 14.2 96.3098 14.2C95.9765 14.2 95.6698 14.1 95.3898 13.9C95.1232 13.6867 94.9898 13.34 94.9898 12.86C94.9898 12.7133 95.0098 12.54 95.0498 12.34C95.1432 11.8333 95.2632 11.34 95.4098 10.86C95.5698 10.38 95.6565 10.0867 95.6698 9.98C95.4698 9.92667 95.3698 9.82 95.3698 9.66C95.3698 9.51333 95.4832 9.44 95.7098 9.44H95.8498C96.3832 8.38667 96.6898 7.78 96.7698 7.62C97.1432 6.91333 97.8565 6.56 98.9098 6.56C99.3632 6.56 99.6765 6.96667 99.8498 7.78ZM99.1298 8.74C99.1298 8.40667 99.0965 8.12 99.0298 7.88C98.9632 7.64 98.8832 7.47333 98.7898 7.38C98.7098 7.28667 98.6232 7.24 98.5298 7.24C98.2632 7.24 97.9432 7.52667 97.5698 8.1C97.2098 8.67333 96.9432 9.18 96.7698 9.62C96.7965 9.62 96.9032 9.62667 97.0898 9.64C97.2765 9.65333 97.4365 9.66 97.5698 9.66C98.1165 9.66 98.5098 9.6 98.7498 9.48C98.9898 9.36 99.1165 9.11333 99.1298 8.74ZM105.388 7.14C105.362 7.40667 105.188 7.78667 104.868 8.28C104.548 8.77333 104.302 9.02 104.128 9.02C104.075 9.02 104.048 8.98 104.048 8.9C104.048 8.78 104.122 8.54 104.268 8.18C104.415 7.80667 104.488 7.56667 104.488 7.46C104.488 7.26 104.368 7.16 104.128 7.16C104.088 7.16 103.868 7.19333 103.468 7.26C103.135 7.34 102.695 7.55333 102.148 7.9C101.615 8.24667 101.348 8.62667 101.348 9.04C101.348 9.18667 101.382 9.32 101.448 9.44C101.622 9.78667 101.922 10.08 102.348 10.32C102.788 10.56 103.162 10.7867 103.468 11C103.788 11.2133 103.948 11.4933 103.948 11.84C103.948 12.4267 103.495 12.9933 102.588 13.54C101.695 14.0733 100.928 14.34 100.288 14.34C100.182 14.34 100.095 14.2933 100.028 14.2C99.9618 14.12 99.9284 14.0333 99.9284 13.94C99.9284 13.78 100.002 13.7 100.148 13.7C100.588 13.7 101.202 13.5667 101.988 13.3C102.788 13.02 103.188 12.72 103.188 12.4C103.188 12.2133 103.035 11.9933 102.728 11.74C102.435 11.4867 102.108 11.2533 101.748 11.04C101.402 10.8267 101.075 10.5733 100.768 10.28C100.475 9.97333 100.328 9.68 100.328 9.4C100.328 9.17333 100.408 8.96 100.568 8.76C100.688 8.61333 100.815 8.47333 100.948 8.34C101.082 8.19333 101.208 8.06667 101.328 7.96C101.448 7.85333 101.582 7.74667 101.728 7.64C101.888 7.53333 102.028 7.44 102.148 7.36C102.268 7.28 102.408 7.2 102.568 7.12C102.728 7.04 102.855 6.98 102.948 6.94C103.042 6.88667 103.162 6.82667 103.308 6.76C103.468 6.69333 103.575 6.65333 103.628 6.64C103.695 6.61333 103.795 6.57333 103.928 6.52C104.062 6.46667 104.135 6.44 104.148 6.44C104.375 6.37333 104.548 6.34 104.668 6.34C105.148 6.34 105.388 6.60667 105.388 7.14ZM109.827 3C109.827 3.17333 109.7 3.39333 109.447 3.66C109.193 3.92667 109.033 4.13333 108.967 4.28C108.793 4.72 108.607 4.96667 108.407 5.02C108.14 5.02 108.007 4.8 108.007 4.36C108.007 4.08 108.213 3.77333 108.627 3.44C109.04 3.10667 109.4 2.94 109.707 2.94C109.773 2.94 109.813 2.96 109.827 3ZM108.687 6.42C108.66 6.46 108.567 6.62667 108.407 6.92C108.26 7.21333 108.133 7.46667 108.027 7.68C107.92 7.89333 107.773 8.20667 107.587 8.62C107.4 9.03333 107.233 9.42667 107.087 9.8C106.94 10.1733 106.787 10.62 106.627 11.14C106.467 11.66 106.327 12.18 106.207 12.7C106.193 12.74 106.187 12.7933 106.187 12.86C106.187 13.02 106.253 13.1 106.387 13.1C106.467 13.1 106.68 13 107.027 12.8C107.387 12.6 107.62 12.5 107.727 12.5C107.82 12.5 107.873 12.5267 107.887 12.58C107.887 12.74 107.547 13.04 106.867 13.48C106.187 13.9067 105.72 14.12 105.467 14.12C105.213 14.12 105.087 14 105.087 13.76C105.087 13.64 105.113 13.5 105.167 13.34C105.313 12.9267 105.46 12.5 105.607 12.06C105.767 11.62 105.887 11.28 105.967 11.04C106.047 10.8 106.127 10.5533 106.207 10.3C106.3 10.0467 106.367 9.86 106.407 9.74C106.447 9.60667 106.48 9.48 106.507 9.36C106.547 9.22667 106.573 9.12667 106.587 9.06C106.6 8.99333 106.607 8.92667 106.607 8.86C106.607 8.80667 106.593 8.76 106.567 8.72C106.553 8.66667 106.547 8.62667 106.547 8.6C106.547 8.54667 106.567 8.46 106.607 8.34C106.9 7.5 107.16 6.94 107.387 6.66C107.613 6.38 107.947 6.24 108.387 6.24C108.56 6.24 108.66 6.3 108.687 6.42ZM112.866 18.28C112.746 18.96 112.153 19.58 111.086 20.14C110.033 20.7133 109.033 21 108.086 21C107.113 21 106.626 20.6467 106.626 19.94C106.626 19.2333 106.953 18.24 107.606 16.96C108.259 15.6933 108.806 14.8133 109.246 14.32C109.286 14.2667 109.419 14.2 109.646 14.12C109.579 14.08 109.493 14.0333 109.386 13.98C109.279 13.9133 109.186 13.8667 109.106 13.84C109.039 13.8 108.979 13.7533 108.926 13.7C108.873 13.6467 108.846 13.5933 108.846 13.54C108.846 13.3933 108.906 13.26 109.026 13.14C109.159 13.0067 109.293 12.94 109.426 12.94H109.506C110.319 13.2467 111.086 13.92 111.806 14.96C112.526 16 112.886 16.9733 112.886 17.88C112.886 18.0667 112.879 18.2 112.866 18.28ZM114.286 8.12C114.286 8.24 114.186 8.3 113.986 8.3H113.806C113.793 8.38 113.759 8.54667 113.706 8.8C113.666 9.04 113.626 9.26667 113.586 9.48C113.546 9.68 113.513 9.81333 113.486 9.88C113.153 10.7333 112.686 11.42 112.086 11.94C111.499 12.4467 110.886 12.7 110.246 12.7C109.873 12.7 109.599 12.5933 109.426 12.38C109.266 12.1667 109.186 11.8267 109.186 11.36C109.186 10.2133 109.539 9.10667 110.246 8.04C110.966 6.97333 111.719 6.44 112.506 6.44C112.573 6.44 112.673 6.45333 112.806 6.48C112.806 6 112.979 5.76 113.326 5.76C113.713 5.76 113.906 6.06667 113.906 6.68C113.906 6.77333 113.899 6.93333 113.886 7.16C113.873 7.38667 113.866 7.55333 113.866 7.66C113.879 7.66 113.906 7.67333 113.946 7.7C113.986 7.72667 114.019 7.75333 114.046 7.78C114.086 7.80667 114.126 7.84 114.166 7.88C114.206 7.92 114.233 7.96 114.246 8C114.273 8.04 114.286 8.08 114.286 8.12ZM111.926 18.54V18.28C111.926 17.5733 111.733 16.8667 111.346 16.16C110.973 15.4533 110.519 14.8667 109.986 14.4C109.959 14.44 109.793 14.6733 109.486 15.1C109.193 15.5267 108.939 15.9 108.726 16.22C108.526 16.54 108.293 16.9267 108.026 17.38C107.759 17.8467 107.553 18.2733 107.406 18.66C107.259 19.06 107.186 19.4 107.186 19.68C107.186 20.2267 107.499 20.5 108.126 20.5C108.806 20.5 109.599 20.2733 110.506 19.82C111.426 19.3667 111.899 18.94 111.926 18.54ZM113.066 8.22C112.919 8.19333 112.833 7.98667 112.806 7.6C112.779 7.2 112.686 7 112.526 7C112.113 7 111.726 7.26667 111.366 7.8C111.006 8.33333 110.726 8.86 110.526 9.38C110.193 10.2867 110.026 10.9933 110.026 11.5C110.026 11.9133 110.193 12.12 110.526 12.12C111.019 12.12 111.566 11.7267 112.166 10.94C112.766 10.14 113.066 9.23333 113.066 8.22ZM121.145 6.56C120.465 7.69333 119.832 8.99333 119.245 10.46C118.659 11.9267 118.365 13.0267 118.365 13.76C118.365 14 118.419 14.12 118.525 14.12C118.565 14.12 118.692 14.0533 118.905 13.92C119.132 13.7867 119.265 13.72 119.305 13.72C119.385 13.72 119.425 13.76 119.425 13.84C119.425 14 119.279 14.18 118.985 14.38C118.692 14.58 118.399 14.68 118.105 14.68C117.719 14.68 117.525 14.3933 117.525 13.82C117.525 13.3 117.632 12.6933 117.845 12C118.059 11.3067 118.392 10.42 118.845 9.34C119.299 8.26 119.525 7.71333 119.525 7.7C119.592 7.52667 119.625 7.39333 119.625 7.3C119.625 7.23333 119.605 7.2 119.565 7.2C119.499 7.2 119.352 7.32 119.125 7.56C118.552 8.2 117.732 9.29333 116.665 10.84C115.599 12.3867 115.052 13.34 115.025 13.7C115.012 13.7933 114.885 13.92 114.645 14.08C114.405 14.2533 114.205 14.34 114.045 14.34C113.952 14.34 113.899 14.2933 113.885 14.2C113.912 14.24 114.159 13.5733 114.625 12.2C115.105 10.8267 115.445 9.83333 115.645 9.22C115.699 9.06 115.725 8.94 115.725 8.86C115.725 8.80667 115.712 8.76 115.685 8.72C115.672 8.66667 115.665 8.62667 115.665 8.6C115.665 8.54667 115.685 8.46 115.725 8.34C116.032 7.48667 116.292 6.92667 116.505 6.66C116.719 6.38 117.045 6.24 117.485 6.24C117.659 6.24 117.759 6.3 117.785 6.42C116.692 8.66 116.039 10.26 115.825 11.22C118.025 7.67333 119.712 5.9 120.885 5.9C121.152 5.9 121.285 5.98667 121.285 6.16C121.285 6.28 121.239 6.41333 121.145 6.56ZM125.729 7.78C125.809 8.19333 125.849 8.52667 125.849 8.78C125.849 9.07333 125.749 9.32667 125.549 9.54C125.349 9.74 125.089 9.88667 124.769 9.98C124.449 10.06 124.162 10.12 123.909 10.16C123.655 10.1867 123.415 10.2 123.189 10.2C123.055 10.2 122.902 10.2 122.729 10.2C122.569 10.1867 122.482 10.18 122.469 10.18C122.029 11.3 121.809 12.18 121.809 12.82C121.809 13.3533 122.009 13.62 122.409 13.62C122.689 13.62 123.015 13.4467 123.389 13.1C123.762 12.74 124.089 12.3867 124.369 12.04C124.649 11.68 124.815 11.5 124.869 11.5C124.962 11.5 125.009 11.5533 125.009 11.66C125.009 12.0333 124.642 12.5533 123.909 13.22C123.175 13.8733 122.602 14.2 122.189 14.2C121.855 14.2 121.549 14.1 121.269 13.9C121.002 13.6867 120.869 13.34 120.869 12.86C120.869 12.7133 120.889 12.54 120.929 12.34C121.022 11.8333 121.142 11.34 121.289 10.86C121.449 10.38 121.535 10.0867 121.549 9.98C121.349 9.92667 121.249 9.82 121.249 9.66C121.249 9.51333 121.362 9.44 121.589 9.44H121.729C122.262 8.38667 122.569 7.78 122.649 7.62C123.022 6.91333 123.735 6.56 124.789 6.56C125.242 6.56 125.555 6.96667 125.729 7.78ZM125.009 8.74C125.009 8.40667 124.975 8.12 124.909 7.88C124.842 7.64 124.762 7.47333 124.669 7.38C124.589 7.28667 124.502 7.24 124.409 7.24C124.142 7.24 123.822 7.52667 123.449 8.1C123.089 8.67333 122.822 9.18 122.649 9.62C122.675 9.62 122.782 9.62667 122.969 9.64C123.155 9.65333 123.315 9.66 123.449 9.66C123.995 9.66 124.389 9.6 124.629 9.48C124.869 9.36 124.995 9.11333 125.009 8.74ZM131.427 8.1C131.321 8.24667 131.174 8.39333 130.987 8.54C130.814 8.67333 130.681 8.74 130.587 8.74C130.507 8.74 130.467 8.7 130.467 8.62C130.467 8.56667 130.527 8.38 130.647 8.06C130.781 7.74 130.847 7.52 130.847 7.4C130.847 7.30667 130.814 7.26 130.747 7.26C130.281 7.26 129.587 7.98 128.667 9.42C127.761 10.86 127.087 12.2667 126.647 13.64C126.567 13.7467 126.441 13.8533 126.267 13.96C126.094 14.0667 125.947 14.12 125.827 14.12C125.747 14.12 125.687 14.0867 125.647 14.02C125.647 13.66 125.687 13.3333 125.767 13.04C125.861 12.7467 125.974 12.5733 126.107 12.52C126.401 11.4133 126.607 10.5867 126.727 10.04L126.927 9.2C126.954 9.10667 126.967 9 126.967 8.88C126.967 8.81333 126.954 8.75333 126.927 8.7C126.901 8.64667 126.887 8.59333 126.887 8.54C126.887 8.46 126.901 8.38667 126.927 8.32C127.141 7.48 127.354 6.90667 127.567 6.6C127.794 6.29333 128.121 6.14 128.547 6.14C128.707 6.14 128.801 6.19333 128.827 6.3C128.814 6.34 128.714 6.57333 128.527 7C128.354 7.42667 128.187 7.82667 128.027 8.2C127.881 8.57333 127.714 9.04667 127.527 9.62C127.341 10.1933 127.194 10.72 127.087 11.2C127.527 10.3333 128.207 9.29333 129.127 8.08C130.047 6.85333 130.807 6.24 131.407 6.24C131.727 6.24 131.887 6.44 131.887 6.84C131.887 7.25333 131.734 7.67333 131.427 8.1Z" fill="#2A2A2A"/>
</svg>
