<svg width="163" height="38" viewBox="0 0 163 38" fill="none" xmlns="http://www.w3.org/2000/svg">
<path d="M5.5051 20.8805C6.20789 20.5675 6.94933 20.3062 7.72943 20.0965C8.50756 19.8709 9.33328 19.7038 10.2066 19.5954C10.413 19.5698 10.6204 19.5521 10.8288 19.5423C11.0511 19.5147 11.2664 19.4961 11.4748 19.4863C11.3319 19.504 11.181 19.5228 11.0223 19.5425C10.8774 19.5444 10.7335 19.5542 10.5906 19.5719C9.81258 19.6685 9.0633 19.8019 8.34276 19.9719C7.63614 20.1242 7.03568 20.2874 6.54138 20.4616C6.38851 20.529 6.21977 20.5983 6.03515 20.6696C5.86443 20.7231 5.68775 20.7934 5.5051 20.8805ZM17.4278 34.9022C16.8622 34.8919 16.4436 34.702 16.172 34.3326C15.9143 33.9454 15.752 33.4819 15.6849 32.9421C15.6218 32.434 15.6213 31.91 15.6832 31.3703C15.7432 30.8147 15.826 30.3126 15.9316 29.8642C16.0351 29.3999 16.1217 29.0586 16.1914 28.8404C16.2053 28.8226 16.1844 28.9138 16.1286 29.1142C16.0888 29.3126 16.043 29.5279 15.9912 29.7601C15.9533 29.9744 15.9304 30.1143 15.9224 30.1798C15.9721 30.0607 16.0357 29.8593 16.1134 29.5756C16.2049 29.274 16.3034 28.9635 16.4088 28.6441C16.5143 28.3247 16.5968 28.0806 16.6565 27.912C15.9082 28.1178 15.1043 28.3305 14.2448 28.5501C13.3853 28.7696 12.4871 29.0021 11.5502 29.2474C11.1527 29.9417 10.7959 30.5745 10.4799 31.1458C10.1639 31.717 9.93829 32.1723 9.80306 32.5116C9.7136 32.7 9.63701 32.9272 9.57329 33.1931C9.52544 33.457 9.49555 33.6058 9.48362 33.6395C9.88845 33.6537 10.1871 33.7215 10.3795 33.8427C10.5699 33.948 10.675 34.0801 10.6947 34.2389C10.7243 34.477 10.5782 34.7289 10.2565 34.9946C9.93477 35.2603 9.47617 35.4623 8.88069 35.6008C8.50564 35.5667 8.23089 35.4315 8.05644 35.1952C7.8959 34.9411 7.79788 34.6711 7.7624 34.3853C7.72494 34.0836 7.73111 33.8088 7.78093 33.5607C7.82078 33.3623 7.90236 33.1103 8.02565 32.8048C8.14697 32.4834 8.28817 32.1273 8.44923 31.7365C8.35189 31.8614 8.26845 31.9685 8.19892 32.0578C8.14329 32.1292 8.10754 32.1659 8.09166 32.1678C8.07578 32.1698 8.14734 32.0319 8.30633 31.7542C8.4812 31.4745 8.66998 31.177 8.87266 30.8616C8.94821 30.691 9.03171 30.5194 9.12314 30.3468C9.2126 30.1584 9.30304 29.9779 9.39447 29.8053C8.29878 30.0703 7.45615 30.2959 6.86659 30.4819C6.27505 30.6521 5.82444 30.7887 5.51477 30.8916C5.22097 30.9926 4.94902 31.0747 4.69891 31.138C4.59565 31.2154 4.49639 31.2599 4.40112 31.2718C4.28997 31.2856 4.19574 31.2408 4.11843 31.1376C4.03915 31.0184 3.98965 30.8795 3.96993 30.7207C3.94824 30.546 3.94939 30.3605 3.97336 30.164C4.01124 29.9497 4.05904 29.7503 4.11674 29.5658L4.16437 29.5599C4.13086 29.29 4.24906 29.1382 4.51899 29.1047C4.64601 29.0889 4.78295 29.0881 4.92979 29.1021C5.09252 29.1141 5.25327 29.1103 5.41205 29.0906C5.68001 29.0412 5.96187 28.9739 6.25764 28.8888C6.55143 28.7879 6.71624 28.6868 6.75204 28.5856C6.80372 28.4824 6.84544 28.4289 6.8772 28.425C6.92483 28.419 6.98232 28.4925 7.04967 28.6454C7.0695 28.6752 7.08236 28.7139 7.08828 28.7615C7.10799 28.9203 7.07017 29.0701 6.97479 29.2109C7.90765 29.0628 8.90206 28.891 9.958 28.6954C10.3615 27.9198 10.7809 27.1422 11.2161 26.3626C11.6653 25.5652 12.0946 24.8024 12.504 24.0744C12.9134 23.3465 13.2761 22.6968 13.5921 22.1255C13.924 21.5522 14.1754 21.1099 14.3464 20.7985C14.0603 21.0919 13.8329 21.4023 13.6639 21.7297C13.5089 22.0391 13.3539 22.2196 13.1991 22.2711C13.362 22.0251 13.5796 21.6998 13.8518 21.2952C14.124 20.8906 14.2811 20.5325 14.323 20.2209C14.1921 20.205 14.0472 20.2068 13.8884 20.2265C13.7296 20.2462 13.5629 20.267 13.3882 20.2886C12.642 20.3813 11.7448 20.5572 10.6967 20.8163C9.64869 21.0754 8.66114 21.3673 7.73408 21.6921C7.57924 21.7435 7.32016 21.8644 6.95683 22.0546C6.59153 22.2289 6.17559 22.4499 5.709 22.7174C5.25828 22.983 4.81152 23.2803 4.36869 23.6094C3.92586 23.9384 3.54951 24.2834 3.23962 24.6444C2.94364 24.9875 2.76872 25.3316 2.71486 25.6769C2.79414 25.796 2.84068 25.9112 2.85448 26.0223C2.88209 26.2446 2.78474 26.3696 2.56245 26.3972C2.37191 26.4208 2.15169 26.3353 1.9018 26.1406C1.65191 25.9459 1.50231 25.6501 1.45302 25.2532C1.42739 25.0467 1.43451 24.8443 1.47436 24.6459C1.5222 24.382 1.59682 24.139 1.69822 23.9168C1.81352 23.6767 1.95461 23.4496 2.12149 23.2354C2.2565 23.1542 2.51564 22.9688 2.89889 22.6794C3.29803 22.388 3.72098 22.0936 4.16775 21.7963C4.62842 21.4811 5.02652 21.2463 5.36204 21.0918C6.0311 20.7669 6.78546 20.4797 7.62514 20.2303C8.47871 19.9631 9.4136 19.7664 10.4298 19.6402C11.0332 19.5653 11.6802 19.5172 12.3708 19.496C13.0615 19.4747 13.7808 19.4902 14.529 19.5424C14.6441 19.5603 14.6987 19.5455 14.6927 19.4979C14.6888 19.4661 14.6223 19.4502 14.4933 19.4501C14.0865 19.42 13.6817 19.4057 13.2788 19.4074C12.874 19.3932 12.48 19.4018 12.097 19.4332C12.48 19.4018 12.8571 19.3872 13.2282 19.3895C13.6132 19.3739 13.9853 19.3842 14.3445 19.4202L14.3356 19.3487C14.3218 19.2376 14.3785 19.1741 14.5055 19.1584C14.5372 19.1544 14.6186 19.1604 14.7496 19.1764C14.948 19.2163 15.2079 19.2969 15.5293 19.4182C15.8507 19.5395 16.1363 19.6975 16.3862 19.8922C16.65 20.069 16.7967 20.2765 16.8263 20.5147C16.8362 20.5941 16.8361 20.6586 16.8261 20.7082C16.6751 20.9204 16.4307 21.2894 16.0929 21.815C15.769 22.3228 15.3855 22.9347 14.9424 23.6508C14.4973 24.3509 14.0342 25.1017 13.5533 25.9031C13.0704 26.6886 12.6034 27.4721 12.1523 28.2536C12.843 28.1034 13.5973 27.9452 14.4151 27.7792C15.2468 27.5953 16.0933 27.4015 16.9548 27.1978C17.2232 26.6324 17.5412 26.0125 17.9089 25.3381C18.2766 24.6636 18.6463 24.0051 19.0179 23.3624C19.3876 22.7038 19.7055 22.1484 19.9718 21.6961L19.2119 22.782C19.2914 22.6432 19.4076 22.4111 19.5607 22.0857C19.7118 21.7445 19.7825 21.4697 19.7728 21.2613C19.7512 20.9577 19.7961 20.67 19.9074 20.3982C20.0347 20.1244 20.1817 19.8804 20.3486 19.6662C20.5313 19.4501 20.6714 19.2795 20.7687 19.1545C20.9117 19.0078 21.0547 18.9256 21.1976 18.9078C21.404 18.8822 21.6203 18.936 21.8464 19.0691C22.0884 19.2003 22.2877 19.3771 22.4443 19.5995C22.6168 19.8199 22.7109 20.0581 22.7265 20.3141C22.7285 20.33 22.6301 20.5115 22.4314 20.8587C22.2327 21.2058 21.9683 21.6739 21.6384 22.2631C21.3065 22.8363 20.9378 23.5029 20.5324 24.2626C20.1408 25.0045 19.7452 25.7792 19.3457 26.5865C19.7208 26.4916 20.0871 26.3897 20.4444 26.2808C20.7997 26.1561 21.1481 26.0403 21.4895 25.9334C21.567 25.9077 21.6295 25.8918 21.6771 25.8859C21.7387 25.8622 21.7853 25.8483 21.8171 25.8444C21.9441 25.8286 22.0106 25.8445 22.0165 25.8921C22.0283 25.9874 21.8992 26.1163 21.6292 26.2788C21.2976 26.4651 20.441 26.773 19.0594 27.2025C18.8924 27.5457 18.7254 27.8889 18.5585 28.2321C18.4074 28.5733 18.2642 28.9135 18.129 29.2528C17.771 30.1356 17.4865 30.961 17.2756 31.7288C17.0646 32.4967 16.9896 33.1267 17.0507 33.6189C17.106 34.0635 17.2794 34.3564 17.571 34.4975C17.6741 34.5492 17.7306 34.6147 17.7405 34.6941C17.7582 34.837 17.654 34.9064 17.4278 34.9022ZM5.07032 21.0796L5.09413 21.0767L5.11499 21.0499L5.13881 21.0469L5.16263 21.044C5.17653 21.0261 5.18349 21.0172 5.18349 21.0172C5.19936 21.0152 5.2073 21.0142 5.2073 21.0142C5.22318 21.0123 5.23112 21.0113 5.23112 21.0113C5.24503 20.9934 5.25198 20.9845 5.25198 20.9845C5.26786 20.9825 5.2758 20.9816 5.2758 20.9816C5.29168 20.9796 5.29962 20.9786 5.29962 20.9786C5.31352 20.9607 5.32047 20.9518 5.32047 20.9518C5.33635 20.9499 5.33635 20.9499 5.32047 20.9518C5.33635 20.9499 5.35223 20.9479 5.36811 20.9459L5.32047 20.9518L5.29962 20.9786L5.2758 20.9816L5.25198 20.9845L5.23112 21.0113L5.2073 21.0142C5.2073 21.0142 5.19936 21.0152 5.18349 21.0172C5.18349 21.0172 5.17653 21.0261 5.16263 21.044C5.16263 21.044 5.15469 21.045 5.13881 21.0469C5.13881 21.0469 5.13087 21.0479 5.11499 21.0499C5.11696 21.0658 5.11001 21.0747 5.09413 21.0767C5.09413 21.0767 5.08619 21.0777 5.07032 21.0796ZM4.75166 21.2401L4.77548 21.2372L4.7993 21.2342L4.82016 21.2074C4.83604 21.2055 4.84397 21.2045 4.84397 21.2045C4.85788 21.1866 4.8569 21.1787 4.84102 21.1806C4.8569 21.1787 4.86483 21.1777 4.86483 21.1777L4.84102 21.1806L4.84397 21.2045C4.84397 21.2045 4.83604 21.2055 4.82016 21.2074C4.80428 21.2094 4.79733 21.2183 4.7993 21.2342C4.7993 21.2342 4.79136 21.2352 4.77548 21.2372C4.79136 21.2352 4.79136 21.2352 4.77548 21.2372C4.7596 21.2391 4.75166 21.2401 4.75166 21.2401ZM2.27046 23.0718C2.57838 22.695 2.94778 22.3589 3.37867 22.0636C3.82544 21.7663 4.2831 21.4918 4.75166 21.2401C3.87608 21.7197 3.10661 22.2747 2.44325 22.9053L2.27046 23.0718ZM2.20492 23.1283C2.20492 23.1283 2.19797 23.1372 2.18407 23.1551C2.18407 23.1551 2.16321 23.1819 2.12149 23.2354C2.06192 23.2751 2.03213 23.2949 2.03213 23.2949C2.03213 23.2949 2.04702 23.285 2.07681 23.2651C2.10462 23.2294 2.14733 23.1838 2.20492 23.1283L2.11557 23.1878L2.27046 23.0718L2.20492 23.1283ZM23.8432 33.7187C23.621 33.7463 23.3769 33.7282 23.111 33.6645C22.863 33.6147 22.6328 33.5143 22.4206 33.3633C22.2084 33.2123 21.9694 32.9759 21.7038 32.6542C21.452 32.3146 21.3044 31.9702 21.2611 31.6209C21.2433 31.478 21.2514 31.348 21.2852 31.2309C21.6237 29.8023 22.2946 28.4534 23.2979 27.1841C24.2991 25.8989 25.5771 24.7648 27.1318 23.7817C27.3541 23.7541 27.5952 23.8129 27.8551 23.958C28.113 24.0872 28.3361 24.261 28.5244 24.4795L28.9709 24.5691C28.9333 24.3964 28.8649 24.3001 28.7657 24.2802C28.6645 24.2444 28.609 24.1868 28.5992 24.1074C28.6132 23.9606 28.7065 23.8684 28.8792 23.8308C29.0499 23.7773 29.175 23.7457 29.2544 23.7358C29.5084 23.7043 29.7296 23.7978 29.918 24.0162C30.1202 24.2168 30.2461 24.4511 30.2955 24.719C30.6824 24.7194 31.0833 24.7018 31.4981 24.6664C31.9129 24.6311 32.2722 24.6026 32.5758 24.581C32.8934 24.5416 33.068 24.5199 33.0998 24.5159L33.1712 24.5071C33.2189 24.5012 33.2466 24.53 33.2545 24.5935C33.2683 24.7046 33.2166 24.8078 33.0995 24.9029C32.9565 25.0497 32.5942 25.1833 32.0126 25.3039C31.4449 25.4066 30.8435 25.4974 30.2084 25.5763C30.1586 25.8243 30.0711 26.0932 29.9458 26.3828C29.8205 26.6725 29.6724 26.973 29.5015 27.2844C29.3842 27.5086 29.2044 27.8131 28.962 28.1979C28.7176 28.5668 28.4662 28.9447 28.2079 29.3314C27.9496 29.7182 27.732 30.0435 27.5552 30.3073C27.6823 30.1625 27.8849 29.9117 28.1631 29.5547C28.4551 29.1798 28.6886 28.8526 28.8634 28.5729C28.931 28.4678 29.0313 28.3021 29.1645 28.076C29.2957 27.834 29.4209 27.6088 29.5401 27.4006C29.6733 27.1744 29.7518 27.0276 29.7757 26.9602C29.6225 27.4145 29.4117 27.8599 29.1435 28.2963C28.8752 28.7326 28.602 29.1293 28.3239 29.4863C28.0457 29.8433 27.8083 30.1388 27.6117 30.3728C27.413 30.591 27.2998 30.7179 27.272 30.7536C26.6919 31.535 26.091 32.2143 25.4694 32.7913C24.8616 33.3504 24.3196 33.6595 23.8432 33.7187ZM22.9805 33.0035C23.0599 32.9937 23.1522 32.958 23.2575 32.8966C23.4203 32.7797 23.6239 32.6012 23.8682 32.3613C24.1283 32.1194 24.3955 31.8685 24.6696 31.6088C24.9119 31.353 25.18 31.0456 25.4741 30.6866C25.7661 30.3118 26.083 29.8774 26.4247 29.3836C26.7248 28.9432 27.0447 28.4682 27.3844 27.9584C27.7222 27.4328 28.0501 26.8923 28.3681 26.3369L28.0523 26.7147C28.1496 26.5897 28.2658 26.4221 28.401 26.2119C28.55 25.9838 28.6732 25.8072 28.7705 25.6823C28.2744 25.7117 27.9777 25.7243 27.8804 25.7203C27.8685 25.754 27.8466 25.7728 27.8149 25.7768C27.7831 25.7807 27.7604 25.7271 27.7465 25.616C27.7426 25.5842 27.7377 25.5445 27.7318 25.4969C27.7239 25.4334 27.7239 25.3689 27.7319 25.3034C27.5712 25.3072 27.3995 25.3527 27.2168 25.4399C27.0342 25.5271 26.8366 25.6886 26.624 25.9246C26.3856 26.2122 26.0758 26.5731 25.6944 27.0074C25.313 27.4418 24.9226 27.9336 24.5233 28.483C24.122 29.0165 23.7494 29.5868 23.4056 30.1938C23.0776 30.7988 22.833 31.4257 22.6717 32.0745C22.616 32.2749 22.5999 32.4704 22.6236 32.6609C22.6571 32.9308 22.7861 32.9954 23.0104 32.8547C22.937 32.9122 22.9012 32.9489 22.9032 32.9648C22.9071 32.9965 22.9329 33.0095 22.9805 33.0035ZM23.0104 32.8547C23.2924 32.6585 23.7273 32.2659 24.3153 31.677C24.9171 31.0702 25.513 30.3513 26.1031 29.5202C26.2958 29.2545 26.5164 28.953 26.7647 28.6158C27.0111 28.2628 27.2515 27.9266 27.4859 27.6073C27.7204 27.2879 27.8992 27.04 28.0224 26.8635C27.7124 27.3534 27.4213 27.8007 27.1491 28.2053C26.8908 28.5921 26.6384 28.962 26.392 29.3151C25.8139 30.1124 25.211 30.8402 24.5833 31.4986C23.9715 32.155 23.4472 32.607 23.0104 32.8547ZM32.2408 33.1355C31.7509 32.8255 31.3274 32.5314 30.9704 32.2533C30.6293 31.9732 30.44 31.6823 30.4026 31.3806C30.3927 31.3012 30.3928 31.2367 30.4027 31.1871C30.4925 30.6117 30.6965 29.9172 31.0147 29.1038C31.3488 28.2885 31.7474 27.4086 32.2105 26.4644C32.6876 25.5022 33.1965 24.5362 33.7371 23.5662C34.2757 22.5803 34.8043 21.644 35.323 20.7573C35.8556 19.8528 36.3445 19.0505 36.7896 18.3503C37.2327 17.6342 37.5904 17.0739 37.8626 16.6693C38.1349 16.2646 38.2789 16.0613 38.2948 16.0594C38.4595 16.0873 38.7174 16.2165 39.0684 16.447C39.4175 16.6616 39.6644 16.897 39.8091 17.1531C39.8448 17.1809 39.8646 17.2107 39.8686 17.2424C39.9081 17.431 40.0409 17.5919 40.2671 17.725C40.4932 17.8582 40.6181 18.02 40.6417 18.2105C40.7088 18.7504 40.5753 19.3635 40.2413 20.0499C39.9054 20.7204 39.4444 21.4226 38.8584 22.1564C38.2723 22.8902 37.6297 23.6229 36.9306 24.3547C36.2294 25.0705 35.5313 25.7457 34.8362 26.3802C34.155 26.9968 33.5612 27.5381 33.0547 28.0041C32.6612 28.7301 32.4493 29.361 32.4191 29.8968C32.4048 30.4307 32.4213 30.8236 32.4687 31.0757C33.1817 30.4551 33.8471 29.7759 34.4649 29.0382C34.6218 28.8736 34.8512 28.6436 35.1531 28.3481C35.4689 28.0348 35.7936 27.7285 36.1273 27.4291C36.4609 27.1297 36.7161 26.9126 36.8929 26.7778C37.0557 26.6608 37.1808 26.5647 37.2682 26.4893C37.3714 26.412 37.3655 26.4289 37.2503 26.5399C36.9067 26.8889 36.4459 27.3331 35.8679 27.8724C36.6981 27.1567 37.5479 26.5997 38.4175 26.2015C38.5842 26.1163 38.7153 26.0678 38.8105 26.056C38.9693 26.0363 38.9722 26.1246 38.8192 26.3209C38.6643 26.5014 38.4786 26.6937 38.2621 26.898C37.2651 27.8279 36.2413 28.8015 35.1906 29.8187C34.1399 30.8359 33.1567 31.9415 32.2408 33.1355ZM33.8447 26.5758C34.3929 26.0563 34.9054 25.509 35.3821 24.9339C35.8569 24.3429 36.3337 23.7677 36.8124 23.2085C37.6388 22.203 38.2856 21.244 38.7527 20.3315C39.2357 19.417 39.5162 18.6244 39.5941 17.9537C39.3477 18.3067 39.0129 18.7917 38.5897 19.4085C38.1804 20.0075 37.7244 20.6849 37.2217 21.4406C36.717 22.1804 36.1994 22.946 35.6689 23.7374C35.1542 24.5269 34.6674 25.2806 34.2084 25.9986C34.1667 26.0522 34.112 26.1315 34.0445 26.2366C33.9908 26.3239 33.9242 26.437 33.8447 26.5758ZM32.9032 31.2636C33.0562 31.0672 33.2528 30.8332 33.4932 30.5615C33.7335 30.2899 34.0067 29.9577 34.3126 29.565C34.4517 29.3865 34.6623 29.1346 34.9443 28.8094C35.2423 28.4822 35.5502 28.1698 35.8679 27.8724C35.288 28.3959 34.7835 28.8777 34.3545 29.3179C33.9255 29.7581 33.5332 30.1696 33.1777 30.5524L32.8945 30.9986C32.813 31.1216 32.7842 31.2139 32.8079 31.2754C32.8317 31.337 32.8635 31.333 32.9032 31.2636ZM39.3268 32.0138C39.2315 32.0256 39.0669 31.9332 38.8329 31.7365C38.6167 31.5538 38.3896 31.3482 38.1517 31.1198C37.9276 30.8735 37.7601 30.6928 37.649 30.5776C37.715 29.9406 37.8813 29.267 38.1478 28.5567C38.4282 27.8286 38.7662 27.1095 39.1617 26.3993C39.5572 25.6892 39.9586 25.0267 40.366 24.4118C40.7892 23.7949 41.1597 23.2733 41.4776 22.8469C41.2333 23.0868 40.981 23.3922 40.7207 23.7631C40.4585 24.1182 40.2787 24.3581 40.1813 24.4831C40.0145 24.6973 39.8476 24.9115 39.6807 25.1257C39.5119 25.324 39.3589 25.5203 39.2218 25.7147C39.6252 25.0681 40.0266 24.4701 40.4259 23.9207C40.8411 23.3693 41.1421 23.0014 41.3288 22.817C41.3705 22.7634 41.4271 22.7 41.4986 22.6266C41.586 22.5513 41.6843 22.4988 41.7935 22.4691L41.9574 22.2311C42.3881 22.1937 42.8653 22.2715 43.389 22.4644C43.9108 22.6415 44.371 22.9068 44.7696 23.2604C45.1822 23.5961 45.4269 24.0091 45.5039 24.4993C45.5118 24.5629 45.4879 24.6303 45.4323 24.7017C45.3747 24.7572 45.3231 24.7314 45.2776 24.6242C45.1368 24.3998 44.9832 24.2012 44.8166 24.0284C44.6501 23.8556 44.4726 23.7245 44.2841 23.6351C44.1135 23.5595 43.9409 23.5326 43.7662 23.5543C43.5757 23.5779 43.4089 23.6631 43.2659 23.8099C42.9779 24.0875 42.6412 24.492 42.2558 25.0236C41.8842 25.5373 41.5097 26.0917 41.1321 26.6867C40.7705 27.2798 40.4465 27.8521 40.1603 28.4036C39.8899 28.9531 39.7119 29.4024 39.6263 29.7516C39.7078 29.6286 39.8548 29.4492 40.0673 29.2132C40.2799 28.9772 40.5083 28.7392 40.7526 28.4993C40.9949 28.2435 41.2025 28.0323 41.3753 27.8657C41.4329 27.8102 41.556 27.6982 41.7447 27.5297C41.9333 27.3611 42.129 27.1837 42.3315 26.9973C42.55 26.8089 42.7257 26.6662 42.8588 26.5691C42.8627 26.6008 42.7783 26.7 42.6055 26.8665C42.4486 27.0311 42.254 27.2165 42.0216 27.4227C41.7892 27.6289 41.5708 27.8173 41.3662 27.9878C41.1776 28.1563 41.0624 28.2674 41.0206 28.3209C40.8657 28.5014 40.682 28.7096 40.4694 28.9456C40.2728 29.1796 40.09 29.3958 39.9212 29.5941C39.7523 29.7924 39.6411 29.9352 39.5874 30.0225C39.5635 30.0899 39.5605 30.1306 39.5784 30.1445C39.5962 30.1584 39.625 30.1307 39.6648 30.0612C39.782 29.8371 39.9688 29.5882 40.225 29.3145C40.4812 29.0409 40.7613 28.7642 41.0652 28.4847C41.3829 28.1872 41.664 27.9186 41.9083 27.6786C42.1963 27.401 42.4564 27.1591 42.6888 26.9529C42.9351 26.7289 43.1515 26.5246 43.3382 26.3402C43.3127 26.0048 43.4032 25.7598 43.6097 25.6052C43.8321 25.4486 44.0098 25.3862 44.1427 25.4181C44.242 25.438 44.3927 25.4838 44.5951 25.5554C44.8114 25.6091 45.0068 25.6897 45.1813 25.797C45.3539 25.8884 45.4173 26.0095 45.3716 26.1603C45.292 26.4282 45.2539 26.836 45.2574 27.3837C45.2749 27.9136 45.3112 28.4008 45.3664 28.8454C45.4453 29.4805 45.6832 29.7734 46.0801 29.7242C46.2865 29.6985 46.5506 29.5529 46.8723 29.2872C46.9895 29.1921 47.0798 29.1405 47.1433 29.1326C47.191 29.1267 47.2177 29.1476 47.2237 29.1952C47.2315 29.2587 47.2037 29.3589 47.1401 29.4958C47.0745 29.6168 47.0278 29.6952 47 29.7309C46.835 29.9609 46.6285 30.1801 46.3802 30.3882C46.1459 30.5786 45.8938 30.6905 45.6238 30.724C45.5127 30.7378 45.3996 30.7357 45.2845 30.7178C45.1694 30.6998 45.0514 30.658 44.9303 30.5925C44.4999 30.3718 44.1628 29.9945 43.9192 29.4604C43.6914 28.9244 43.5528 28.4579 43.5035 28.061C43.4917 27.9657 43.4809 27.8784 43.471 27.799C43.477 27.7176 43.484 27.6442 43.492 27.5787C43.3351 27.7433 43.0719 28.0259 42.7025 28.4265C42.3469 28.8092 41.9497 29.2455 41.5107 29.7353C41.0697 30.2093 40.6496 30.6564 40.2504 31.0768C39.8511 31.4972 39.5433 31.8095 39.3268 32.0138ZM49.6933 26.2525C49.9319 25.7069 50.2153 25.0026 50.5434 24.1396C50.8855 23.2588 51.2445 22.3194 51.6204 21.3214C52.0102 20.3057 52.396 19.3226 52.7778 18.3723C53.1596 17.4221 53.5016 16.6057 53.8038 15.9232C53.8913 15.7189 54.0254 15.5652 54.2061 15.4622C54.3868 15.3591 54.5803 15.2948 54.7867 15.2691C55.0884 15.2317 55.3672 15.2696 55.6231 15.383C55.879 15.4963 55.989 15.668 55.9531 15.8982C55.8754 16.3109 55.6746 16.7712 55.3507 17.279C55.0427 17.7848 54.7157 18.3332 54.3699 18.9244C54.2765 19.0811 54.2308 19.1674 54.2328 19.1832C54.2348 19.1991 54.2447 19.214 54.2625 19.2279C54.195 19.333 54.1274 19.4382 54.0599 19.5433C54.0082 19.6464 53.9485 19.7506 53.881 19.8557C53.5988 20.3099 53.3246 20.7632 53.0583 21.2154C52.79 21.6518 52.5625 22.0267 52.3757 22.3401C52.3359 22.4096 52.2624 22.5316 52.1551 22.7061C52.0636 22.8787 51.9851 23.0255 51.9195 23.1465C51.8679 23.2496 51.8619 23.2665 51.9016 23.1971L52.7779 21.8791C52.3626 22.5594 51.9681 23.213 51.5945 23.8398C51.2209 24.4666 50.8761 25.0012 50.5602 25.4435C50.2423 25.8699 49.9534 26.1396 49.6933 26.2525ZM53.6602 20.4152L54.1343 19.5582C54.1979 19.4213 54.2357 19.336 54.2476 19.3023C54.2595 19.2686 54.2645 19.2438 54.2625 19.2279C54.6103 18.6527 54.9293 18.1052 55.2194 17.5855C55.5076 17.0499 55.7084 16.6541 55.8217 16.3982C55.8595 16.3129 55.8863 16.2693 55.9022 16.2673C55.9181 16.2653 55.8972 16.3566 55.8395 16.5411C55.7957 16.7078 55.747 16.8348 55.6933 16.922C55.5363 17.2156 55.2998 17.6481 54.9838 18.2194C54.6658 18.7748 54.3051 19.3758 53.9017 20.0224L53.6602 20.4152ZM53.079 21.3822L53.6602 20.4152C53.5688 20.5878 53.4764 20.7524 53.383 20.9091C53.2896 21.0658 53.1882 21.2235 53.079 21.3822ZM49.1629 30.5506C48.9784 30.4929 48.7711 30.3816 48.541 30.2167C48.3268 30.0498 48.1354 29.872 47.9669 29.6834C47.8123 29.4768 47.7251 29.2942 47.7054 29.1354C47.6817 28.9449 47.7652 28.8378 47.9557 28.8141C48.0669 28.8003 48.1879 28.8014 48.3189 28.8174C48.4479 28.8175 48.5918 28.8077 48.7505 28.788C48.9411 28.7643 49.1604 28.7129 49.4086 28.6337C49.6706 28.5367 49.9366 28.4714 50.2065 28.4379C50.3335 28.4221 50.4615 28.4143 50.5905 28.4144C50.7354 28.4125 50.8674 28.4364 50.9864 28.4862C51.0697 28.5081 51.0647 28.5974 50.9713 28.7541C50.8938 28.9088 50.7626 29.0863 50.5779 29.2866C50.4071 29.469 50.2283 29.6525 50.0416 29.8369C49.8688 30.0034 49.7308 30.1254 49.6276 30.2027C49.7367 30.173 49.8857 30.0739 50.0743 29.9054C50.2789 29.7349 50.4507 29.5604 50.5897 29.3819C50.3612 29.7488 50.0831 30.0413 49.7555 30.2593C49.4438 30.4754 49.2462 30.5725 49.1629 30.5506ZM58.0628 30.4612C57.9199 30.479 57.7443 30.4282 57.536 30.309C57.3277 30.1897 57.1333 30.0527 56.9529 29.8977C56.7883 29.7408 56.6991 29.6068 56.6853 29.4956C56.6734 29.4004 56.6993 29.3488 56.7628 29.3409C56.8263 29.333 56.9166 29.346 57.0337 29.3798C57.1507 29.4136 57.2966 29.4197 57.4712 29.398C57.3602 29.2828 57.271 29.1488 57.2037 28.9959C57.1343 28.8272 57.0908 28.6714 57.0731 28.5285C57.0435 28.2903 57.1172 27.9103 57.2943 27.3885C57.4872 26.8648 57.7358 26.2696 58.0399 25.603C58.36 24.9345 58.6811 24.2739 59.0031 23.6212C59.341 22.9666 59.6481 22.3884 59.9243 21.8865C60.1986 21.3688 60.3954 21.0057 60.5146 20.7975C60.1471 21.3429 59.849 21.7991 59.6205 22.1661C59.39 22.5172 59.2589 22.6947 59.2271 22.6986C59.1953 22.7026 59.3017 22.4556 59.5462 21.9576C59.7907 21.4597 60.2251 20.6077 60.8492 19.4016C61.008 19.3819 61.2242 19.4356 61.498 19.5629C61.7877 19.6881 62.0485 19.8412 62.2805 20.022C62.5285 20.2008 62.6633 20.3775 62.685 20.5522C62.5339 20.8934 62.2844 21.3516 61.9367 21.9268C61.5869 22.4862 61.2153 23.0644 60.8219 23.6614C60.4285 24.2585 60.0907 24.7841 59.8085 25.2383C59.8661 25.1828 60.0498 24.9746 60.3597 24.6136C60.6696 24.2527 61.044 23.8273 61.483 23.3375C61.9379 22.8457 62.3928 22.3539 62.8476 21.8621C63.3184 21.3683 63.7345 20.9539 64.0959 20.6188C64.4574 20.2837 64.6927 20.1013 64.8019 20.0716C64.8813 20.0618 65.0162 20.1095 65.2066 20.2149C65.397 20.3202 65.5914 20.4573 65.7897 20.6261C65.9861 20.7791 66.1427 20.937 66.2597 21.0999C66.3906 21.2448 66.4371 21.36 66.3993 21.4453C66.3079 21.6179 66.1399 21.9531 65.8954 22.451C65.6648 22.9311 65.4103 23.4786 65.132 24.0936C64.8695 24.7066 64.6359 25.2919 64.431 25.8494C64.6177 25.665 64.863 25.3685 65.167 24.9599C65.4849 24.5335 65.8435 24.0456 66.2428 23.4962C66.6402 22.9309 67.0535 22.3637 67.4826 21.7945C67.9098 21.2094 68.325 20.658 68.7283 20.1404C69.1474 19.6207 69.5298 19.1944 69.8754 18.8613L69.9618 18.778L70.0423 18.6471C70.1217 18.6372 70.2496 18.6939 70.4262 18.817C70.6027 18.9402 70.7831 19.0952 70.9676 19.2819C71.152 19.4686 71.2947 19.6443 71.3958 19.8091C71.5127 19.972 71.5444 20.097 71.4907 20.1843C71.4093 20.3073 71.2493 20.577 71.0108 20.9936C70.7723 21.4102 70.4951 21.9041 70.1791 22.4754C69.863 23.0467 69.556 23.6249 69.2578 24.2101C68.9735 24.7775 68.738 25.2823 68.551 25.7247L70.3711 24.217C70.5181 24.102 70.5191 24.1099 70.3741 24.2408C70.2291 24.3717 70.0414 24.5481 69.811 24.7702C69.5945 24.9744 69.4297 25.14 69.3165 25.2669C69.2747 25.3205 69.2211 25.4078 69.1555 25.5288C69.1058 25.6478 69.1018 25.6805 69.1435 25.627C69.37 25.3732 69.6639 25.0787 70.0254 24.7436C70.4027 24.4065 70.788 24.0685 71.1812 23.7294C71.5725 23.3745 71.929 23.0642 72.2507 22.7986C71.9687 22.9948 71.6798 23.2 71.3839 23.4141C71.0861 23.6123 70.7922 23.8422 70.5022 24.104L70.8925 23.7411C71.0513 23.5924 71.2708 23.412 71.5508 23.1999C71.8288 22.9719 72.1088 22.7598 72.3908 22.5635C72.6708 22.3514 72.8793 22.2126 73.0163 22.1473L72.2507 22.7986L73.439 22.0464C73.5145 22.0048 73.575 21.9731 73.6207 21.9513C73.6664 21.9295 73.7051 21.9166 73.7368 21.9127C73.8956 21.893 73.9164 21.9952 73.7991 22.2194C73.6977 22.4415 73.5358 22.6309 73.3134 22.7875C72.956 23.0254 72.5409 23.3833 72.0682 23.8612C71.6094 24.3212 71.1257 24.8408 70.6172 25.4198C70.1226 25.9811 69.6439 26.5403 69.181 27.0976C68.7321 27.637 68.3486 28.1199 68.0308 28.5464C67.642 28.2722 67.422 27.9932 67.3706 27.7093C67.3351 27.4235 67.2937 27.1546 67.2462 26.9025C67.2403 26.8549 67.303 26.6456 67.4343 26.2745C67.3828 26.1197 67.3641 25.9689 67.3781 25.822C67.3644 25.5819 67.4213 25.1959 67.5487 24.6642C67.6742 24.1165 67.8632 23.4965 68.1158 22.8041C68.3665 22.0958 68.6499 21.3916 68.966 20.6913C68.6103 21.203 68.2139 21.7762 67.7768 22.4109C67.3397 23.0456 66.9035 23.6882 66.4684 24.3388C66.0491 24.9874 65.6795 25.5815 65.3596 26.121C65.0396 26.6606 64.82 27.099 64.7006 27.4363C64.5834 27.5314 64.4693 27.5859 64.3581 27.5997C64.2629 27.6115 64.1547 27.5847 64.0337 27.5191C63.9206 27.517 63.8046 27.4266 63.6857 27.2479C63.5806 27.0513 63.4866 26.8131 63.4034 26.5332C63.4094 26.5808 63.4083 26.6374 63.4003 26.7029C63.3904 26.7525 63.3883 26.8011 63.3943 26.8488L63.3972 26.8726C63.3813 26.8745 63.3586 26.8209 63.3289 26.7118C63.2992 26.6026 63.2883 26.5153 63.2963 26.4498L63.3205 26.0598L63.3293 26.1313C63.3372 26.1948 63.3451 26.2583 63.353 26.3218C63.3768 26.3834 63.3936 26.4538 63.4034 26.5332C63.4415 26.0609 63.5055 25.537 63.5952 24.9616C63.6989 24.3683 63.7996 23.8157 63.8973 23.3038C64.0108 22.7898 64.0845 22.4099 64.1185 22.1638C64.0568 22.3166 63.9743 22.5606 63.8708 22.8959C63.7832 23.2292 63.6976 23.5784 63.6139 23.9435C63.5442 24.2908 63.4894 24.5636 63.4495 24.762C63.3976 25.1232 63.3657 25.3851 63.3536 25.5478C63.3396 25.6947 63.3276 25.8574 63.3175 26.036C63.286 25.782 63.2853 25.4515 63.3154 25.0447C63.3613 24.6359 63.4212 24.2093 63.495 23.7648C63.5847 23.3184 63.6713 22.9126 63.755 22.5475C63.8386 22.1824 63.9033 21.9245 63.9491 21.7737C63.7405 22.0414 63.3978 22.4629 62.9211 23.038C62.4582 23.5953 61.9487 24.2309 61.3924 24.9449C60.85 25.6411 60.3246 26.3432 59.8159 27.0512C59.3212 27.7414 58.9218 28.3553 58.6177 28.8929C58.6793 28.8691 58.7577 28.8513 58.8529 28.8395C58.98 28.8237 59.1199 28.8467 59.2726 28.9083C59.4254 28.97 59.5097 29.0643 59.5254 29.1913C59.5392 29.3025 59.4607 29.4493 59.2899 29.6317C59.121 29.83 58.9175 30.0085 58.6792 30.167C58.4429 30.3415 58.2374 30.4396 58.0628 30.4612ZM77.1265 16.9935C76.9082 16.9239 76.6712 16.7679 76.4154 16.5256C76.1596 16.2833 76.0198 16.0668 75.9962 15.8763C75.9765 15.7175 76.038 15.6292 76.1809 15.6115C76.2603 15.6016 76.3576 15.6057 76.4727 15.6236C76.5858 15.6257 76.6979 15.6199 76.8091 15.6061C76.952 15.5883 77.1048 15.521 77.2677 15.404C77.4285 15.2712 77.5963 15.1939 77.7709 15.1722C77.9932 15.1446 78.1866 15.2738 78.3511 15.5597C78.4086 15.6332 78.3827 15.7492 78.2734 15.9079C78.1641 16.0666 78.0301 16.2203 77.8712 16.369C77.7282 16.5157 77.605 16.6278 77.5018 16.7051C77.5812 16.6952 77.7013 16.6239 77.8621 16.491C78.021 16.3423 78.1491 16.2055 78.2465 16.0806C78.0716 16.3602 77.8581 16.5883 77.6059 16.7647C77.3518 16.9252 77.1919 17.0015 77.1265 16.9935ZM73.1618 27.3288C72.8444 27.1103 72.6203 26.9285 72.4895 26.7835C72.3725 26.6207 72.3052 26.4678 72.2874 26.3249C72.2736 26.2138 72.2757 26.1007 72.2936 25.9856C72.3275 25.8685 72.3524 25.7445 72.3684 25.6135C72.4701 25.0043 72.677 24.3337 72.9892 23.6017C73.3014 22.8696 73.6473 22.1495 74.0269 21.4414C74.4204 20.7153 74.7683 20.0756 75.0704 19.5222C75.0347 19.4943 75.007 19.401 74.9872 19.2423C74.9596 19.02 74.9688 18.7689 75.0147 18.4891C75.0744 18.1915 75.1877 18.0646 75.3543 18.1084C75.5508 18.1324 75.7849 18.2 76.0567 18.3114C76.3444 18.4208 76.6032 18.5579 76.8333 18.7228C77.0634 18.8877 77.1922 19.0813 77.2198 19.3036C77.2257 19.3513 77.2187 19.4247 77.1988 19.5239L77.175 19.5268C76.8174 20.0227 76.4736 20.5652 76.1437 21.1543C75.8138 21.7435 75.5275 22.2949 75.285 22.8088C75.0564 23.3047 74.9013 23.6787 74.8197 23.9306C74.909 23.8712 75.0044 23.7948 75.1056 23.7017C75.2069 23.6085 75.3142 23.4984 75.4274 23.3715C75.3539 23.429 75.2864 23.4696 75.2249 23.4934C75.1792 23.5152 75.1713 23.5162 75.2011 23.4963C75.5725 23.1116 76.0065 22.7111 76.5029 22.2948C77.0153 21.8764 77.5395 21.4889 78.0757 21.1321C78.6098 20.7594 79.1191 20.4463 79.6035 20.1927L79.6512 20.1868C79.6829 20.1828 79.6621 20.2096 79.5886 20.2671C79.529 20.3067 79.4466 20.3573 79.3414 20.4187C79.2362 20.4801 79.0952 20.5783 78.9184 20.7131C78.7397 20.832 78.5402 20.9777 78.3197 21.1502C78.5302 21.0273 78.7466 20.8876 78.969 20.731C79.1914 20.5744 79.4247 20.4406 79.6689 20.3297C79.7444 20.288 79.8129 20.2554 79.8744 20.2316C79.9518 20.2059 80.0064 20.191 80.0382 20.1871C80.1493 20.1733 80.2098 20.2061 80.2197 20.2855C80.2335 20.3966 80.142 20.5692 79.9454 20.8032C79.7487 21.0372 79.4876 21.2712 79.1619 21.5051C78.9693 21.6419 78.6694 21.8887 78.2623 22.2456C77.871 22.6005 77.4232 23.0189 76.9187 23.5007C76.4123 23.9667 75.8998 24.4495 75.3815 24.9492C74.879 25.4469 74.4281 25.9059 74.0289 26.3263C73.6296 26.7467 73.3406 27.0809 73.1618 27.3288ZM75.4274 23.3715C75.5029 23.3299 75.5773 23.2803 75.6508 23.2228C75.7382 23.1475 75.7968 23.0999 75.8265 23.0801C76.1026 22.8362 76.47 22.5488 76.9287 22.2177C77.4013 21.8688 77.865 21.513 78.3197 21.1502C77.5732 21.6298 76.9874 22.0411 76.5624 22.3841C76.1374 22.7271 75.7591 23.0562 75.4274 23.3715ZM82.6802 26.2195C82.4063 26.2212 82.1732 26.097 81.9809 25.8468C81.7867 25.5807 81.6738 25.3207 81.6422 25.0666C81.6166 24.8602 81.7022 24.511 81.8991 24.019C82.094 23.5111 82.3455 22.9397 82.6536 22.3049C82.9757 21.6523 83.3066 21.0066 83.6465 20.3678C84.0023 19.7271 84.3193 19.1637 84.5975 18.6778C84.8738 18.1759 85.0646 17.8297 85.1699 17.6393C84.8281 18.1332 84.549 18.5467 84.3324 18.88C84.1297 19.1953 84.0125 19.355 83.9807 19.3589C83.9648 19.3609 84.0662 19.1387 84.2849 18.6924C84.5195 18.2441 84.916 17.4774 85.4745 16.3923C85.6333 16.3725 85.8407 16.4194 86.0966 16.5327C86.3525 16.646 86.5876 16.7861 86.8018 16.953C87.0299 17.102 87.1538 17.2559 87.1735 17.4147C87.0582 17.6547 86.8803 17.9751 86.6398 18.3758C86.3994 18.7765 86.1222 19.2059 85.8083 19.6641C85.4943 20.1223 85.1953 20.5705 84.9111 21.0089C84.625 21.4314 84.3806 21.8003 84.1779 22.1157C84.2196 22.0621 84.3835 21.8886 84.6695 21.5951C84.9555 21.3016 85.3131 20.9348 85.7421 20.4946C86.1691 20.0385 86.619 19.5715 87.0917 19.0936C87.5784 18.5978 88.0451 18.1368 88.492 17.7105C88.9369 17.2683 89.3192 16.9064 89.6389 16.6249C89.9587 16.3433 90.1662 16.1967 90.2615 16.1848C90.3409 16.175 90.4599 16.2247 90.6186 16.334C90.7772 16.4432 90.9399 16.5843 91.1064 16.7571C91.2869 16.912 91.4277 17.0719 91.5287 17.2367C91.6278 17.3856 91.6496 17.4958 91.594 17.5672C91.5105 17.6743 91.3099 17.941 90.992 18.3674C90.69 18.7919 90.3333 19.2957 89.9221 19.8788C89.5267 20.46 89.1471 21.0391 88.7835 21.6163C88.4337 22.1757 88.1704 22.6518 87.9935 23.0446L89.5305 21.7896C89.6477 21.6944 89.6487 21.7024 89.5335 21.8134C89.4183 21.9245 89.2743 22.0633 89.1015 22.2298C88.9287 22.3964 88.7996 22.5253 88.7142 22.6165C88.6725 22.67 88.6268 22.7563 88.5771 22.8754C88.5254 22.9785 88.5204 23.0033 88.5621 22.9498C88.7747 22.7138 89.0477 22.4461 89.3814 22.1467C89.715 21.8473 90.0646 21.5459 90.43 21.2426C90.8093 20.9214 91.1449 20.6379 91.4369 20.3921C91.1688 20.5704 90.9087 20.7479 90.6565 20.9243C90.4043 21.1007 90.1392 21.3029 89.8612 21.5309L90.165 21.2513C90.2941 21.1224 90.4838 20.9618 90.734 20.7695C90.9842 20.5772 91.2354 20.3929 91.4876 20.2165C91.7557 20.0381 91.9582 19.9162 92.0952 19.8508L91.4607 20.3891C91.6255 20.288 91.7982 20.186 91.9789 20.0829C92.1576 19.964 92.3442 19.8441 92.5388 19.7232C92.6599 19.6598 92.7443 19.6251 92.7919 19.6192C92.9348 19.6014 92.9536 19.6878 92.8483 19.8782C92.7588 20.0667 92.6108 20.2382 92.4043 20.3928C92.0767 20.6109 91.6974 20.9321 91.2664 21.3564C90.8354 21.7808 90.3855 22.2477 89.9167 22.7574C89.4638 23.2651 89.0268 23.7708 88.6057 24.2745C88.1826 24.7624 87.825 25.1937 87.533 25.5686C87.166 25.34 86.9578 25.0918 86.9084 24.8238C86.859 24.5559 86.8215 24.3187 86.7959 24.1123L86.7841 24.017C86.7782 23.9694 86.7713 23.9138 86.7634 23.8503C86.7694 23.7689 86.7903 23.6777 86.8261 23.5765C86.8004 23.4991 86.73 23.4514 86.6149 23.4334C86.4978 23.3996 86.4433 23.3499 86.4513 23.2844C86.4773 22.9749 86.5848 22.6068 86.7737 22.1803C86.9625 21.7538 87.1812 21.3074 87.4297 20.8413C87.694 20.3731 87.9603 19.9209 88.2286 19.4845C88.4968 19.0481 88.7244 18.6732 88.9112 18.3598C89.098 18.0464 89.2162 17.8302 89.266 17.7111C89.111 17.8916 88.8508 18.198 88.4853 18.6303C88.1178 19.0468 87.6947 19.5346 87.2159 20.0939C86.7511 20.6353 86.2664 21.2114 85.7618 21.8222C85.2573 22.4331 84.7834 23.032 84.3404 23.6191C83.8954 24.1903 83.5239 24.704 83.2258 25.1602C82.9278 25.6164 82.7459 25.9695 82.6802 26.2195ZM94.6433 24.9275C94.421 24.9551 94.1769 24.9371 93.911 24.8733C93.663 24.8235 93.4329 24.7231 93.2206 24.5721C93.0084 24.4211 92.7695 24.1847 92.5038 23.863C92.252 23.5235 92.1045 23.179 92.0611 22.8297C92.0434 22.6868 92.0514 22.5568 92.0852 22.4398C92.4238 21.0112 93.0947 19.6622 94.0979 18.3929C95.0992 17.1077 96.3772 15.9736 97.9319 14.9906C98.1542 14.963 98.3953 15.0217 98.6551 15.1668C98.913 15.296 99.1361 15.4698 99.3245 15.6883L99.7709 15.7779C99.7334 15.6053 99.665 15.5089 99.5658 15.489C99.4646 15.4532 99.4091 15.3956 99.3992 15.3162C99.4132 15.1694 99.5066 15.0772 99.6792 15.0396C99.85 14.9862 99.975 14.9545 100.054 14.9447C100.308 14.9131 100.53 15.0066 100.718 15.225C100.92 15.4256 101.046 15.6599 101.095 15.9279C101.482 15.9282 101.883 15.9107 102.298 15.8753C102.713 15.8399 103.072 15.8114 103.376 15.7898C103.693 15.7504 103.868 15.7287 103.9 15.7248L103.971 15.7159C104.019 15.71 104.047 15.7388 104.055 15.8023C104.068 15.9134 104.017 16.0166 103.9 16.1117C103.757 16.2585 103.394 16.3922 102.813 16.5127C102.245 16.6155 101.644 16.7063 101.008 16.7851C100.959 17.0332 100.871 17.302 100.746 17.5916C100.621 17.8813 100.472 18.1818 100.302 18.4933C100.184 18.7174 100.004 19.0219 99.762 19.4067C99.5176 19.7756 99.2662 20.1535 99.0079 20.5403C98.7496 20.927 98.5321 21.2523 98.3552 21.5161C98.4823 21.3714 98.685 21.1205 98.9631 20.7635C99.2551 20.3886 99.4886 20.0614 99.6635 19.7817C99.731 19.6766 99.8314 19.5109 99.9645 19.2848C100.096 19.0428 100.221 18.8177 100.34 18.6094C100.473 18.3832 100.552 18.2365 100.576 18.169C100.423 18.6233 100.212 19.0687 99.9435 19.5051C99.6752 19.9415 99.402 20.3382 99.1239 20.6951C98.8458 21.0521 98.6084 21.3476 98.4117 21.5817C98.2131 21.7998 98.0999 21.9267 98.072 21.9624C97.4919 22.7439 96.891 23.4231 96.2694 24.0001C95.6617 24.5592 95.1196 24.8684 94.6433 24.9275ZM93.7806 24.2124C93.86 24.2025 93.9523 24.1669 94.0575 24.1054C94.2203 23.9885 94.4239 23.81 94.6682 23.5701C94.9284 23.3282 95.1955 23.0774 95.4696 22.8176C95.7119 22.5618 95.9801 22.2544 96.2741 21.8955C96.5661 21.5206 96.883 21.0863 97.2248 20.5924C97.5248 20.1521 97.8447 19.677 98.1845 19.1673C98.5223 18.6416 98.8502 18.1011 99.1682 17.5457L98.8523 17.9235C98.9496 17.7985 99.0659 17.6309 99.201 17.4207C99.35 17.1926 99.4732 17.0161 99.5706 16.8911C99.0744 16.9205 98.7777 16.9331 98.6805 16.9291C98.6685 16.9628 98.6467 16.9816 98.6149 16.9856C98.5832 16.9895 98.5604 16.9359 98.5466 16.8248C98.5426 16.793 98.5377 16.7533 98.5318 16.7057C98.5239 16.6422 98.524 16.5777 98.532 16.5122C98.3712 16.516 98.1995 16.5615 98.0169 16.6487C97.8342 16.7359 97.6366 16.8975 97.4241 17.1335C97.1857 17.421 96.8758 17.782 96.4944 18.2163C96.113 18.6506 95.7227 19.1424 95.3233 19.6918C94.922 20.2253 94.5494 20.7956 94.2056 21.4026C93.8776 22.0076 93.633 22.6345 93.4718 23.2833C93.416 23.4837 93.4 23.6792 93.4236 23.8697C93.4572 24.1397 93.5861 24.2043 93.8105 24.0636C93.737 24.121 93.7012 24.1577 93.7032 24.1736C93.7072 24.2054 93.733 24.2183 93.7806 24.2124ZM93.8105 24.0636C94.0924 23.8673 94.5274 23.4747 95.1153 22.8858C95.7171 22.279 96.3131 21.5601 96.9032 20.729C97.0959 20.4633 97.3164 20.1618 97.5648 19.8246C97.8111 19.4716 98.0515 19.1354 98.286 18.8161C98.5204 18.4968 98.6992 18.2488 98.8224 18.0723C98.5124 18.5622 98.2213 19.0095 97.9491 19.4141C97.6908 19.8009 97.4385 20.1708 97.1921 20.5239C96.6139 21.3212 96.011 22.049 95.3834 22.7074C94.7716 23.3638 94.2473 23.8158 93.8105 24.0636ZM101.743 25.0375C101.6 25.0553 101.424 25.0045 101.216 24.8853C101.008 24.766 100.814 24.6289 100.633 24.474C100.468 24.3171 100.379 24.183 100.365 24.0719C100.354 23.9766 100.379 23.925 100.443 23.9172C100.506 23.9093 100.597 23.9222 100.714 23.9561C100.831 23.9899 100.977 23.996 101.151 23.9743C101.04 23.8591 100.951 23.7251 100.884 23.5722C100.815 23.4035 100.771 23.2476 100.753 23.1047C100.724 22.8666 100.797 22.4866 100.974 21.9648C101.167 21.441 101.416 20.8459 101.72 20.1793C102.04 19.5108 102.361 18.8502 102.683 18.1975C103.021 17.5429 103.328 16.9646 103.605 16.4628C103.879 15.945 104.076 15.582 104.195 15.3737C103.827 15.9192 103.529 16.3754 103.301 16.7423C103.07 17.0934 102.939 17.2709 102.907 17.2749C102.876 17.2788 102.982 17.0318 103.226 16.5339C103.471 16.036 103.905 15.184 104.529 13.9779C104.688 13.9582 104.904 14.0119 105.178 14.1392C105.468 14.2644 105.729 14.4174 105.961 14.5982C106.209 14.777 106.343 14.9538 106.365 15.1284C106.214 15.4697 105.965 15.9279 105.617 16.5031C105.267 17.0625 104.896 17.6407 104.502 18.2377C104.109 18.8347 103.771 19.3604 103.489 19.8146C103.546 19.7591 103.73 19.5508 104.04 19.1899C104.35 18.829 104.724 18.4036 105.163 17.9138C105.618 17.422 106.073 16.9302 106.528 16.4384C106.999 15.9446 107.415 15.5302 107.776 15.1951C108.138 14.86 108.373 14.6776 108.482 14.6479C108.561 14.6381 108.696 14.6858 108.887 14.7911C109.077 14.8965 109.272 15.0336 109.47 15.2024C109.666 15.3554 109.823 15.5133 109.94 15.6761C110.071 15.8211 110.117 15.9362 110.08 16.0215C109.988 16.1941 109.82 16.5294 109.576 17.0273C109.345 17.5074 109.091 18.0549 108.812 18.6699C108.55 19.2829 108.316 19.8682 108.111 20.4257C108.298 20.2412 108.543 19.9448 108.847 19.5362C109.165 19.1098 109.524 18.6219 109.923 18.0725C110.32 17.5072 110.734 16.9399 111.163 16.3707C111.59 15.7856 112.005 15.2343 112.408 14.7166C112.828 14.197 113.21 13.7706 113.556 13.4375L113.642 13.3542L113.722 13.2233C113.802 13.2135 113.93 13.2701 114.106 13.3933C114.283 13.5165 114.463 13.6715 114.648 13.8581C114.832 14.0448 114.975 14.2206 115.076 14.3854C115.193 14.5482 115.225 14.6733 115.171 14.7606C115.089 14.8835 114.929 15.1533 114.691 15.5699C114.453 15.9864 114.175 16.4804 113.859 17.0516C113.543 17.6229 113.236 18.2012 112.938 18.7864C112.654 19.3537 112.418 19.8586 112.231 20.301L114.051 18.7933C114.198 18.6783 114.199 18.6862 114.054 18.8171C113.909 18.9479 113.722 19.1244 113.491 19.3465C113.275 19.5507 113.11 19.7163 112.997 19.8432C112.955 19.8968 112.901 19.984 112.836 20.105C112.786 20.2241 112.782 20.2568 112.824 20.2033C113.05 19.9494 113.344 19.655 113.706 19.3199C114.083 18.9828 114.468 18.6448 114.861 18.3057C115.253 17.9508 115.609 17.6405 115.931 17.3748C115.649 17.5711 115.36 17.7762 115.064 17.9903C114.766 18.1885 114.472 18.4185 114.182 18.6802L114.573 18.3174C114.732 18.1687 114.951 17.9883 115.231 17.7761C115.509 17.5481 115.789 17.336 116.071 17.1398C116.351 16.9277 116.559 16.7889 116.696 16.7235L115.931 17.3748L117.119 16.6227C117.195 16.5811 117.255 16.5494 117.301 16.5276C117.347 16.5058 117.385 16.4929 117.417 16.489C117.576 16.4692 117.597 16.5715 117.479 16.7956C117.378 17.0178 117.216 17.2072 116.994 17.3638C116.636 17.6017 116.221 17.9595 115.748 18.4374C115.29 18.8975 114.806 19.417 114.297 19.9961C113.803 20.5573 113.324 21.1166 112.861 21.6739C112.412 22.2133 112.029 22.6962 111.711 23.1226C111.322 22.8484 111.102 22.5694 111.051 22.2856C111.015 21.9998 110.974 21.7309 110.926 21.4788C110.92 21.4311 110.983 21.2218 111.114 20.8508C111.063 20.696 111.044 20.5451 111.058 20.3983C111.045 20.1582 111.101 19.7722 111.229 19.2404C111.354 18.6928 111.543 18.0728 111.796 17.3804C112.047 16.6721 112.33 15.9678 112.646 15.2675C112.29 15.7793 111.894 16.3525 111.457 16.9872C111.02 17.6219 110.584 18.2645 110.149 18.9151C109.729 19.5637 109.36 20.1578 109.04 20.6973C108.72 21.2368 108.5 21.6752 108.381 22.0125C108.264 22.1077 108.149 22.1622 108.038 22.176C107.943 22.1878 107.835 22.1609 107.714 22.0953C107.601 22.0933 107.485 22.0029 107.366 21.8242C107.261 21.6276 107.167 21.3894 107.084 21.1095C107.09 21.1571 107.088 21.2137 107.081 21.2792C107.071 21.3288 107.069 21.3774 107.074 21.425L107.077 21.4488C107.062 21.4508 107.039 21.3972 107.009 21.288C106.979 21.1789 106.969 21.0915 106.977 21.026L107.001 20.6361L107.01 20.7076C107.017 20.7711 107.025 20.8346 107.033 20.8981C107.057 20.9596 107.074 21.0301 107.084 21.1095C107.122 20.6372 107.186 20.1133 107.275 19.5379C107.379 18.9446 107.48 18.392 107.577 17.88C107.691 17.3661 107.765 16.9861 107.799 16.7401C107.737 16.8928 107.654 17.1369 107.551 17.4722C107.463 17.8055 107.378 18.1547 107.294 18.5198C107.224 18.867 107.17 19.1399 107.13 19.3383C107.078 19.6995 107.046 19.9614 107.034 20.1241C107.02 20.271 107.008 20.4337 106.998 20.6123C106.966 20.3582 106.965 20.0278 106.996 19.621C107.042 19.2122 107.101 18.7856 107.175 18.3411C107.265 17.8947 107.352 17.4889 107.435 17.1238C107.519 16.7587 107.584 16.5008 107.629 16.35C107.421 16.6177 107.078 17.0392 106.601 17.6143C106.138 18.1716 105.629 18.8072 105.073 19.5212C104.53 20.2173 104.005 20.9194 103.496 21.6275C103.001 22.3177 102.602 22.9316 102.298 23.4692C102.359 23.4454 102.438 23.4276 102.533 23.4158C102.66 23.4 102.8 23.4229 102.953 23.4846C103.106 23.5462 103.19 23.6406 103.206 23.7676C103.219 23.8787 103.141 24.0255 102.97 24.208C102.801 24.4063 102.598 24.5847 102.359 24.7433C102.123 24.9178 101.918 25.0158 101.743 25.0375ZM117.949 22.4448C117.647 22.4823 117.357 22.486 117.08 22.456C116.778 22.4935 116.504 22.4952 116.258 22.4613C116.028 22.4254 115.882 22.1613 115.821 21.6691C115.797 21.4786 115.808 21.3079 115.854 21.1571C115.775 21.038 115.724 20.8831 115.7 20.6926C115.655 20.3274 115.745 19.9534 115.972 19.5705C116.304 18.8683 116.74 18.0322 117.281 17.0621C117.821 16.0921 118.42 15.0746 119.078 14.0094C119.734 12.9283 120.389 11.9038 121.042 10.9359C121.587 10.1267 121.972 9.53062 122.199 9.14779C122.441 8.76298 122.556 8.51501 122.542 8.40386C122.47 8.34823 122.414 8.2827 122.372 8.20725C122.346 8.12983 122.33 8.05937 122.322 7.99585C122.31 7.90059 122.308 7.82021 122.316 7.75473C122.322 7.67336 122.323 7.61681 122.319 7.58505L122.295 7.39451C122.284 7.29924 122.282 7.21887 122.29 7.15338C122.312 7.07005 122.378 7.02148 122.489 7.00768C122.521 7.00374 122.554 7.00773 122.588 7.01967C122.635 7.01375 122.684 7.01578 122.733 7.02574C122.948 7.06362 123.225 7.15812 123.567 7.30922C123.924 7.45836 124.236 7.63722 124.504 7.84582C124.772 8.05442 124.874 8.29166 124.81 8.55754C124.83 8.71632 124.771 8.89289 124.634 9.08727C124.497 9.28164 124.252 9.58607 123.901 10.0006C123.547 10.3992 123.058 11.0001 122.432 11.8033C121.542 12.9457 120.736 14.0534 120.015 15.1265C119.292 16.1836 118.547 17.3321 117.782 18.5718C117.921 18.3933 118.18 18.071 118.557 17.605C118.933 17.123 119.366 16.5856 119.856 15.9926C120.363 15.3976 120.879 14.8176 121.406 14.2524C121.948 13.6853 122.445 13.2044 122.895 12.8099C123.36 12.3975 123.74 12.1487 124.036 12.0636C124.354 12.0242 124.615 12.0482 124.819 12.1357C125.023 12.2232 125.153 12.4247 125.208 12.7403C125.417 12.8596 125.538 13.0541 125.571 13.3241C125.609 13.6258 125.549 13.9879 125.392 14.4105C125.25 14.8311 125.053 15.2507 124.798 15.6692C124.542 16.0718 124.287 16.4179 124.032 16.7075C124.018 16.7253 124.072 16.638 124.193 16.4456C124.314 16.2532 124.455 16.0182 124.614 15.7405C124.773 15.4628 124.915 15.1791 125.04 14.8895C125.165 14.5998 125.225 14.3667 125.219 14.19C125.124 14.4599 124.973 14.8011 124.766 15.2137C124.575 15.6243 124.373 16.0122 124.161 16.3771C123.964 16.7402 123.811 17.001 123.701 17.1597C123.318 17.7071 122.919 18.192 122.504 18.6144C122.087 19.0209 121.764 19.4076 121.535 19.7745C121.694 19.6258 121.903 19.4226 122.161 19.1648C122.417 18.8911 122.687 18.5996 122.971 18.2903C123.253 17.965 123.506 17.6596 123.728 17.374C123.72 17.4395 123.626 17.5883 123.445 17.8203C123.262 18.0365 123.037 18.2983 122.769 18.6057C122.514 18.8952 122.252 19.1857 121.982 19.4772C121.726 19.7509 121.505 19.9879 121.321 20.1882C121.134 20.3726 121.024 20.4588 120.99 20.4469C120.475 20.9783 119.991 21.4254 119.536 21.7882C119.081 22.151 118.552 22.3699 117.949 22.4448ZM116.592 21.6459C117.003 21.5788 117.444 21.4273 117.914 21.1915C118.399 20.9379 118.846 20.6485 119.257 20.3234C119.669 19.9983 119.985 19.6929 120.208 19.4073C120.681 18.8004 121.144 18.1141 121.597 17.3485C122.05 16.5828 122.448 15.832 122.792 15.096C123.136 14.36 123.365 13.7351 123.478 13.2211C123.254 13.3619 122.995 13.5472 122.701 13.7772C122.421 13.9893 122.15 14.2084 121.888 14.4344C121.642 14.6584 121.446 14.8359 121.301 14.9668C120.765 15.4525 120.259 15.9909 119.784 16.5819C119.326 17.171 118.905 17.7472 118.524 18.3105C118.158 18.8718 117.857 19.3687 117.621 19.8011C117.398 20.2157 117.266 20.5143 117.224 20.6968C117.206 20.8119 117.19 20.9429 117.176 21.0897C117.176 21.2187 117.073 21.296 116.866 21.3217C116.723 21.3394 116.561 21.3274 116.378 21.2855C116.328 21.2756 116.279 21.2656 116.229 21.2556C116.194 21.2278 116.151 21.2089 116.101 21.199C116.165 21.3201 116.235 21.4323 116.312 21.5355C116.404 21.6209 116.497 21.6577 116.592 21.6459ZM125.477 20.9055C125.203 20.9073 124.97 20.783 124.777 20.5328C124.583 20.2667 124.47 20.0067 124.439 19.7526C124.413 19.5462 124.484 19.2069 124.651 18.7347C124.834 18.2606 125.065 17.7239 125.346 17.1248C125.64 16.5079 125.944 15.9058 126.258 15.3186C126.586 14.7136 126.874 14.178 127.123 13.7118C127.387 13.2437 127.572 12.9144 127.677 12.724C127.494 12.9402 127.328 13.1543 127.177 13.3666C127.026 13.5788 126.934 13.6869 126.902 13.6908C126.887 13.6928 126.948 13.54 127.087 13.2325C127.24 12.9072 127.539 12.322 127.982 11.4769C128.141 11.4572 128.342 11.5209 128.586 11.668C128.83 11.815 129.053 11.9888 129.255 12.1894C129.458 12.3901 129.569 12.5697 129.588 12.7285C129.449 13.036 129.217 13.4357 128.891 13.9276C128.579 14.4017 128.245 14.8946 127.889 15.4063C127.55 15.916 127.245 16.3812 126.974 16.8017C127.016 16.7481 127.186 16.5577 127.484 16.2305C127.798 15.9014 128.182 15.4909 128.637 14.9991C129.092 14.5073 129.575 13.9877 130.088 13.4404C130.616 12.8911 131.117 12.3775 131.589 11.8996C132.06 11.4059 132.462 11.0093 132.796 10.7099C133.144 10.3926 133.365 10.2281 133.46 10.2163C133.555 10.2044 133.702 10.2829 133.901 10.4518C134.113 10.6028 134.312 10.7796 134.499 10.9822C134.685 11.1847 134.787 11.3575 134.805 11.5004C134.807 11.5163 134.704 11.666 134.498 11.9496C134.307 12.2313 134.062 12.5923 133.762 13.0326C133.475 13.4551 133.192 13.9014 132.912 14.3715C132.63 14.8257 132.392 15.2502 132.2 15.645C132.023 16.0378 131.953 16.3205 131.99 16.4932C131.828 16.4812 131.675 16.355 131.532 16.1148C131.388 15.8587 131.295 15.5639 131.253 15.2304C131.23 15.0399 131.257 14.8028 131.334 14.519C131.428 14.2333 131.53 13.9546 131.642 13.6828C131.769 13.409 131.876 13.17 131.964 12.9656C132.067 12.7593 132.118 12.6482 132.116 12.6324C132.034 12.7553 131.922 12.9547 131.779 13.2304C131.652 13.5042 131.524 13.778 131.397 14.0517C131.284 14.3076 131.21 14.4941 131.176 14.6112C131.2 14.4147 131.297 14.0884 131.466 13.632C131.635 13.1757 131.875 12.7106 132.187 12.2365C132.033 12.417 131.764 12.7244 131.383 13.1587C131.015 13.5751 130.593 14.0709 130.117 14.646C129.64 15.2212 129.142 15.8231 128.624 16.4518C128.119 17.0626 127.637 17.6625 127.178 18.2516C126.72 18.8406 126.334 19.3721 126.022 19.8462C125.724 20.3024 125.542 20.6555 125.477 20.9055ZM135.661 19.8102C135.312 19.8535 134.922 19.7649 134.492 19.5443C134.061 19.3236 133.68 19.0485 133.349 18.7188C133.034 18.3871 132.857 18.0704 132.82 17.7687C132.749 17.1971 132.84 16.5651 133.092 15.8727C133.359 15.1624 133.723 14.4562 134.184 13.7541C134.661 13.05 135.178 12.4133 135.736 11.8442C136.294 11.2751 136.845 10.8439 137.389 10.5507C137.54 10.4674 137.678 10.41 137.803 10.3783C137.928 10.3467 138.023 10.3269 138.086 10.319C138.277 10.2954 138.516 10.4027 138.803 10.6411C139.089 10.8636 139.354 11.1129 139.597 11.389C139.841 11.665 139.989 11.8805 140.041 12.0353C140.072 12.2893 139.96 12.6177 139.703 13.0203C139.461 13.4051 139.125 13.8177 138.696 14.2579C138.265 14.6822 137.791 15.0877 137.275 15.4742C136.775 15.8588 136.282 16.178 135.798 16.4316C135.311 16.6693 134.885 16.8029 134.518 16.8324C134.321 17.3244 134.241 17.7213 134.278 18.0229C134.298 18.1817 134.356 18.3197 134.451 18.4369C134.544 18.5382 134.709 18.5661 134.945 18.5206C135.31 18.3463 135.758 18.0569 136.288 17.6525C136.818 17.2481 137.383 16.799 137.983 16.3054C138.597 15.7938 139.196 15.3002 139.782 14.8244C140.382 14.3307 140.919 13.9174 141.394 13.5843C141.646 13.4079 141.835 13.3118 141.963 13.2961C142.074 13.2823 142.134 13.3151 142.144 13.3944C142.152 13.458 142.093 13.57 141.968 13.7307C141.859 13.8894 141.678 14.0569 141.426 14.2333C141.293 14.3305 141.146 14.4454 140.985 14.5783C140.824 14.7111 140.657 14.8608 140.485 15.0274C140.079 15.4001 139.648 15.8245 139.192 16.3004C138.751 16.7743 138.302 17.2493 137.845 17.7252C137.404 18.1991 136.989 18.6215 136.6 18.9923C136.226 19.3611 135.913 19.6338 135.661 19.8102ZM134.92 15.9843C135.375 15.7505 135.852 15.4413 136.353 15.0567C136.853 14.6721 137.32 14.2756 137.753 13.8671C138.184 13.4428 138.524 13.07 138.775 12.7487L138.879 12.6148C138.875 12.5831 138.787 12.6505 138.614 12.817L136.797 14.5421C136.783 14.56 136.76 14.5709 136.728 14.5748C136.712 14.5768 136.718 14.5599 136.746 14.5242C136.772 14.4726 136.822 14.4181 136.895 14.3606C137.185 14.0989 137.48 13.8123 137.78 13.501C138.078 13.1738 138.362 12.8645 138.632 12.5729C138.976 12.2239 139.144 12.0177 139.136 11.9542C138.77 11.9995 138.324 12.2323 137.795 12.6526C137.267 13.0729 136.742 13.5815 136.219 14.1785C135.713 14.7734 135.28 15.3754 134.92 15.9843ZM147.919 18.2882C147.569 18.3316 147.179 18.2429 146.749 18.0223C146.318 17.8016 145.938 17.5265 145.607 17.1968C145.291 16.8651 145.115 16.5484 145.077 16.2467C145.006 15.6751 145.097 15.0431 145.35 14.3507C145.616 13.6404 145.98 12.9342 146.441 12.2321C146.918 11.528 147.435 10.8913 147.994 10.3222C148.552 9.75312 149.103 9.32193 149.647 9.02866C149.798 8.94543 149.936 8.88799 150.061 8.85634C150.186 8.82469 150.28 8.80492 150.344 8.79704C150.534 8.77338 150.773 8.88074 151.061 9.11912C151.346 9.34163 151.611 9.59091 151.855 9.86696C152.099 10.143 152.246 10.3585 152.298 10.5133C152.329 10.7673 152.217 11.0957 151.961 11.4983C151.718 11.8832 151.383 12.2957 150.954 12.7359C150.523 13.1602 150.049 13.5657 149.533 13.9523C149.032 14.3368 148.54 14.656 148.055 14.9096C147.569 15.1473 147.142 15.2809 146.775 15.3104C146.578 15.8024 146.498 16.1993 146.536 16.5009C146.556 16.6597 146.613 16.7977 146.708 16.9149C146.801 17.0162 146.966 17.0441 147.202 16.9986C147.568 16.8243 148.015 16.5349 148.546 16.1305C149.076 15.7261 149.641 15.277 150.24 14.7834C150.854 14.2719 151.454 13.7782 152.04 13.3024C152.639 12.8087 153.177 12.3954 153.651 12.0624C153.903 11.8859 154.093 11.7898 154.22 11.7741C154.331 11.7603 154.392 11.7931 154.401 11.8725C154.409 11.936 154.351 12.048 154.226 12.2087C154.116 12.3674 153.936 12.5349 153.683 12.7113C153.55 12.8085 153.403 12.9234 153.242 13.0563C153.082 13.1891 152.915 13.3388 152.742 13.5054C152.337 13.8781 151.906 14.3025 151.449 14.7784C151.008 15.2524 150.559 15.7273 150.102 16.2032C149.661 16.6772 149.246 17.0995 148.857 17.4703C148.484 17.8391 148.171 18.1118 147.919 18.2882ZM147.178 14.4623C147.632 14.2285 148.11 13.9193 148.61 13.5347C149.111 13.1501 149.577 12.7536 150.01 12.3452C150.441 11.9208 150.782 11.548 151.032 11.2267L151.137 11.0928C151.133 11.0611 151.044 11.1285 150.871 11.295L149.054 13.0201C149.04 13.038 149.017 13.0489 148.986 13.0528C148.97 13.0548 148.976 13.0379 149.004 13.0022C149.029 12.9506 149.079 12.8961 149.153 12.8386C149.442 12.5769 149.737 12.2904 150.037 11.979C150.335 11.6518 150.619 11.3425 150.889 11.0509C151.233 10.7019 151.401 10.4957 151.393 10.4322C151.028 10.4775 150.581 10.7103 150.053 11.1306C149.525 11.5509 148.999 12.0595 148.477 12.6565C147.97 13.2514 147.537 13.8534 147.178 14.4623ZM157.618 17.761C157.316 17.7985 156.921 17.7347 156.433 17.5695C155.945 17.4044 155.475 17.1887 155.022 16.9224C154.586 16.6541 154.273 16.4028 154.082 16.1685C153.85 15.8587 153.721 15.5927 153.693 15.3704C153.677 15.2434 153.709 15.1749 153.789 15.1651C153.931 15.1473 154.159 15.2884 154.47 15.5883C154.599 15.7174 154.823 15.8347 155.142 15.9402C155.476 16.0278 155.839 16.0955 156.232 16.1435C156.64 16.1895 157.012 16.1917 157.345 16.1503C157.424 16.1405 157.488 16.1326 157.536 16.1267C157.599 16.1188 157.662 16.103 157.723 16.0792C157.662 15.716 157.457 15.3626 157.108 15.0189C156.757 14.6595 156.356 14.29 155.906 13.9106C155.472 13.5292 155.084 13.1339 154.743 12.7248C154.497 12.4329 154.353 12.1123 154.309 11.763C154.25 11.2866 154.384 10.8105 154.712 10.3344C155.04 9.8584 155.46 9.41123 155.973 8.9929C156.106 8.89577 156.239 8.79864 156.372 8.7015C156.505 8.60437 156.639 8.51517 156.774 8.43392C156.53 8.54485 156.287 8.67166 156.047 8.81436C155.807 8.95705 155.584 9.10571 155.377 9.26033L155.353 9.26329C155.337 9.26526 155.351 9.24741 155.395 9.20974C155.437 9.15619 155.472 9.11951 155.502 9.09969C156.086 8.60799 156.717 8.23938 157.396 7.99385C158.091 7.74635 158.708 7.58908 159.248 7.52205C159.375 7.50628 159.495 7.49943 159.609 7.50151C159.72 7.48771 159.824 7.48283 159.921 7.48688C159.971 7.49684 160.005 7.51672 160.025 7.5465C160.045 7.57629 160.015 7.59611 159.936 7.60597L160.359 7.69859C160.509 7.74436 160.662 7.935 160.817 8.27052C160.985 8.58819 161.11 8.87903 161.191 9.14304C161.205 9.12519 161.211 9.10833 161.209 9.09245C161.231 9.00911 161.239 8.94363 161.233 8.896C161.225 8.83248 161.225 8.76799 161.233 8.7025C161.245 8.66877 161.291 8.71942 161.373 8.85444C161.452 8.97357 161.526 9.11751 161.596 9.28626C161.679 9.43715 161.727 9.56817 161.741 9.67932C161.761 9.9671 161.696 10.2895 161.547 10.6466C161.398 11.0037 161.224 11.2913 161.025 11.5095C160.842 11.7257 160.673 11.787 160.516 11.6936C160.667 11.4814 160.774 11.2424 160.838 10.9765C160.55 11.5121 160.182 11.993 159.735 12.4193C159.303 12.8278 158.943 13.0498 158.657 13.0853C158.514 13.103 158.438 13.0722 158.428 12.9928C158.422 12.9452 158.446 12.8777 158.5 12.7904C158.569 12.7012 158.619 12.6467 158.649 12.6268C158.796 12.5118 158.974 12.3284 159.185 12.0766C159.394 11.8088 159.598 11.5093 159.799 11.1781C160 10.8468 160.17 10.5274 160.309 10.2199C160.464 9.91047 160.561 9.65652 160.601 9.4581C160.568 9.18817 160.36 9.07687 159.979 9.12419C159.757 9.15179 159.5 9.22402 159.208 9.34087C158.932 9.45574 158.65 9.58749 158.362 9.73609C157.801 10.0155 157.295 10.3604 156.846 10.7708C156.397 11.1812 156.199 11.5929 156.25 12.0057C156.27 12.1645 156.338 12.3253 156.455 12.4881C156.814 12.9111 157.183 13.349 157.561 13.8018C157.94 14.2546 158.266 14.6736 158.54 15.0588C158.811 15.4282 158.961 15.724 158.988 15.9463C159 16.0415 158.946 16.1854 158.824 16.3778C158.719 16.5682 158.582 16.7626 158.413 16.9609C158.262 17.1731 158.107 17.3536 157.948 17.5023C157.807 17.6649 157.697 17.7512 157.618 17.761Z" fill="black"/>
</svg>
