<svg width="121" height="48" viewBox="0 0 121 48" fill="none" xmlns="http://www.w3.org/2000/svg">
<path d="M3.81662 34.7099C3.678 33.5935 3.55393 32.4517 3.44442 31.2844C3.34653 30.1157 3.21885 28.9447 3.06138 27.7716C2.91409 26.5854 2.72172 25.4166 2.48429 24.2652C2.24685 23.1138 1.93089 21.9958 1.53642 20.9111C1.5292 20.853 1.54379 20.7803 1.5802 20.6931C1.61517 20.5943 1.66321 20.5057 1.72432 20.4273C1.78543 20.3488 1.85453 20.2871 1.9316 20.2421C2.01886 20.184 2.11117 20.1667 2.20854 20.19C2.36694 20.2294 2.50349 20.3305 2.61819 20.4934C2.74307 20.6432 2.84104 20.8141 2.91211 21.006C2.99481 21.1965 3.05352 21.3841 3.08825 21.5687C3.13317 21.7402 3.16069 21.8667 3.1708 21.9481L9.67886 19.4396C9.78641 19.4498 9.87576 19.5037 9.9469 19.6011C10.0282 19.6855 10.071 19.7924 10.0753 19.9217C10.0897 20.038 10.0635 20.1594 9.99649 20.2858C9.94115 20.4107 9.84078 20.5059 9.69538 20.5711L3.30714 23.1888C3.401 23.9447 3.51158 24.6927 3.63889 25.4326C3.77782 26.1711 3.92402 26.9205 4.07747 27.6809L8.71684 25.3866C8.71684 25.3866 8.7474 25.3474 8.80851 25.269C8.86962 25.1905 8.94381 25.1223 9.03107 25.0642C9.12996 25.0047 9.23246 24.9742 9.33857 24.9729C9.4563 24.9701 9.57761 25.0436 9.7025 25.1934C9.73138 25.426 9.61854 25.6584 9.36398 25.8908C9.10798 26.1115 8.78075 26.3293 8.38231 26.5441C7.9955 26.7574 7.56726 26.97 7.09759 27.1819C6.63811 27.3806 6.20843 27.5816 5.80854 27.7848C5.42028 27.9865 5.09671 28.1861 4.83782 28.3835C4.57748 28.5694 4.45815 28.7495 4.47981 28.924L4.92736 33.5269C5.1148 33.6099 5.36917 33.6138 5.69046 33.5385C6.02194 33.4501 6.38397 33.3225 6.77656 33.1556C7.16915 32.9888 7.58211 32.7958 8.01544 32.5767C8.44733 32.3459 8.86322 32.129 9.26311 31.9258C9.663 31.7226 10.0302 31.5412 10.3646 31.3816C10.7107 31.2206 10.9935 31.1205 11.213 31.0814C11.3191 31.0801 11.4172 31.1092 11.5073 31.1689C11.5959 31.2169 11.6627 31.2795 11.7077 31.3566C11.7527 31.4336 11.7635 31.5208 11.7402 31.6182C11.727 31.7025 11.6601 31.7817 11.5394 31.8557C11.1104 32.1097 10.5912 32.3985 9.98195 32.7222C9.37266 33.0458 8.73938 33.3665 8.08213 33.6843C7.43506 33.989 6.80254 34.2683 6.18458 34.5222C5.56518 34.7644 5.03668 34.9304 4.5991 35.0202C4.4334 35.0171 4.29533 34.9989 4.18489 34.9653C4.08463 34.9187 3.96188 34.8336 3.81662 34.7099ZM11.7797 23.235C11.8452 23.1914 11.923 23.1523 12.0131 23.1175C12.1033 23.0826 12.1891 23.0602 12.2705 23.0501C12.3635 23.0385 12.4529 23.0451 12.5386 23.0699C12.6244 23.0947 12.6963 23.1507 12.7543 23.238C12.8482 23.9939 12.9558 24.813 13.0772 25.6954C13.2087 26.5648 13.3425 27.4515 13.4784 28.3557C13.6244 29.2469 13.7633 30.1271 13.8948 30.9964C14.0264 31.8657 14.15 32.6711 14.2657 33.4125C14.299 33.5855 14.2691 33.725 14.1759 33.831C14.0828 33.9371 13.9723 33.998 13.8444 34.0139C13.7281 34.0283 13.6118 33.9955 13.4956 33.9155C13.3808 33.8471 13.3119 33.7199 13.2888 33.5338L11.7797 23.235ZM11.1285 19.7024C11.1098 19.5512 11.1498 19.4459 11.2487 19.3863C11.3462 19.3152 11.4588 19.2717 11.5868 19.2558C11.8426 19.224 12.0104 19.2918 12.0903 19.459C12.1802 19.6131 12.239 19.8007 12.2664 20.0216C12.2139 20.1699 12.1332 20.2803 12.0241 20.3528C11.915 20.4254 11.7944 20.4522 11.6621 20.4332C11.5415 20.4128 11.4267 20.3444 11.3178 20.228C11.2205 20.1102 11.1574 19.935 11.1285 19.7024ZM13.5535 19.1179C13.6175 19.0627 13.6815 19.0075 13.7455 18.9523C13.8197 18.8841 13.8968 18.8391 13.9767 18.8173C14.0553 18.784 14.1258 18.7811 14.1882 18.8088C14.2623 18.835 14.3299 18.9034 14.3908 19.0139L16.2825 33.3923C16.2388 33.5158 16.1726 33.6008 16.0839 33.6473C15.9966 33.7053 15.905 33.7285 15.8091 33.7168C15.7146 33.7167 15.623 33.6927 15.5344 33.6446C15.4574 33.5952 15.4022 33.5312 15.3689 33.4526L13.5535 19.1179ZM21.2932 32.9473L16.3485 24.6516C16.2381 24.5236 16.1975 24.3869 16.2267 24.2416C16.2545 24.0846 16.3214 23.9582 16.4276 23.8624C16.5338 23.7665 16.6639 23.7208 16.818 23.7253C16.9823 23.7167 17.1392 23.7917 17.2888 23.9503L21.4515 31.2272L21.8927 22.369C21.9581 22.3254 22.0359 22.2862 22.1261 22.2514C22.2278 22.2152 22.326 22.1971 22.4204 22.1972C22.5266 22.1958 22.6239 22.2191 22.7126 22.2672C22.8012 22.3152 22.8651 22.4017 22.9042 22.5268C22.9038 22.9992 22.8902 23.6031 22.8635 24.3386C22.8367 25.074 22.8012 25.8342 22.757 26.6191C22.7113 27.3923 22.662 28.1365 22.6091 28.8516C22.5663 29.5536 22.5353 30.1125 22.5161 30.5282C22.4999 30.7782 22.4829 31.1168 22.4651 31.5441C22.4459 31.9598 22.4201 32.4177 22.3877 32.9177C22.3669 33.4162 22.3367 33.9336 22.297 34.47C22.2704 35.0165 22.2409 35.5397 22.2085 36.0397C22.1878 36.5382 22.1554 36.991 22.1115 37.398C22.0806 37.8151 22.0513 38.1494 22.0235 38.4008C22.0175 38.5433 21.9607 38.6566 21.8531 38.7408C21.7455 38.825 21.6212 38.87 21.4802 38.8757C21.3392 38.8814 21.1997 38.8515 21.0616 38.7859C20.9352 38.719 20.8568 38.6106 20.8264 38.4609L21.2932 32.9473ZM23.4365 22.1064C23.4337 21.9887 23.4687 21.8899 23.5414 21.81C23.6142 21.7301 23.7022 21.6778 23.8054 21.6532C23.9072 21.617 24.0133 21.6156 24.1237 21.6491C24.2327 21.671 24.3271 21.7183 24.407 21.7911L25.2211 28.7752C25.3381 27.9105 25.4333 27.0602 25.5066 26.2245C25.5902 25.3757 25.7245 24.6033 25.9097 23.9072C26.0934 23.1995 26.3621 22.6052 26.7157 22.1244C27.0679 21.6319 27.5776 21.3147 28.2449 21.1728C28.601 21.0932 28.9288 21.1647 29.228 21.3873C29.5258 21.5983 29.7945 21.9074 30.034 22.3146C30.2851 22.7203 30.5107 23.206 30.7108 23.7716C30.9095 24.3255 31.0827 24.9122 31.2305 25.5315C31.3884 26.1378 31.5238 26.7527 31.6367 27.3764C31.7496 28 31.845 28.5786 31.9231 29.1121C32.0011 29.6456 32.0596 30.1166 32.0985 30.5251C32.1491 30.9321 32.1801 31.2294 32.1915 31.4169C32.1347 31.6247 32.0052 31.7707 31.8031 31.8548C31.6141 31.9492 31.4237 31.8901 31.232 31.6778C31.1929 31.4583 31.1402 31.081 31.0738 30.5461C31.0059 29.9995 30.917 29.3787 30.8071 28.6839C30.7088 27.9875 30.5837 27.265 30.4317 26.5163C30.2899 25.7546 30.1153 25.0618 29.9079 24.4381C29.7108 23.8013 29.475 23.2815 29.2006 22.8786C28.9364 22.4627 28.6321 22.2466 28.2876 22.2303C27.9911 22.2199 27.7257 22.4123 27.4913 22.8074C27.2686 23.2012 27.0662 23.7105 26.884 24.3353C26.7134 24.9588 26.5638 25.6563 26.4353 26.428C26.3184 27.1983 26.2175 27.9548 26.1325 28.6975C26.0593 29.4387 26.002 30.1189 25.9608 30.7381C25.9196 31.3573 25.9018 31.8318 25.9073 32.1618C25.884 32.2592 25.8236 32.3434 25.7261 32.4146C25.6287 32.4857 25.516 32.5292 25.3881 32.5451C25.2732 32.5712 25.149 32.5689 25.0153 32.5383C24.8932 32.5062 24.7951 32.4298 24.7211 32.3091L23.4365 22.1064ZM49.8394 25.4704C49.5527 25.9193 49.1984 26.3943 48.7764 26.8955C48.3545 27.3966 47.8926 27.8613 47.3908 28.2897C46.889 28.7181 46.3669 29.0782 45.8244 29.3699C45.282 29.6616 44.7543 29.8334 44.2411 29.8853C43.7265 29.9256 43.2353 29.8213 42.7675 29.5723C42.3099 29.3103 41.9142 28.834 41.5804 28.1433C41.3657 27.6503 41.2332 27.0586 41.1829 26.3682C41.1442 25.6762 41.171 24.9408 41.2632 24.1618C41.3656 23.3697 41.5312 22.5638 41.7601 21.7442C41.9991 20.9115 42.2956 20.1131 42.6494 19.3488C43.0149 18.5831 43.4341 17.8697 43.907 17.2088C44.3901 16.5347 44.9168 15.9734 45.4869 15.5247C46.0673 15.0629 46.6933 14.7313 47.365 14.5298C48.0352 14.3167 48.746 14.2875 49.4974 14.4422C49.5904 14.4306 49.6515 14.4467 49.6805 14.4903C49.7081 14.5223 49.7204 14.5739 49.7174 14.6451C49.7145 14.7164 49.702 14.8065 49.6801 14.9155C49.6699 15.023 49.6734 15.1466 49.6907 15.2861C48.8274 15.2752 48.0292 15.457 47.2963 15.8314C46.562 16.1942 45.8973 16.69 45.3023 17.3189C44.7189 17.9464 44.2125 18.6706 43.7831 19.4914C43.3536 20.3123 43.0113 21.1696 42.7562 22.0634C42.5127 22.9556 42.3645 23.8538 42.3114 24.7578C42.2569 25.6503 42.3078 26.4883 42.4641 27.2719C42.5944 27.9406 42.8492 28.3754 43.2284 28.5763C43.6061 28.7656 44.0407 28.7943 44.5321 28.6624C45.0337 28.5175 45.5608 28.2453 46.1135 27.8461C46.6647 27.4352 47.184 26.9574 47.6714 26.4127C48.169 25.855 48.5975 25.2645 48.957 24.6412C49.3282 24.0165 49.5729 23.4193 49.6911 22.8496L46.5511 23.2395C46.3464 23.0169 46.3058 22.833 46.4295 22.6877C46.5532 22.5425 46.7807 22.4257 47.1122 22.3373C47.4539 22.2358 47.8631 22.1555 48.3399 22.0963C48.8167 22.0371 49.3066 21.988 49.8096 21.9492C49.9564 21.8956 50.1571 21.7998 50.4116 21.6619C50.6646 21.5124 50.9089 21.3876 51.1444 21.2875C51.38 21.1874 51.5697 21.1461 51.7136 21.1637C51.8691 21.1798 51.9097 21.3165 51.8354 21.5737C51.8266 21.5984 51.791 21.6441 51.7284 21.711C51.6644 21.7661 51.5895 21.8286 51.5037 21.8983C51.4281 21.9549 51.3524 22.0115 51.2768 22.0682C51.2128 22.1233 51.1699 22.1582 51.1481 22.1727C50.9368 22.7539 50.8186 23.4181 50.7932 24.1652C50.7679 24.9123 50.7985 25.682 50.8851 26.4742C50.9717 27.2665 51.0924 28.0486 51.2473 28.8205C51.4138 29.591 51.5826 30.2845 51.7536 30.9009L51.1189 31.21C50.9809 31.05 50.8402 30.725 50.6967 30.2351C50.5648 29.7437 50.4381 29.1985 50.3165 28.5995C50.1949 28.0006 50.0929 27.4169 50.0105 26.8485C49.9267 26.2685 49.8696 25.8091 49.8394 25.4704ZM52.3374 18.199C52.4029 18.1554 52.4807 18.1163 52.5708 18.0814C52.661 18.0466 52.7467 18.0242 52.8281 18.0141C52.9212 18.0025 53.0106 18.0091 53.0963 18.0339C53.182 18.0587 53.2539 18.1147 53.312 18.202C53.4059 18.9579 53.5135 19.777 53.6349 20.6594C53.7664 21.5287 53.9002 22.4155 54.036 23.3197C54.1821 24.2109 54.3209 25.0911 54.4525 25.9604C54.5841 26.8297 54.7077 27.6351 54.8234 28.3765C54.8566 28.5495 54.8267 28.689 54.7336 28.795C54.6405 28.9011 54.53 28.962 54.4021 28.9779C54.2858 28.9923 54.1695 28.9595 54.0533 28.8795C53.9385 28.8111 53.8696 28.6838 53.8465 28.4978L52.3374 18.199ZM51.6862 14.6664C51.6674 14.5152 51.7075 14.4098 51.8064 14.3503C51.9038 14.2792 52.0165 14.2357 52.1444 14.2198C52.4003 14.188 52.5681 14.2557 52.6479 14.423C52.7379 14.5771 52.7966 14.7647 52.8241 14.9856C52.7716 15.1338 52.6909 15.2442 52.5818 15.3168C52.4727 15.3894 52.3521 15.4162 52.2198 15.3972C52.0992 15.3768 51.9844 15.3083 51.8755 15.192C51.7782 15.0742 51.7151 14.899 51.6862 14.6664ZM54.3476 18.2682C54.3448 18.1505 54.3798 18.0517 54.4525 17.9718C54.5252 17.8919 54.6132 17.8396 54.7164 17.815C54.8182 17.7788 54.9243 17.7774 55.0348 17.8109C55.1438 17.8328 55.2382 17.8801 55.3181 17.9529L56.1322 24.937C56.2492 24.0723 56.3443 23.222 56.4177 22.3863C56.5012 21.5375 56.6356 20.7651 56.8208 20.069C57.0045 19.3613 57.2732 18.767 57.6268 18.2862C57.9789 17.7937 58.4886 17.4765 59.1559 17.3346C59.5121 17.255 59.8398 17.3265 60.1391 17.5491C60.4369 17.7601 60.7055 18.0692 60.945 18.4764C61.1961 18.8821 61.4218 19.3678 61.6219 19.9334C61.8206 20.4873 61.9938 21.074 62.1415 21.6933C62.2995 22.2996 62.4349 22.9145 62.5478 23.5382C62.6606 24.1618 62.7561 24.7404 62.8341 25.2739C62.9122 25.8074 62.9707 26.2784 63.0096 26.6869C63.0601 27.0939 63.0911 27.3912 63.1026 27.5787C63.0457 27.7865 62.9163 27.9325 62.7141 28.0166C62.5251 28.111 62.3347 28.0519 62.1431 27.8396C62.104 27.6201 62.0512 27.2428 61.9848 26.7079C61.917 26.1613 61.8281 25.5406 61.7182 24.8457C61.6199 24.1494 61.4948 23.4268 61.3427 22.6781C61.2009 21.9164 61.0263 21.2236 60.819 20.5999C60.6218 19.9631 60.3861 19.4433 60.1117 19.0404C59.8475 18.6245 59.5431 18.4084 59.1987 18.3921C58.9021 18.3817 58.6367 18.5741 58.4024 18.9692C58.1797 19.363 57.9772 19.8723 57.795 20.4971C57.6244 21.1206 57.4749 21.8181 57.3463 22.5898C57.2294 23.3601 57.1285 24.1166 57.0436 24.8593C56.9703 25.6005 56.9131 26.2807 56.8719 26.8999C56.8307 27.5191 56.8128 27.9936 56.8184 28.3236C56.795 28.421 56.7346 28.5052 56.6372 28.5764C56.5398 28.6475 56.4271 28.691 56.2991 28.7069C56.1843 28.733 56.06 28.7307 55.9263 28.7001C55.8043 28.668 55.7062 28.5916 55.6322 28.4709L54.3476 18.2682ZM65.9394 27.315C65.467 27.3147 65.0601 27.1762 64.7188 26.8998C64.389 26.6219 64.1088 26.267 63.878 25.8351C63.6473 25.4032 63.4696 24.9234 63.345 24.3957C63.2307 23.8549 63.1526 23.3214 63.1109 22.7952C63.0461 21.9884 63.0962 21.2028 63.2611 20.4384C63.4376 19.6725 63.6845 18.9983 64.0018 18.4157C64.3294 17.82 64.7077 17.3479 65.1368 16.9994C65.576 16.6378 66.0268 16.4638 66.489 16.4772C66.9744 16.4878 67.3864 16.6669 67.7248 17.0146C68.0748 17.3608 68.3658 17.8029 68.598 18.3409C68.8301 18.8789 69.0048 19.4772 69.122 20.1357C69.2377 20.7827 69.3099 21.4114 69.3384 22.0219C69.3655 22.7152 69.2937 23.3736 69.1232 23.9971C68.9526 24.6205 68.7079 25.1704 68.3892 25.6469C68.0821 26.122 67.7112 26.5105 67.2763 26.8125C66.8517 27.1014 66.406 27.2689 65.9394 27.315ZM66.438 17.4932C66.0484 17.4943 65.7031 17.6612 65.4019 17.9938C65.111 18.3134 64.8613 18.7281 64.6531 19.2382C64.455 19.7351 64.3063 20.2968 64.2069 20.9232C64.1061 21.5379 64.0627 22.1397 64.0768 22.7284C64.0823 23.1528 64.1183 23.5852 64.1848 24.0257C64.2513 24.4662 64.3534 24.8609 64.4912 25.2099C64.6406 25.5574 64.8345 25.8344 65.0727 26.041C65.3211 26.2346 65.6255 26.3089 65.986 26.2642C66.2782 26.2397 66.5683 26.1033 66.8563 25.855C67.1559 25.6052 67.4236 25.2886 67.6594 24.905C67.8938 24.5099 68.0875 24.0725 68.2405 23.593C68.4051 23.112 68.4927 22.6288 68.5033 22.1433C68.5226 21.6331 68.4765 21.1193 68.365 20.6017C68.2637 20.0711 68.1151 19.5877 67.9192 19.1514C67.735 18.7138 67.5122 18.3459 67.2508 18.0477C66.9996 17.7364 66.7286 17.5516 66.438 17.4932ZM70.7076 22.0644C70.6349 22.1443 70.4931 22.1914 70.2824 22.2058C70.0818 22.2071 69.8899 22.1837 69.7068 22.1356C69.5353 22.086 69.4133 22.0067 69.3407 21.8976C69.2667 21.7769 69.3184 21.6229 69.4959 21.4355C69.5686 21.3556 69.6501 21.2983 69.7402 21.2635C69.8406 21.2156 69.9358 21.1742 70.026 21.1394C70.1263 21.0915 70.2019 21.0349 70.2528 20.9695C70.3154 20.9027 70.3446 20.8046 70.3403 20.6753C70.2869 20.1505 70.2612 19.6105 70.2631 19.0552C70.2767 18.4986 70.3614 17.9921 70.5173 17.5358C70.6732 17.0795 70.9271 16.6996 71.2791 16.3961C71.6428 16.0912 72.148 15.9281 72.7949 15.9068C73.0274 15.8779 73.2963 15.9036 73.6015 15.9838C73.9052 16.0523 74.2024 16.163 74.493 16.3159C74.7821 16.4571 75.0414 16.6434 75.2709 16.8747C75.4989 17.0944 75.6542 17.3467 75.7369 17.6316C75.8327 17.7378 75.8042 17.889 75.6514 18.0851C75.4987 18.2812 75.279 18.5092 74.9924 18.7691C74.7044 19.0175 74.3765 19.2766 74.0085 19.5467C73.6405 19.8168 73.2827 20.0737 72.9351 20.3176C72.5992 20.5601 72.301 20.7743 72.0407 20.9601C71.7804 21.1459 71.6131 21.273 71.5389 21.3412C71.665 21.7861 71.7998 22.2536 71.9433 22.7435C72.0868 23.2335 72.2601 23.6784 72.4633 24.0783C72.6665 24.4782 72.8959 24.8039 73.1515 25.0556C73.4173 25.2942 73.7246 25.3918 74.0735 25.3485C74.5895 25.3199 75.0163 25.1901 75.3537 24.9593C75.7027 24.727 75.9806 24.4445 76.1872 24.1118C76.3939 23.7792 76.5446 23.4239 76.6394 23.0461C76.7458 22.6668 76.8137 22.31 76.8431 21.9757C76.884 21.64 76.9024 21.3602 76.8983 21.1363C76.9043 20.8994 76.9175 20.7679 76.9378 20.7417C77.0571 20.6561 77.2025 20.638 77.3739 20.6876C77.544 20.7255 77.6579 20.8826 77.7159 21.1588C77.7838 21.6109 77.7492 22.1407 77.6121 22.7481C77.475 23.3556 77.2506 23.9267 76.9391 24.4613C76.6393 24.9945 76.2523 25.4441 75.7781 25.81C75.3142 26.1628 74.7915 26.3281 74.2101 26.3058C73.6155 26.3678 73.1236 26.2577 72.7343 25.9754C72.3435 25.6814 72.0146 25.3149 71.7475 24.8757C71.4906 24.4234 71.2832 23.9414 71.1251 23.4296C70.9671 22.9179 70.828 22.4628 70.7076 22.0644ZM74.8123 17.7464C74.3766 17.2809 73.9582 17.0023 73.5571 16.9104C73.156 16.8184 72.7556 16.8268 72.3558 16.9355C72.1159 17.0007 71.9152 17.1438 71.7537 17.3646C71.5907 17.5737 71.4698 17.8367 71.3911 18.1535C71.3109 18.4587 71.2706 18.8003 71.2703 19.1782C71.2686 19.5445 71.309 19.9173 71.3915 20.2968L74.8123 17.7464ZM86.4383 11.662C86.3556 11.4715 86.2874 11.3029 86.2337 11.156C86.1903 10.9961 86.1686 10.8216 86.1688 10.6327C86.1732 10.5731 86.1769 10.5077 86.1798 10.4365C86.1944 10.3638 86.217 10.3079 86.2476 10.2686C86.2883 10.2163 86.3428 10.1801 86.4112 10.1598C86.4781 10.1278 86.5725 10.1279 86.6946 10.16C86.7687 10.1862 86.8464 10.2415 86.9278 10.3259C87.0076 10.3986 87.0781 10.4903 87.139 10.6008C87.2116 10.7099 87.2718 10.8146 87.3197 10.9149C87.3676 11.0152 87.4017 11.0996 87.422 11.1679C87.7129 10.9428 88.0387 10.7134 88.3993 10.4797C88.7586 10.2344 89.1337 10.0224 89.5249 9.84399C89.9262 9.65245 90.3326 9.50161 90.744 9.39148C91.154 9.26972 91.5538 9.20827 91.9434 9.20714C92.0727 9.20288 92.2224 9.21972 92.3925 9.25765C92.5727 9.28251 92.7383 9.33279 92.8894 9.4085C93.0507 9.47113 93.1858 9.56063 93.2948 9.67701C93.4139 9.7803 93.4719 9.9148 93.4689 10.0805C93.5078 10.3945 93.4785 10.7288 93.3808 11.0834C93.2948 11.4365 93.168 11.7947 93.0006 12.1579C92.8331 12.5212 92.6359 12.8822 92.4088 13.2411C92.1934 13.5985 91.9758 13.9384 91.7561 14.2609C91.5465 14.5703 91.3457 14.8551 91.1536 15.1151C90.9615 15.3751 90.8167 15.5879 90.7192 15.7536C91.0958 15.5533 91.5451 15.3676 92.0671 15.1965C92.5876 15.0138 93.1059 14.9081 93.6219 14.8795C94.1496 14.8494 94.6306 14.9195 95.0651 15.09C95.5112 15.2589 95.8351 15.5848 96.0367 16.0675C96.1091 16.3656 96.0936 16.7158 95.9901 17.1184C95.8851 17.5093 95.7183 17.9256 95.4898 18.3673C95.2612 18.809 94.981 19.263 94.6492 19.7293C94.3276 20.1825 93.9813 20.627 93.6103 21.0628C93.2509 21.4971 92.8821 21.9031 92.5039 22.2807C92.1257 22.6583 91.7715 22.9916 91.4413 23.2806C91.1213 23.5565 90.8355 23.775 90.5839 23.9361C90.3308 24.0856 90.1447 24.156 90.0256 24.1472L89.5203 23.5014C89.5798 23.5058 89.7544 23.3896 90.0438 23.153C90.3318 22.9046 90.6707 22.5909 91.0606 22.2119C91.4606 21.8198 91.8847 21.3833 92.3328 20.9026C92.7794 20.4102 93.1912 19.9221 93.568 19.4384C93.9565 18.9533 94.2774 18.4942 94.5307 18.0613C94.7825 17.6167 94.9129 17.2403 94.9219 16.9322C94.9295 16.5179 94.7829 16.2409 94.4821 16.1011C94.1915 15.9483 93.8137 15.9007 93.3485 15.9585C92.8833 16.0163 92.3759 16.1619 91.8263 16.3955C91.2752 16.6174 90.7597 16.8881 90.2798 17.2075C89.7984 17.5152 89.3861 17.8557 89.0427 18.229C88.6994 18.6023 88.5029 18.9692 88.4531 19.3296C88.4514 19.6959 88.4685 20.0716 88.5045 20.4568C88.5406 20.8421 88.5773 21.2331 88.6148 21.6299C88.6624 22.0137 88.7043 22.3982 88.7403 22.7834C88.7879 23.1672 88.8102 23.5364 88.807 23.8911C88.8039 24.1512 88.7775 24.3671 88.728 24.5385C88.69 24.7086 88.5286 24.7877 88.2437 24.7758C88.2205 24.7787 88.1791 24.7779 88.1195 24.7735C88.0599 24.7691 88.0294 24.7611 88.0279 24.7495L86.4383 11.662ZM87.6713 12.8905C87.6653 13.1274 87.6731 13.4276 87.6946 13.791C87.7277 14.153 87.7681 14.5258 87.8158 14.9096C87.8634 15.2934 87.9212 15.6641 87.9893 16.0217C88.0689 16.3779 88.153 16.6745 88.2415 16.9115C88.4291 16.711 88.6837 16.4314 89.0052 16.0727C89.3384 15.7125 89.6847 15.3152 90.044 14.8809C90.4136 14.4335 90.7694 13.9701 91.1113 13.4907C91.4533 13.0114 91.7277 12.5581 91.9344 12.1309C92.1514 11.6907 92.2745 11.3034 92.3039 10.9691C92.3318 10.6232 92.2171 10.3658 91.96 10.197C91.7478 10.1997 91.4919 10.2315 91.1925 10.2923C90.9032 10.34 90.6 10.419 90.2831 10.5292C89.9647 10.6278 89.6499 10.7555 89.3387 10.9122C89.0275 11.0689 88.749 11.2511 88.5032 11.4588C88.2559 11.6548 88.053 11.8748 87.8943 12.1189C87.7473 12.3615 87.673 12.6187 87.6713 12.8905ZM97.7948 23.0939C97.5607 21.4934 97.3626 20.1363 97.2008 19.0228C97.0389 17.9092 96.9066 16.9869 96.804 16.2557C96.7014 15.5244 96.619 14.956 96.5569 14.5505C96.5049 14.1318 96.4608 13.8243 96.4246 13.6281C96.4001 13.4304 96.3856 13.3141 96.3813 13.2792C96.3755 13.2327 96.3719 13.2036 96.3705 13.192C96.3691 13.0859 96.4106 12.9922 96.495 12.9108C96.5793 12.8295 96.6731 12.7765 96.7764 12.7519C96.8898 12.7142 97.0017 12.7121 97.1121 12.7456C97.2226 12.7792 97.3076 12.8454 97.3671 12.9442L97.9176 16.9499C97.9924 16.1258 98.1885 15.4225 98.5058 14.8399C98.8348 14.2558 99.2247 13.7823 99.6756 13.4193C100.125 13.0446 100.606 12.7783 101.117 12.6203C101.641 12.4608 102.134 12.3936 102.598 12.4187C102.754 12.4348 102.872 12.4851 102.953 12.5694C103.046 12.6524 103.1 12.752 103.114 12.8683C103.139 12.9715 103.123 13.0798 103.066 13.1931C103.02 13.2934 102.947 13.3732 102.848 13.4328C102.32 13.4628 101.832 13.5707 101.383 13.7564C100.943 13.929 100.547 14.1613 100.194 14.4531C99.8504 14.7319 99.5536 15.0522 99.3033 15.4139C99.0647 15.7742 98.8863 16.1447 98.7683 16.5254C98.589 17.0791 98.489 17.6524 98.4681 18.2455C98.4575 18.8254 98.4759 19.4017 98.5234 19.9745C98.5825 20.5458 98.6497 21.0865 98.7249 21.5968C98.8117 22.1056 98.8731 22.5526 98.9091 22.9378C98.9133 23.0672 98.8675 23.1733 98.7715 23.256C98.6856 23.3257 98.5788 23.3685 98.4509 23.3844C98.336 23.4105 98.211 23.4024 98.0759 23.3601C97.9509 23.3048 97.8572 23.216 97.7948 23.0939ZM103.78 11.8114C103.846 11.7678 103.923 11.7286 104.014 11.6938C104.104 11.659 104.19 11.6366 104.271 11.6265C104.364 11.6149 104.453 11.6215 104.539 11.6463C104.625 11.6711 104.697 11.7271 104.755 11.8144C104.849 12.5703 104.956 13.3894 105.078 14.2718C105.209 15.1411 105.343 16.0279 105.479 16.9321C105.625 17.8232 105.764 18.7035 105.895 19.5728C106.027 20.4421 106.151 21.2475 106.266 21.9889C106.299 22.1619 106.27 22.3014 106.176 22.4074C106.083 22.5134 105.973 22.5744 105.845 22.5903C105.729 22.6047 105.612 22.5719 105.496 22.4919C105.381 22.4235 105.312 22.2962 105.289 22.1102L103.78 11.8114ZM103.129 8.27876C103.11 8.12758 103.15 8.02223 103.249 7.96271C103.347 7.89157 103.459 7.84806 103.587 7.83217C103.843 7.8004 104.011 7.86813 104.091 8.03535C104.181 8.1895 104.239 8.37705 104.267 8.59801C104.214 8.74623 104.134 8.85663 104.025 8.92922C103.916 9.00181 103.795 9.0286 103.663 9.0096C103.542 8.98915 103.427 8.92074 103.318 8.80437C103.221 8.68655 103.158 8.51135 103.129 8.27876ZM107.797 13.7748L106.259 14.5148C106.127 14.4958 106.014 14.4448 105.921 14.3619C105.817 14.2804 105.741 14.1895 105.693 14.0892C105.645 13.9888 105.627 13.8907 105.638 13.7948C105.639 13.7003 105.676 13.6248 105.752 13.5681L107.647 12.5711L107 7.63874C107.016 7.48322 107.078 7.36336 107.185 7.27914C107.293 7.19492 107.406 7.15141 107.523 7.1486C107.651 7.13272 107.773 7.15898 107.887 7.22739C108.001 7.28417 108.082 7.36854 108.131 7.4805C108.153 7.8439 108.183 8.22984 108.222 8.63832C108.259 9.03516 108.298 9.43782 108.337 9.84629C108.386 10.2417 108.44 10.6306 108.499 11.0129C108.557 11.3836 108.623 11.7238 108.697 12.0334L111.264 10.5987C111.421 10.532 111.551 10.5335 111.654 10.6034C111.756 10.6616 111.826 10.7532 111.866 10.8783C111.915 10.9902 111.924 11.1073 111.891 11.2293C111.859 11.3514 111.788 11.4429 111.678 11.5039L108.846 13.2371C108.861 13.3534 108.901 13.6318 108.968 14.0722C109.033 14.5011 109.108 15.0113 109.193 15.603C109.278 16.1946 109.369 16.827 109.464 17.5001C109.559 18.1731 109.644 18.8062 109.718 19.3993C109.803 19.991 109.873 20.5078 109.928 20.9497C109.993 21.3785 110.033 21.6511 110.047 21.7674C110.071 22.154 109.985 22.3597 109.787 22.3842C109.589 22.4087 109.363 22.3424 109.107 22.1852L107.797 13.7748ZM114.207 21.3216C113.735 21.3213 113.328 21.1828 112.987 20.9064C112.657 20.6285 112.377 20.2736 112.146 19.8417C111.915 19.4098 111.738 18.93 111.613 18.4023C111.499 17.8615 111.421 17.328 111.379 16.8018C111.314 15.995 111.364 15.2094 111.529 14.445C111.706 13.6791 111.952 13.0049 112.27 12.4223C112.597 11.8266 112.976 11.3545 113.405 11.006C113.844 10.6444 114.295 10.4704 114.757 10.4838C115.242 10.4944 115.654 10.6735 115.993 11.0212C116.343 11.3674 116.634 11.8095 116.866 12.3475C117.098 12.8855 117.273 13.4838 117.39 14.1423C117.506 14.7893 117.578 15.418 117.606 16.0285C117.633 16.7218 117.562 17.3802 117.391 18.0037C117.221 18.6271 116.976 19.177 116.657 19.6535C116.35 20.1286 115.979 20.5171 115.544 20.8191C115.12 21.108 114.674 21.2755 114.207 21.3216ZM114.706 11.4998C114.316 11.5009 113.971 11.6678 113.67 12.0004C113.379 12.32 113.129 12.7348 112.921 13.2448C112.723 13.7417 112.574 14.3034 112.475 14.9298C112.374 15.5445 112.331 16.1463 112.345 16.735C112.35 17.1594 112.386 17.5918 112.453 18.0323C112.519 18.4728 112.621 18.8675 112.759 19.2165C112.909 19.564 113.102 19.841 113.341 20.0476C113.589 20.2412 113.894 20.3155 114.254 20.2708C114.546 20.2463 114.836 20.1099 115.124 19.8616C115.424 19.6118 115.692 19.2952 115.927 18.9116C116.162 18.5165 116.355 18.0791 116.508 17.5996C116.673 17.1186 116.761 16.6354 116.771 16.1499C116.791 15.6397 116.745 15.1259 116.633 14.6083C116.532 14.0777 116.383 13.5943 116.187 13.1581C116.003 12.7204 115.78 12.3525 115.519 12.0543C115.268 11.743 114.997 11.5582 114.706 11.4998Z" fill="black"/>
<path d="M61.1191 32.3525C73.7121 30.7255 86.2632 28.7753 98.8843 27.361C101.558 27.0614 103.481 26.9056 106.259 26.7139C108.058 26.5898 109.858 26.4855 111.658 26.3793C113.599 26.2649 119.268 25.6395 117.491 26.4275C113.014 28.4123 108.03 28.9638 103.276 30.1403C100.089 30.9292 96.9005 31.7147 93.713 32.5032C91.8123 32.9733 89.9105 33.439 88.0115 33.9164C87.4462 34.0584 86.8057 34.0385 86.3205 34.3614C85.1552 35.1369 89.0986 34.0164 90.4877 33.844C96.1872 33.1363 101.887 32.4286 107.586 31.7209C107.59 31.7204 113.058 31.0076 114.174 30.9532C115.165 30.905 112.419 31.9029 111.476 32.2118C108.706 33.1188 100.358 35.1076 103.27 35.2289C105.659 35.3284 108.265 34.659 110.635 34.3648" stroke="black" stroke-linecap="round"/>
</svg>
