<svg width="30" height="30" viewBox="0 0 30 30" fill="none" xmlns="http://www.w3.org/2000/svg">
<g clip-path="url(#clip0_13_58)">
<path d="M25.5019 4.36135C24.1268 2.97291 22.4889 1.87219 20.6839 1.1234C18.8789 0.37462 16.9429 -0.00723904 14.9887 0.000103922C6.80062 0.000103922 0.1275 6.67135 0.12 14.8614C0.12 17.4845 0.80625 20.0364 2.10188 22.2957L0 30.0001L7.8825 27.9339C10.0622 29.123 12.5058 29.7452 14.9887 29.7432H14.9963C23.1863 29.7432 29.8575 23.072 29.865 14.8745C29.8667 12.9208 29.4819 10.9862 28.7327 9.18187C27.9836 7.37757 26.8868 5.73929 25.5019 4.36135ZM14.9887 27.227C12.7747 27.2252 10.6017 26.6295 8.69625 25.502L8.24625 25.232L3.57 26.4582L4.81875 21.8964L4.52625 21.4257C3.28839 19.4576 2.63371 17.1789 2.63812 14.8539C2.63812 8.0551 8.1825 2.50885 14.9963 2.50885C16.6195 2.50594 18.2273 2.82437 19.7269 3.44578C21.2265 4.06718 22.5883 4.97928 23.7337 6.12948C24.8829 7.27538 25.794 8.63737 26.4144 10.137C27.0349 11.6366 27.3524 13.2441 27.3488 14.867C27.3413 21.6901 21.7969 27.227 14.9887 27.227ZM21.7669 17.9757C21.3975 17.7901 19.5731 16.892 19.23 16.7645C18.8888 16.6426 18.6394 16.5789 18.3956 16.9501C18.1462 17.3195 17.4338 18.1614 17.22 18.4032C17.0063 18.6526 16.785 18.6807 16.4137 18.497C16.0444 18.3095 14.8463 17.9195 13.4288 16.6501C12.3225 15.6657 11.5819 14.447 11.3606 14.0776C11.1469 13.7064 11.34 13.5076 11.5256 13.322C11.6887 13.157 11.895 12.887 12.0806 12.6732C12.2681 12.4595 12.33 12.302 12.4519 12.0545C12.5737 11.8032 12.5156 11.5895 12.4237 11.4039C12.33 11.2182 11.5894 9.38635 11.2762 8.6476C10.9762 7.91823 10.6706 8.01948 10.4419 8.0101C10.2281 7.99698 9.97875 7.99698 9.72937 7.99698C9.54108 8.00177 9.35579 8.04538 9.18512 8.12507C9.01445 8.20476 8.86207 8.31882 8.7375 8.4601C8.39625 8.83135 7.44187 9.72948 7.44187 11.5614C7.44187 13.3932 8.77312 15.1539 8.96062 15.4032C9.14437 15.6526 11.5744 19.4007 15.3037 21.0132C16.185 21.3976 16.8787 21.6245 17.4206 21.797C18.3113 22.082 19.1156 22.0389 19.7569 21.947C20.4694 21.8382 21.9525 21.047 22.2656 20.1789C22.5731 19.3089 22.5731 18.5664 22.4794 18.4107C22.3875 18.2532 22.1381 18.1614 21.7669 17.9757Z" fill="white"/>
</g>
<defs>
<clipPath id="clip0_13_58">
<rect width="30" height="30" fill="white"/>
</clipPath>
</defs>
</svg>
